<svg xmlns="http://www.w3.org/2000/svg" viewBox="0 0 1228 770" width="1228" height="770">
<rect width="1228" height="770" fill="#ffffff" />
<defs><marker id="arrowhead" markerWidth="10" markerHeight="7" refX="10" refY="3.5" orient="auto"><polygon points="0 0, 10 3.5, 0 7" fill="#495057" /></marker></defs>
<g transform="translate(40, 40)">
<line x1="184" y1="82.24066390041494" x2="494" y2="163.92116182572613" stroke="#495057" stroke-width="1.5" marker-end="url(#arrowhead)" />

<line x1="432.93959731543623" y1="72" x2="542.7919463087248" y2="160" stroke="#495057" stroke-width="1.5" marker-end="url(#arrowhead)" />

<line x1="678.6577181208054" y1="72" x2="597.1543624161073" y2="160" stroke="#495057" stroke-width="1.5" marker-end="url(#arrowhead)" />

<line x1="932" y1="70.53218884120172" x2="652.1879194630873" y2="160" stroke="#495057" stroke-width="1.5" marker-end="url(#arrowhead)" />

<line x1="574" y1="210" x2="574" y2="320" stroke="#495057" stroke-width="1.5" marker-end="url(#arrowhead)" />

<line x1="574" y1="392" x2="574" y2="480" stroke="#495057" stroke-width="1.5" marker-end="url(#arrowhead)" />

<line x1="574" y1="552" x2="574" y2="640" stroke="#495057" stroke-width="1.5" marker-end="url(#arrowhead)" />

<rect x="0" y="0" width="184" height="116" rx="8" ry="8" fill="#a5d8ff" stroke="#1e1e1e" stroke-width="1.5" />
<text x="92" y="28.6" text-anchor="middle" dominant-baseline="central" font-family="'Segoe Print', 'Comic Sans MS', 'Patrick Hand', cursive" font-size="14" fill="#1e1e1e"><tspan x="92" dy="0">6+ API calls</tspan><tspan x="92" dy="19.599999999999998">(market, account,</tspan><tspan x="92" dy="19.599999999999998">position, trades,</tspan><tspan x="92" dy="19.599999999999998">leaderboard, chat)</tspan></text>
<rect x="284" y="0" width="208" height="72" rx="8" ry="8" fill="#a5d8ff" stroke="#1e1e1e" stroke-width="1.5" />
<text x="388" y="26.200000000000003" text-anchor="middle" dominant-baseline="central" font-family="'Segoe Print', 'Comic Sans MS', 'Patrick Hand', cursive" font-size="14" fill="#1e1e1e"><tspan x="388" dy="0">Per-strategy</tspan><tspan x="388" dy="19.599999999999998">performance isolation</tspan></text>
<rect x="592" y="0" width="240" height="72" rx="8" ry="8" fill="#a5d8ff" stroke="#1e1e1e" stroke-width="1.5" />
<text x="712" y="26.200000000000003" text-anchor="middle" dominant-baseline="central" font-family="'Segoe Print', 'Comic Sans MS', 'Patrick Hand', cursive" font-size="14" fill="#1e1e1e"><tspan x="712" dy="0">Indicator values</tspan><tspan x="712" dy="19.599999999999998">for threshold calibration</tspan></text>
<rect x="932" y="0" width="216" height="72" rx="8" ry="8" fill="#a5d8ff" stroke="#1e1e1e" stroke-width="1.5" />
<text x="1040" y="26.200000000000003" text-anchor="middle" dominant-baseline="central" font-family="'Segoe Print', 'Comic Sans MS', 'Patrick Hand', cursive" font-size="14" fill="#1e1e1e"><tspan x="1040" dy="0">Expression validation</tspan><tspan x="1040" dy="19.599999999999998">errors from last cycle</tspan></text>
<rect x="494" y="160" width="160" height="50" rx="8" ry="8" fill="#a5d8ff" stroke="#1e1e1e" stroke-width="1.5" />
<text x="574" y="185" text-anchor="middle" dominant-baseline="central" font-family="'Segoe Print', 'Comic Sans MS', 'Patrick Hand', cursive" font-size="14" fill="#1e1e1e"><tspan x="574" dy="0">Context Builder</tspan></text>
<rect x="494" y="320" width="160" height="72" rx="8" ry="8" fill="#a5d8ff" stroke="#1e1e1e" stroke-width="1.5" />
<text x="574" y="346.2" text-anchor="middle" dominant-baseline="central" font-family="'Segoe Print', 'Comic Sans MS', 'Patrick Hand', cursive" font-size="14" fill="#1e1e1e"><tspan x="574" dy="0">Structured JSON</tspan><tspan x="574" dy="19.599999999999998">~15 keys</tspan></text>
<rect x="442" y="480" width="264" height="72" rx="8" ry="8" fill="#a5d8ff" stroke="#1e1e1e" stroke-width="1.5" />
<text x="574" y="506.2" text-anchor="middle" dominant-baseline="central" font-family="'Segoe Print', 'Comic Sans MS', 'Patrick Hand', cursive" font-size="14" fill="#1e1e1e"><tspan x="574" dy="0">Prompt Template</tspan><tspan x="574" dy="19.599999999999998">(role + schema + guidelines)</tspan></text>
<rect x="494" y="640" width="160" height="50" rx="8" ry="8" fill="#a5d8ff" stroke="#1e1e1e" stroke-width="1.5" />
<text x="574" y="665" text-anchor="middle" dominant-baseline="central" font-family="'Segoe Print', 'Comic Sans MS', 'Patrick Hand', cursive" font-size="14" fill="#1e1e1e"><tspan x="574" dy="0">Complete Prompt</tspan></text>
</g>
</svg>