<svg xmlns="http://www.w3.org/2000/svg" viewBox="0 0 1304 1410" width="1304" height="1410">
<rect width="1304" height="1410" fill="#ffffff" />
<defs><marker id="arrowhead" markerWidth="10" markerHeight="7" refX="10" refY="3.5" orient="auto"><polygon points="0 0, 10 3.5, 0 7" fill="#495057" /></marker></defs>
<g transform="translate(40, 40)">
<line x1="160" y1="49.06015037593985" x2="532" y2="160.93984962406014" stroke="#495057" stroke-width="1.5" marker-end="url(#arrowhead)" />

<line x1="382.5" y1="50" x2="569.5" y2="160" stroke="#495057" stroke-width="1.5" marker-end="url(#arrowhead)" />

<line x1="601.875" y1="50" x2="610.125" y2="160" stroke="#495057" stroke-width="1.5" marker-end="url(#arrowhead)" />

<line x1="831.375" y1="50" x2="652.625" y2="160" stroke="#495057" stroke-width="1.5" marker-end="url(#arrowhead)" />

<line x1="592.9941520467836" y1="210" x2="509.36842105263156" y2="320" stroke="#495057" stroke-width="1.5" marker-end="url(#arrowhead)" />

<line x1="482" y1="392" x2="482" y2="480" stroke="#495057" stroke-width="1.5" marker-end="url(#arrowhead)" />

<line x1="1109.5208333333333" y1="50" x2="516.4791666666666" y2="480" stroke="#495057" stroke-width="1.5" marker-end="url(#arrowhead)" />

<line x1="525.6241610738255" y1="480" x2="679.1812080536913" y2="392" stroke="#495057" stroke-width="1.5" marker-end="url(#arrowhead)" />

<line x1="742" y1="392" x2="742" y2="480" stroke="#495057" stroke-width="1.5" marker-end="url(#arrowhead)" />

<line x1="721.6875" y1="530" x2="632.3125" y2="640" stroke="#495057" stroke-width="1.5" marker-end="url(#arrowhead)" />

<line x1="612" y1="690" x2="612" y2="800" stroke="#495057" stroke-width="1.5" marker-end="url(#arrowhead)" />

<line x1="612" y1="850" x2="612" y2="960" stroke="#495057" stroke-width="1.5" marker-end="url(#arrowhead)" />

<line x1="612" y1="1010" x2="612" y2="1120" stroke="#495057" stroke-width="1.5" marker-end="url(#arrowhead)" />

<line x1="612" y1="1170" x2="612" y2="1280" stroke="#495057" stroke-width="1.5" marker-end="url(#arrowhead)" />

<rect x="0" y="0" width="160" height="50" rx="8" ry="8" fill="#a5d8ff" stroke="#1e1e1e" stroke-width="1.5" />
<text x="80" y="25" text-anchor="middle" dominant-baseline="central" font-family="'Segoe Print', 'Comic Sans MS', 'Patrick Hand', cursive" font-size="14" fill="#1e1e1e"><tspan x="80" dy="0">API Calls</tspan></text>
<rect x="260" y="0" width="160" height="50" rx="8" ry="8" fill="#a5d8ff" stroke="#1e1e1e" stroke-width="1.5" />
<text x="340" y="25" text-anchor="middle" dominant-baseline="central" font-family="'Segoe Print', 'Comic Sans MS', 'Patrick Hand', cursive" font-size="14" fill="#1e1e1e"><tspan x="340" dy="0">Runtime Config</tspan></text>
<rect x="520" y="0" width="160" height="50" rx="8" ry="8" fill="#a5d8ff" stroke="#1e1e1e" stroke-width="1.5" />
<text x="600" y="25" text-anchor="middle" dominant-baseline="central" font-family="'Segoe Print', 'Comic Sans MS', 'Patrick Hand', cursive" font-size="14" fill="#1e1e1e"><tspan x="600" dy="0">Trade History</tspan></text>
<rect x="780" y="0" width="184" height="50" rx="8" ry="8" fill="#a5d8ff" stroke="#1e1e1e" stroke-width="1.5" />
<text x="872" y="25" text-anchor="middle" dominant-baseline="central" font-family="'Segoe Print', 'Comic Sans MS', 'Patrick Hand', cursive" font-size="14" fill="#1e1e1e"><tspan x="872" dy="0">Competition Memory</tspan></text>
<rect x="1064" y="0" width="160" height="50" rx="8" ry="8" fill="#a5d8ff" stroke="#1e1e1e" stroke-width="1.5" />
<text x="1144" y="25" text-anchor="middle" dominant-baseline="central" font-family="'Segoe Print', 'Comic Sans MS', 'Patrick Hand', cursive" font-size="14" fill="#1e1e1e"><tspan x="1144" dy="0">Tool Catalog</tspan></text>
<rect x="532" y="160" width="160" height="50" rx="8" ry="8" fill="#a5d8ff" stroke="#1e1e1e" stroke-width="1.5" />
<text x="612" y="185" text-anchor="middle" dominant-baseline="central" font-family="'Segoe Print', 'Comic Sans MS', 'Patrick Hand', cursive" font-size="14" fill="#1e1e1e"><tspan x="612" dy="0">Context Builder</tspan></text>
<rect x="402" y="320" width="160" height="72" rx="8" ry="8" fill="#a5d8ff" stroke="#1e1e1e" stroke-width="1.5" />
<text x="482" y="346.2" text-anchor="middle" dominant-baseline="central" font-family="'Segoe Print', 'Comic Sans MS', 'Patrick Hand', cursive" font-size="14" fill="#1e1e1e"><tspan x="482" dy="0">JSON Context</tspan><tspan x="482" dy="19.599999999999998">~15 keys</tspan></text>
<rect x="662" y="320" width="160" height="72" rx="8" ry="8" fill="#a5d8ff" stroke="#1e1e1e" stroke-width="1.5" />
<text x="742" y="346.2" text-anchor="middle" dominant-baseline="central" font-family="'Segoe Print', 'Comic Sans MS', 'Patrick Hand', cursive" font-size="14" fill="#1e1e1e"><tspan x="742" dy="0">Complete Prompt</tspan><tspan x="742" dy="19.599999999999998">2-50KB</tspan></text>
<rect x="402" y="480" width="160" height="50" rx="8" ry="8" fill="#a5d8ff" stroke="#1e1e1e" stroke-width="1.5" />
<text x="482" y="505" text-anchor="middle" dominant-baseline="central" font-family="'Segoe Print', 'Comic Sans MS', 'Patrick Hand', cursive" font-size="14" fill="#1e1e1e"><tspan x="482" dy="0">Prompt Template</tspan></text>
<rect x="662" y="480" width="160" height="50" rx="8" ry="8" fill="#a5d8ff" stroke="#1e1e1e" stroke-width="1.5" />
<text x="742" y="505" text-anchor="middle" dominant-baseline="central" font-family="'Segoe Print', 'Comic Sans MS', 'Patrick Hand', cursive" font-size="14" fill="#1e1e1e"><tspan x="742" dy="0">LLM</tspan></text>
<rect x="532" y="640" width="160" height="50" rx="8" ry="8" fill="#a5d8ff" stroke="#1e1e1e" stroke-width="1.5" />
<text x="612" y="665" text-anchor="middle" dominant-baseline="central" font-family="'Segoe Print', 'Comic Sans MS', 'Patrick Hand', cursive" font-size="14" fill="#1e1e1e"><tspan x="612" dy="0">Tool Proxy Loop</tspan></text>
<rect x="516" y="800" width="192" height="50" rx="8" ry="8" fill="#a5d8ff" stroke="#1e1e1e" stroke-width="1.5" />
<text x="612" y="825" text-anchor="middle" dominant-baseline="central" font-family="'Segoe Print', 'Comic Sans MS', 'Patrick Hand', cursive" font-size="14" fill="#1e1e1e"><tspan x="612" dy="0">Final Decision JSON</tspan></text>
<rect x="532" y="960" width="160" height="50" rx="8" ry="8" fill="#a5d8ff" stroke="#1e1e1e" stroke-width="1.5" />
<text x="612" y="985" text-anchor="middle" dominant-baseline="central" font-family="'Segoe Print', 'Comic Sans MS', 'Patrick Hand', cursive" font-size="14" fill="#1e1e1e"><tspan x="612" dy="0">Decision Parser</tspan></text>
<rect x="532" y="1120" width="160" height="50" rx="8" ry="8" fill="#a5d8ff" stroke="#1e1e1e" stroke-width="1.5" />
<text x="612" y="1145" text-anchor="middle" dominant-baseline="central" font-family="'Segoe Print', 'Comic Sans MS', 'Patrick Hand', cursive" font-size="14" fill="#1e1e1e"><tspan x="612" dy="0">Cooldown Filter</tspan></text>
<rect x="528" y="1280" width="168" height="50" rx="8" ry="8" fill="#a5d8ff" stroke="#1e1e1e" stroke-width="1.5" />
<text x="612" y="1305" text-anchor="middle" dominant-baseline="central" font-family="'Segoe Print', 'Comic Sans MS', 'Patrick Hand', cursive" font-size="14" fill="#1e1e1e"><tspan x="612" dy="0">Config Overrides</tspan></text>
</g>
</svg>