<svg xmlns="http://www.w3.org/2000/svg" viewBox="0 0 1108 690" width="1108" height="690">
<rect width="1108" height="690" fill="#ffffff" />
<defs><marker id="arrowhead" markerWidth="10" markerHeight="7" refX="10" refY="3.5" orient="auto"><polygon points="0 0, 10 3.5, 0 7" fill="#000000" /></marker></defs>
<g transform="translate(40, 40)">
<path d="M 184,81.32701421800948 Q 310.63494306532084,112.05473794915311 434,144.71563981042655" fill="none" stroke="#000000" stroke-width="1.5" marker-end="url(#arrowhead)" />

<path d="M 394.3255813953488,72 Q 439.80739897681406,104.3833927099331 481.82945736434107,140" fill="none" stroke="#000000" stroke-width="1.5" marker-end="url(#arrowhead)" />

<path d="M 599.0697674418604,72 Q 567.5821905635248,105.580681774416 536.8682170542636,140" fill="none" stroke="#000000" stroke-width="1.5" marker-end="url(#arrowhead)" />

<path d="M 812,70.3152709359606 Q 702.5849890523723,105.1963949891599 592.6821705426356,140" fill="none" stroke="#000000" stroke-width="1.5" marker-end="url(#arrowhead)" />

<path d="M 514,190 Q 512.5898309416589,233.6585138674418 514,280" fill="none" stroke="#000000" stroke-width="1.5" marker-end="url(#arrowhead)" />

<path d="M 514,352 Q 515.7623336838442,386.73403682242497 514,420" fill="none" stroke="#000000" stroke-width="1.5" marker-end="url(#arrowhead)" />

<path d="M 514,492 Q 512.4187653527188,527.5655356465577 514,560" fill="none" stroke="#000000" stroke-width="1.5" marker-end="url(#arrowhead)" />

<g><path d="M 5.637529100600659,0.48844872434165154
    L 177.29685479241016,-0.35328212005151727
    Q 184.08286935047363,-0.5062207110786403 183.64277978523023,5.852065683739056
    L 184.25958511977478,110.10099250173153
    Q 184.39369510439064,115.95405629251127 178.64870484886342,115.39377226622491
    L 6.338260902859474,116.70243182718332
    Q 0.7166158927675497,116.70119228085969 -0.1025850979531242,110.09640665274492
    L 0.21547114674467593,5.849634980080737
    Q 0.5978663334753946,0.36265536757673544 6.0979822422377765,-0.1450506317014515
    Z" fill="#a5d8ff" stroke="#000000" stroke-width="1.5" />
<line x1="-0.33748047405242687" y1="103.83163967187434" x2="4.945390496119472" y2="116.17305674651652" stroke="#000000" stroke-width="0.8" opacity="0.35" />
<line x1="-0.40415182251672377" y1="85.37351438998095" x2="13.512301258415647" y2="116.4777439285117" stroke="#000000" stroke-width="0.8" opacity="0.35" />
<line x1="-0.10024334661284229" y1="66.62480531674535" x2="21.285783618677925" y2="116.06532149482518" stroke="#000000" stroke-width="0.8" opacity="0.35" />
<line x1="0.38372094665828627" y1="47.69376083075426" x2="29.18444779198606" y2="116.42750322842039" stroke="#000000" stroke-width="0.8" opacity="0.35" />
<line x1="0.41017200548230903" y1="28.443644985732963" x2="37.05370325392167" y2="115.98703040204418" stroke="#000000" stroke-width="0.8" opacity="0.35" />
<line x1="-0.2890706455873442" y1="9.200813181041639" x2="44.835306057088275" y2="116.47637899909387" stroke="#000000" stroke-width="0.8" opacity="0.35" />
<line x1="3.8435231134026253" y1="-0.23803904018859612" x2="53.15208628020653" y2="116.11979216465443" stroke="#000000" stroke-width="0.8" opacity="0.35" />
<line x1="11.961301599027138" y1="-0.13223915312846657" x2="60.5687225144832" y2="116.44058342096105" stroke="#000000" stroke-width="0.8" opacity="0.35" />
<line x1="19.56467932830128" y1="-0.22929574100999162" x2="68.72444446986108" y2="116.12357718802377" stroke="#000000" stroke-width="0.8" opacity="0.35" />
<line x1="27.60469133817969" y1="0.3913839116394229" x2="77.29799585711615" y2="115.65566888925241" stroke="#000000" stroke-width="0.8" opacity="0.35" />
<line x1="36.41647861146339" y1="-0.19620632066289545" x2="84.81956557240508" y2="115.99271838189452" stroke="#000000" stroke-width="0.8" opacity="0.35" />
<line x1="43.70122875720335" y1="0.046491076398524456" x2="92.64121415178695" y2="116.46705133598152" stroke="#000000" stroke-width="0.8" opacity="0.35" />
<line x1="51.508158572794855" y1="0.17607937310094712" x2="101.10874442452067" y2="115.8276949791325" stroke="#000000" stroke-width="0.8" opacity="0.35" />
<line x1="59.60105865212972" y1="0.01946319160197163" x2="109.13124124166941" y2="115.61063064307382" stroke="#000000" stroke-width="0.8" opacity="0.35" />
<line x1="68.03345049636846" y1="-0.008302411988552194" x2="117.13057525485809" y2="116.0061750185705" stroke="#000000" stroke-width="0.8" opacity="0.35" />
<line x1="75.53189743155235" y1="0.4275709504927363" x2="125.09078449105462" y2="116.12863545540677" stroke="#000000" stroke-width="0.8" opacity="0.35" />
<line x1="83.76502505746248" y1="0.14759255269746063" x2="132.72165379286915" y2="115.99135001395553" stroke="#000000" stroke-width="0.8" opacity="0.35" />
<line x1="92.0696025936104" y1="0.11266304392484017" x2="141.50721595286475" y2="116.30403007008863" stroke="#000000" stroke-width="0.8" opacity="0.35" />
<line x1="100.41107070031285" y1="0.4098486956281704" x2="148.93624874830883" y2="115.66564002545056" stroke="#000000" stroke-width="0.8" opacity="0.35" />
<line x1="107.92554461765394" y1="0.2524269168097817" x2="157.46087527150692" y2="116.32368390892225" stroke="#000000" stroke-width="0.8" opacity="0.35" />
<line x1="115.76659610648494" y1="0.07682038446000661" x2="164.89019027761267" y2="116.26911603882036" stroke="#000000" stroke-width="0.8" opacity="0.35" />
<line x1="123.6527206741448" y1="0.16887078548461432" x2="173.09187321455127" y2="116.15635668873438" stroke="#000000" stroke-width="0.8" opacity="0.35" />
<line x1="132.1828775325621" y1="0.4181143529858673" x2="181.3875993350487" y2="115.98180097025761" stroke="#000000" stroke-width="0.8" opacity="0.35" />
<line x1="139.8782257386265" y1="0.25988765528745716" x2="183.63445028110982" y2="104.08690101699327" stroke="#000000" stroke-width="0.8" opacity="0.35" />
<line x1="147.5585048454741" y1="-0.4585315802214609" x2="184.11989018131862" y2="85.08527947874765" stroke="#000000" stroke-width="0.8" opacity="0.35" />
<line x1="155.78595714628318" y1="0.21009614917102226" x2="184.4633683114007" y2="66.00241685763629" stroke="#000000" stroke-width="0.8" opacity="0.35" />
<line x1="164.00525230345374" y1="0.24794031733836164" x2="184.36212912621704" y2="47.72356131528963" stroke="#000000" stroke-width="0.8" opacity="0.35" />
<line x1="172.3916620570858" y1="-0.21523276246443857" x2="184.35281274743102" y2="28.389617466576883" stroke="#000000" stroke-width="0.8" opacity="0.35" />
<line x1="179.85244669076565" y1="-0.0679450699899462" x2="183.85891947138316" y2="9.806256748726781" stroke="#000000" stroke-width="0.8" opacity="0.35" />
<text x="92" y="28.6" text-anchor="middle" dominant-baseline="central" font-family="'Virgil', 'Segoe Print', 'Comic Sans MS', 'Patrick Hand', cursive" font-size="14" fill="#000000"><tspan x="92" dy="0">6+ API calls</tspan><tspan x="92" dy="19.599999999999998">(market, account,</tspan><tspan x="92" dy="19.599999999999998">position, trades,</tspan><tspan x="92" dy="19.599999999999998">leaderboard, chat)</tspan></text></g>
<g><path d="M 250.4370839339026,-0.7377621408077175
    L 446.2641190596514,0.09709657634084579
    Q 451.74154246869875,-0.7461114524085133 451.46212071673517,5.979527663370391
    L 452.4067191956801,65.40158797819458
    Q 452.02919478740296,72.13084180206397 445.4159459646107,72.06641781415965
    L 250.64020783168962,72.2157366635438
    Q 244.45437720191512,72.05017574455269 243.98754638201717,66.12984282184698
    L 244.00926252785575,6.2867224323513256
    Q 244.12137376886312,-0.5726575525459339 249.79150000081427,-0.7021538526714721
    Z" fill="#a5d8ff" stroke="#000000" stroke-width="1.5" />
<line x1="243.53189743155235" y1="57.192909031431405" x2="250.4878828665755" y2="72.12863545540677" stroke="#000000" stroke-width="0.8" opacity="0.35" />
<line x1="243.76502505746248" y1="37.99115127332325" x2="258.11875216839" y2="71.99135001395553" stroke="#000000" stroke-width="0.8" opacity="0.35" />
<line x1="244.0696025936104" y1="19.034442404237733" x2="266.9043143283856" y2="72.30403007008863" stroke="#000000" stroke-width="0.8" opacity="0.35" />
<line x1="244.41107070031285" y1="0.4098486956281704" x2="274.3333471238297" y2="71.66564002545056" stroke="#000000" stroke-width="0.8" opacity="0.35" />
<line x1="251.92554461765394" y1="0.2524269168097817" x2="282.8579736470278" y2="72.32368390892225" stroke="#000000" stroke-width="0.8" opacity="0.35" />
<line x1="259.76659610648494" y1="0.07682038446000661" x2="290.28728865313354" y2="72.26911603882036" stroke="#000000" stroke-width="0.8" opacity="0.35" />
<line x1="267.6527206741448" y1="0.16887078548461432" x2="298.48897159007214" y2="72.15635668873438" stroke="#000000" stroke-width="0.8" opacity="0.35" />
<line x1="276.1828775325621" y1="0.4181143529858673" x2="306.78469771056956" y2="71.98180097025761" stroke="#000000" stroke-width="0.8" opacity="0.35" />
<line x1="283.8782257386265" y1="0.25988765528745716" x2="314.07556203025746" y2="72.01711453527241" stroke="#000000" stroke-width="0.8" opacity="0.35" />
<line x1="291.5585048454741" y1="-0.4585315802214609" x2="322.56100193046626" y2="71.93727235733968" stroke="#000000" stroke-width="0.8" opacity="0.35" />
<line x1="299.7859571462832" y1="0.21009614917102226" x2="330.90448006054834" y2="71.7761890965412" stroke="#000000" stroke-width="0.8" opacity="0.35" />
<line x1="308.00525230345374" y1="0.24794031733836164" x2="338.8032408753647" y2="72.41911291450742" stroke="#000000" stroke-width="0.8" opacity="0.35" />
<line x1="316.3916620570858" y1="-0.21523276246443857" x2="346.79392449657865" y2="72.00694842610756" stroke="#000000" stroke-width="0.8" opacity="0.35" />
<line x1="323.85244669076565" y1="-0.0679450699899462" x2="354.3000312205308" y2="72.34536706857034" stroke="#000000" stroke-width="0.8" opacity="0.35" />
<line x1="332.2580213734618" y1="0.2027401383347751" x2="362.47846261134003" y2="72.22062837072008" stroke="#000000" stroke-width="0.8" opacity="0.35" />
<line x1="340.2106712766108" y1="0.2804797594435513" x2="370.6771381320436" y2="71.98756753386988" stroke="#000000" stroke-width="0.8" opacity="0.35" />
<line x1="348.48804092258433" y1="-0.444710418680188" x2="378.67097926598984" y2="72.2315730680375" stroke="#000000" stroke-width="0.8" opacity="0.35" />
<line x1="356.24452915370784" y1="-0.14300589361664606" x2="386.60374581320906" y2="71.55799808991651" stroke="#000000" stroke-width="0.8" opacity="0.35" />
<line x1="364.15121683025063" y1="-0.16609044255892513" x2="394.55630995515884" y2="72.28283324145741" stroke="#000000" stroke-width="0.8" opacity="0.35" />
<line x1="372.39761843078304" y1="-0.4451594973579631" x2="402.41991219676896" y2="71.59267617892328" stroke="#000000" stroke-width="0.8" opacity="0.35" />
<line x1="379.61611803533015" y1="-0.26287621266374117" x2="409.99068922035116" y2="72.21531325839896" stroke="#000000" stroke-width="0.8" opacity="0.35" />
<line x1="387.7923236009956" y1="0.29311284003051696" x2="418.6561470069941" y2="72.04214918381865" stroke="#000000" stroke-width="0.8" opacity="0.35" />
<line x1="396.29340076661356" y1="0.23156073002610356" x2="426.91205785827736" y2="71.84488443824739" stroke="#000000" stroke-width="0.8" opacity="0.35" />
<line x1="403.56075984477866" y1="0.418685965698387" x2="434.3969155294352" y2="72.41443819219421" stroke="#000000" stroke-width="0.8" opacity="0.35" />
<line x1="412.39828153245617" y1="-0.11026753219994134" x2="442.16394754501056" y2="71.51815610546328" stroke="#000000" stroke-width="0.8" opacity="0.35" />
<line x1="419.5317915861815" y1="0.026799493309681566" x2="450.27792036067007" y2="71.7445278391242" stroke="#000000" stroke-width="0.8" opacity="0.35" />
<line x1="427.63645954912863" y1="-0.3058895154572383" x2="451.8355708069503" y2="57.06259740517438" stroke="#000000" stroke-width="0.8" opacity="0.35" />
<line x1="436.0919990942" y1="0.45802863858261844" x2="452.0030895549098" y2="37.95130206735839" stroke="#000000" stroke-width="0.8" opacity="0.35" />
<line x1="443.8372510953086" y1="0.18583960508112796" x2="451.93466622672963" y2="19.199790155576874" stroke="#000000" stroke-width="0.8" opacity="0.35" />
<text x="348" y="26.200000000000003" text-anchor="middle" dominant-baseline="central" font-family="'Virgil', 'Segoe Print', 'Comic Sans MS', 'Patrick Hand', cursive" font-size="14" fill="#000000"><tspan x="348" dy="0">Per-strategy</tspan><tspan x="348" dy="19.599999999999998">performance isolation</tspan></text></g>
<g><path d="M 517.9059085360095,-0.294537141064211
    L 745.4223457256558,0.061060274523697444
    Q 751.2545672868855,-0.3210642805752286 752.3151442237565,6.69505246710105
    L 751.6642836448118,66.5626704603419
    Q 751.6719449349112,71.57196517360512 746.3089973978749,72.00787845518062
    L 518.3719104760075,72.54319368932556
    Q 512.6286693717611,72.56657292284217 511.4263311874256,65.43821924736767
    L 511.67392084288804,6.587493085628694
    Q 511.67715085630334,0.5292191211465251 518.0104226391613,-0.32157761689813924
    Z" fill="#a5d8ff" stroke="#000000" stroke-width="1.5" />
<line x1="511.7856149220679" y1="56.61534155512683" x2="518.7484013713479" y2="72.08621960622622" stroke="#000000" stroke-width="0.8" opacity="0.35" />
<line x1="512.0627826713753" y1="37.64223076001492" x2="526.5066066538352" y2="72.47853935597186" stroke="#000000" stroke-width="0.8" opacity="0.35" />
<line x1="512.1406505172476" y1="18.80355412754935" x2="534.5557704592798" y2="71.64183672217405" stroke="#000000" stroke-width="0.8" opacity="0.35" />
<line x1="512.161405530107" y1="-0.3604786920986953" x2="542.7022133413652" y2="72.38778172562888" stroke="#000000" stroke-width="0.8" opacity="0.35" />
<line x1="520.2476059222536" y1="0.4610495443776017" x2="550.6468150062869" y2="72.18009982910735" stroke="#000000" stroke-width="0.8" opacity="0.35" />
<line x1="528.1316278366648" y1="0.30755836174012074" x2="558.7403580439645" y2="71.64342859116368" stroke="#000000" stroke-width="0.8" opacity="0.35" />
<line x1="536.11824885229" y1="-0.3309510957915336" x2="566.3654283958899" y2="72.48416693036756" stroke="#000000" stroke-width="0.8" opacity="0.35" />
<line x1="543.8973807867578" y1="-0.34146395749849034" x2="574.7759149758353" y2="71.90764667305484" stroke="#000000" stroke-width="0.8" opacity="0.35" />
<line x1="551.6691909128349" y1="0.44830595860548783" x2="582.0564662020919" y2="71.97715542267542" stroke="#000000" stroke-width="0.8" opacity="0.35" />
<line x1="559.7621623403611" y1="-0.3552342600960401" x2="590.6441205855958" y2="72.3928862454195" stroke="#000000" stroke-width="0.8" opacity="0.35" />
<line x1="567.7288902376604" y1="0.3749601231993722" x2="598.4837070558792" y2="71.86300648809993" stroke="#000000" stroke-width="0.8" opacity="0.35" />
<line x1="576.3509178442073" y1="-0.41748712203116156" x2="606.6064348272853" y2="71.7112718757329" stroke="#000000" stroke-width="0.8" opacity="0.35" />
<line x1="583.6268485222425" y1="-0.4817086273251334" x2="614.8537098397614" y2="71.52566272709373" stroke="#000000" stroke-width="0.8" opacity="0.35" />
<line x1="591.6695160025338" y1="-0.3160698187639355" x2="622.7719312308725" y2="71.53544163837796" stroke="#000000" stroke-width="0.8" opacity="0.35" />
<line x1="600.3659460964045" y1="0.4468627359055972" x2="630.822080211627" y2="71.90882469956705" stroke="#000000" stroke-width="0.8" opacity="0.35" />
<line x1="608.0837525701791" y1="0.49837052793122893" x2="638.434756762596" y2="72.0160920512426" stroke="#000000" stroke-width="0.8" opacity="0.35" />
<line x1="616.4931912884167" y1="-0.21344203291664599" x2="646.7243567968767" y2="71.60585658945433" stroke="#000000" stroke-width="0.8" opacity="0.35" />
<line x1="623.8830946635712" y1="-0.012834195367759094" x2="654.5286967281249" y2="71.75065920873021" stroke="#000000" stroke-width="0.8" opacity="0.35" />
<line x1="631.9039956376109" y1="-0.13084984507440822" x2="662.4026633412436" y2="71.57709115005127" stroke="#000000" stroke-width="0.8" opacity="0.35" />
<line x1="639.5503322358854" y1="0.11694152703785221" x2="670.9151459738064" y2="72.26236675123073" stroke="#000000" stroke-width="0.8" opacity="0.35" />
<line x1="647.6559046491166" y1="0.12389545281303072" x2="678.0965107773304" y2="72.3449505317767" stroke="#000000" stroke-width="0.8" opacity="0.35" />
<line x1="656.3065008917474" y1="-0.4426719430484809" x2="686.1671454550819" y2="71.61425529954249" stroke="#000000" stroke-width="0.8" opacity="0.35" />
<line x1="664.2196344646836" y1="-0.45522807213274064" x2="694.569759148068" y2="71.86574457827737" stroke="#000000" stroke-width="0.8" opacity="0.35" />
<line x1="672.0860690561894" y1="-0.4263251138472697" x2="702.5018040778136" y2="71.57016777266836" stroke="#000000" stroke-width="0.8" opacity="0.35" />
<line x1="679.8530189336889" y1="-0.12520293119814596" x2="710.629912748002" y2="72.0350285473396" stroke="#000000" stroke-width="0.8" opacity="0.35" />
<line x1="687.8579169225923" y1="-0.3008644462343" x2="718.0181660105159" y2="72.06173398887404" stroke="#000000" stroke-width="0.8" opacity="0.35" />
<line x1="695.5825444262664" y1="0.19834341465684702" x2="726.3355252317056" y2="72.18468450828823" stroke="#000000" stroke-width="0.8" opacity="0.35" />
<line x1="704.1879072001384" y1="-0.37527081729786005" x2="734.7763510001027" y2="72.18108098443918" stroke="#000000" stroke-width="0.8" opacity="0.35" />
<line x1="711.9022837886841" y1="0.41459560736984713" x2="742.6200316957497" y2="71.93687919183867" stroke="#000000" stroke-width="0.8" opacity="0.35" />
<line x1="719.8574909109811" y1="-0.0907989877377986" x2="750.6464089193146" y2="71.85580843802018" stroke="#000000" stroke-width="0.8" opacity="0.35" />
<line x1="728.0548287571655" y1="-0.3252645543898325" x2="752.3534528627351" y2="57.11260973249202" stroke="#000000" stroke-width="0.8" opacity="0.35" />
<line x1="736.1444915255561" y1="0.039199872029712424" x2="752.1414821934814" y2="37.61235027817367" stroke="#000000" stroke-width="0.8" opacity="0.35" />
<line x1="744.3357279433385" y1="-0.3847709337933338" x2="751.5385828852959" y2="18.954356179616216" stroke="#000000" stroke-width="0.8" opacity="0.35" />
<text x="632" y="26.200000000000003" text-anchor="middle" dominant-baseline="central" font-family="'Virgil', 'Segoe Print', 'Comic Sans MS', 'Patrick Hand', cursive" font-size="14" fill="#000000"><tspan x="632" dy="0">Indicator values</tspan><tspan x="632" dy="19.599999999999998">for threshold calibration</tspan></text></g>
<g><path d="M 818.5893293681293,0.44010114992029514
    L 1022.3473410950392,0.7064191636945907
    Q 1027.767326657371,-0.4066646435094299 1028.562440184799,6.0638929600972915
    L 1027.79450973215,65.34113976716799
    Q 1028.6280289485476,71.93370567043131 1022.6216572882913,72.52637676631093
    L 817.3737693169533,72.24798461720638
    Q 811.5669078135993,72.59742229868425 811.8345987017001,65.58425369379438
    L 811.2772341581949,5.44027278336381
    Q 811.2774370590123,0.6188971359206334 817.2884940906406,-0.7023126207277528
    Z" fill="#a5d8ff" stroke="#000000" stroke-width="1.5" />
<line x1="811.5317915861815" y1="56.792137574248244" x2="818.2779203606701" y2="71.7445278391242" stroke="#000000" stroke-width="0.8" opacity="0.35" />
<line x1="811.6364595491286" y1="37.53766920516848" x2="826.276682556098" y2="72.29725932423571" stroke="#000000" stroke-width="0.8" opacity="0.35" />
<line x1="812.0919990942" y1="19.379807998895476" x2="834.4442013040575" y2="72.1077433467326" stroke="#000000" stroke-width="0.8" opacity="0.35" />
<line x1="811.8372510953086" y1="0.18583960508112796" x2="842.3757779758773" y2="72.27801079526398" stroke="#000000" stroke-width="0.8" opacity="0.35" />
<line x1="819.7280373670001" y1="0.47145423025722266" x2="850.4594247355494" y2="71.50815871712257" stroke="#000000" stroke-width="0.8" opacity="0.35" />
<line x1="828.4407723227487" y1="-0.40455316624638726" x2="858.0185473812166" y2="71.83207007004239" stroke="#000000" stroke-width="0.8" opacity="0.35" />
<line x1="835.7672091012137" y1="0.02025889047945384" x2="866.0039857193774" y2="72.44287793955937" stroke="#000000" stroke-width="0.8" opacity="0.35" />
<line x1="844.1942960891133" y1="0.0392046261113137" x2="873.9542333130962" y2="71.61567452609233" stroke="#000000" stroke-width="0.8" opacity="0.35" />
<line x1="851.7080588611425" y1="-0.31845354549295735" x2="882.0466893568587" y2="72.36474487397936" stroke="#000000" stroke-width="0.8" opacity="0.35" />
<line x1="859.9014867403021" y1="-0.4651421889102494" x2="890.0267076182759" y2="72.12061271946004" stroke="#000000" stroke-width="0.8" opacity="0.35" />
<line x1="867.7792447899337" y1="-0.11027470190219901" x2="898.7387361822261" y2="71.7053017179278" stroke="#000000" stroke-width="0.8" opacity="0.35" />
<line x1="875.9609843558937" y1="-0.4384489411531831" x2="906.2624472290704" y2="71.9260866706336" stroke="#000000" stroke-width="0.8" opacity="0.35" />
<line x1="884.1529627090476" y1="0.4316369126900099" x2="914.2261708971096" y2="71.66547505437848" stroke="#000000" stroke-width="0.8" opacity="0.35" />
<line x1="891.8730143323846" y1="0.4991559043628513" x2="921.9617531949248" y2="72.11970695149648" stroke="#000000" stroke-width="0.8" opacity="0.35" />
<line x1="900.4792910420801" y1="0.28437676489556907" x2="930.5589447958705" y2="71.96072611127602" stroke="#000000" stroke-width="0.8" opacity="0.35" />
<line x1="907.9360624039618" y1="0.3585640278779465" x2="938.0105776612986" y2="71.56086270598462" stroke="#000000" stroke-width="0.8" opacity="0.35" />
<line x1="916.0250702265112" y1="-0.36529070171309286" x2="946.4290252330034" y2="72.19662404666724" stroke="#000000" stroke-width="0.8" opacity="0.35" />
<line x1="923.5178194658392" y1="0.046157469172612764" x2="954.075204378169" y2="71.58034526931078" stroke="#000000" stroke-width="0.8" opacity="0.35" />
<line x1="932.005709082332" y1="0.27959656379243825" x2="962.6698355881476" y2="71.94239003338589" stroke="#000000" stroke-width="0.8" opacity="0.35" />
<line x1="940.0676127472107" y1="-0.10717575586750172" x2="970.7233737649008" y2="71.68138015786099" stroke="#000000" stroke-width="0.8" opacity="0.35" />
<line x1="948.252359405451" y1="0.45470967086384917" x2="978.4515168089351" y2="71.56347695556178" stroke="#000000" stroke-width="0.8" opacity="0.35" />
<line x1="955.7988146826829" y1="-0.41812876647600206" x2="986.8328691181891" y2="71.7084325316473" stroke="#000000" stroke-width="0.8" opacity="0.35" />
<line x1="963.8342898190986" y1="0.24846996330597904" x2="994.3488797412579" y2="71.70856831208948" stroke="#000000" stroke-width="0.8" opacity="0.35" />
<line x1="971.7548187251123" y1="-0.28826541260787053" x2="1002.7150195561903" y2="72.1873128692605" stroke="#000000" stroke-width="0.8" opacity="0.35" />
<line x1="980.3175105103874" y1="-0.4997773818176938" x2="1010.1626509143684" y2="71.98347578987887" stroke="#000000" stroke-width="0.8" opacity="0.35" />
<line x1="988.0212104326056" y1="-0.36372957441381004" x2="1018.7237365440456" y2="71.84479007778282" stroke="#000000" stroke-width="0.8" opacity="0.35" />
<line x1="996.1547869952556" y1="-0.23074954883486498" x2="1026.754991044087" y2="71.92120137554048" stroke="#000000" stroke-width="0.8" opacity="0.35" />
<line x1="1003.641857957773" y1="0.3597827406556462" x2="1028.487136949043" y2="57.187502721364325" stroke="#000000" stroke-width="0.8" opacity="0.35" />
<line x1="1011.7454514375713" y1="-0.4673158361838432" x2="1028.19395241038" y2="38.00822281601706" stroke="#000000" stroke-width="0.8" opacity="0.35" />
<line x1="1019.92428945766" y1="0.21266581529926043" x2="1028.0550943051894" y2="18.5380114424369" stroke="#000000" stroke-width="0.8" opacity="0.35" />
<text x="920" y="26.200000000000003" text-anchor="middle" dominant-baseline="central" font-family="'Virgil', 'Segoe Print', 'Comic Sans MS', 'Patrick Hand', cursive" font-size="14" fill="#000000"><tspan x="920" dy="0">Expression validation</tspan><tspan x="920" dy="19.599999999999998">errors from last cycle</tspan></text></g>
<g><path d="M 440.18091907919006,140.32945169702543
    L 587.3171578918009,140.19297109838044
    Q 593.7986168674161,139.6688671849006 593.8345879471467,146.44643664961768
    L 593.5579525768917,184.12910358428417
    Q 593.3605123292291,190.0910384929989 587.3552516590025,189.9414765338406
    L 439.3423265882702,189.73200321988406
    Q 433.8891300059504,189.7795284005333 433.8121956032028,184.28320149828141
    L 434.0525428210094,146.22944406357146
    Q 434.647455369035,139.6775887219428 439.4982125815677,139.7868753838884
    Z" fill="#a5d8ff" stroke="#000000" stroke-width="1.5" />
<line x1="433.5206414457771" y1="182.69371051220043" x2="436.7222053631745" y2="190.19834341465685" stroke="#000000" stroke-width="0.8" opacity="0.35" />
<line x1="434.1178330467228" y1="163.61295031166708" x2="445.3275681370465" y2="189.62472918270214" stroke="#000000" stroke-width="0.8" opacity="0.35" />
<line x1="433.5694659121509" y1="144.29130754606282" x2="453.04194472559226" y2="190.41459560736985" stroke="#000000" stroke-width="0.8" opacity="0.35" />
<line x1="439.98791348385566" y1="140.19662404666724" x2="460.99715184788926" y2="189.9092010122622" stroke="#000000" stroke-width="0.8" opacity="0.35" />
<line x1="447.6340926290213" y1="139.58034526931078" x2="469.19448969407364" y2="189.67473544561017" stroke="#000000" stroke-width="0.8" opacity="0.35" />
<line x1="456.22872383899994" y1="139.9423900333859" x2="477.2841524624642" y2="190.0391998720297" stroke="#000000" stroke-width="0.8" opacity="0.35" />
<line x1="464.2822620157531" y1="139.68138015786099" x2="485.4753888802466" y2="189.61522906620667" stroke="#000000" stroke-width="0.8" opacity="0.35" />
<line x1="472.01040505978744" y1="139.56347695556178" x2="493.1532673232437" y2="190.05676789167774" stroke="#000000" stroke-width="0.8" opacity="0.35" />
<line x1="480.39175736904144" y1="139.7084325316473" x2="501.3320980974864" y2="190.3767153977533" stroke="#000000" stroke-width="0.8" opacity="0.35" />
<line x1="487.90776799211017" y1="139.70856831208948" x2="508.7034450924007" y2="189.50592984427476" stroke="#000000" stroke-width="0.8" opacity="0.35" />
<line x1="496.27390780704263" y1="140.1873128692605" x2="516.9878190114582" y2="190.43424198725552" stroke="#000000" stroke-width="0.8" opacity="0.35" />
<line x1="503.72153916522075" y1="139.98347578987887" x2="525.3454038983514" y2="189.85964567190968" stroke="#000000" stroke-width="0.8" opacity="0.35" />
<line x1="512.2826247948979" y1="139.84479007778282" x2="533.1964196145605" y2="190.21314610214904" stroke="#000000" stroke-width="0.8" opacity="0.35" />
<line x1="520.3138792949394" y1="139.92120137554048" x2="540.6707844987145" y2="190.40053849144897" stroke="#000000" stroke-width="0.8" opacity="0.35" />
<line x1="528.4871369490429" y1="140.42216464042576" x2="548.7933762069556" y2="189.65408512841896" stroke="#000000" stroke-width="0.8" opacity="0.35" />
<line x1="536.19395241038" y1="140.16466409539134" x2="556.7228089576206" y2="189.7612115090451" stroke="#000000" stroke-width="0.8" opacity="0.35" />
<line x1="544.0550943051894" y1="139.61623208212404" x2="565.4735512052653" y2="189.65719095395616" stroke="#000000" stroke-width="0.8" opacity="0.35" />
<line x1="552.0923851551634" y1="139.50224007480574" x2="572.7852391562305" y2="189.6450698422559" stroke="#000000" stroke-width="0.8" opacity="0.35" />
<line x1="559.9868737640354" y1="140.30190373062214" x2="580.7303819477497" y2="190.06938391645963" stroke="#000000" stroke-width="0.8" opacity="0.35" />
<line x1="568.2878735662089" y1="140.115522853499" x2="588.6847349656277" y2="189.58823478211525" stroke="#000000" stroke-width="0.8" opacity="0.35" />
<line x1="575.518758180373" y1="140.14099061546585" x2="594.2739614672755" y2="182.9938760528666" stroke="#000000" stroke-width="0.8" opacity="0.35" />
<line x1="583.8805083738298" y1="140.37743651433993" x2="594.2478668720778" y2="163.91583826213807" stroke="#000000" stroke-width="0.8" opacity="0.35" />
<line x1="592.1893185017325" y1="139.59796217778057" x2="594.3724015839107" y2="144.8929469613022" stroke="#000000" stroke-width="0.8" opacity="0.35" />
<text x="514" y="165" text-anchor="middle" dominant-baseline="central" font-family="'Virgil', 'Segoe Print', 'Comic Sans MS', 'Patrick Hand', cursive" font-size="14" fill="#000000"><tspan x="514" dy="0">Context Builder</tspan></text></g>
<g><path d="M 440.6023358133025,279.75143472864784
    L 588.372704944959,279.86165198816525
    Q 593.5628524681342,279.3456762332389 593.2588947664121,285.4367329192064
    L 594.5248373074537,345.6322280876684
    Q 593.5676018810882,352.41086171056395 588.2809693038907,351.77223711182523
    L 440.6513629808833,351.6585380125871
    Q 433.7347996554522,352.47626576558105 433.25033392727346,345.5823087478311
    L 433.9752136848183,286.308614442165
    Q 433.7894685078645,279.4042531834057 439.67083037068187,280.0318156489084
    Z" fill="#a5d8ff" stroke="#000000" stroke-width="1.5" />
<line x1="434.0212104326056" y1="336.40160850652484" x2="440.7237365440455" y2="351.8447900777828" stroke="#000000" stroke-width="0.8" opacity="0.35" />
<line x1="434.15478699525556" y1="317.6128091717909" x2="448.75499104408703" y2="351.9212013755405" stroke="#000000" stroke-width="0.8" opacity="0.35" />
<line x1="433.641857957773" y1="299.28156210096853" x2="456.92824869819054" y2="352.42216464042576" stroke="#000000" stroke-width="0.8" opacity="0.35" />
<line x1="433.7454514375713" y1="279.53268416381616" x2="464.63506415952764" y2="352.16466409539134" stroke="#000000" stroke-width="0.8" opacity="0.35" />
<line x1="441.92428945766005" y1="280.21266581529926" x2="472.49620605433705" y2="351.61623208212404" stroke="#000000" stroke-width="0.8" opacity="0.35" />
<line x1="450.4873380543795" y1="280.3682547354492" x2="480.533496904311" y2="351.50224007480574" stroke="#000000" stroke-width="0.8" opacity="0.35" />
<line x1="457.99990282888757" y1="279.5857731194701" x2="488.42798551318305" y2="352.30190373062214" stroke="#000000" stroke-width="0.8" opacity="0.35" />
<line x1="466.47253250866015" y1="279.65748620849627" x2="496.7289853153565" y2="352.115522853499" stroke="#000000" stroke-width="0.8" opacity="0.35" />
<line x1="473.5805199997267" y1="279.5280698563729" x2="503.9598699295206" y2="352.14099061546585" stroke="#000000" stroke-width="0.8" opacity="0.35" />
<line x1="481.6268073232932" y1="280.1012155225544" x2="512.3216201229775" y2="352.37743651433993" stroke="#000000" stroke-width="0.8" opacity="0.35" />
<line x1="489.84686855547625" y1="280.1241030968904" x2="520.6304302508802" y2="351.5979621777806" stroke="#000000" stroke-width="0.8" opacity="0.35" />
<line x1="498.2765150594714" y1="280.44169194265123" x2="528.0357972588977" y2="352.32632649900734" stroke="#000000" stroke-width="0.8" opacity="0.35" />
<line x1="505.8493177049895" y1="280.3758739468103" x2="536.7024680908949" y2="352.2040081951527" stroke="#000000" stroke-width="0.8" opacity="0.35" />
<line x1="513.8421359846216" y1="279.53224053390295" x2="544.2099521407058" y2="352.33992953260895" stroke="#000000" stroke-width="0.8" opacity="0.35" />
<line x1="522.2067371243684" y1="280.2008323454211" x2="552.2160246972057" y2="352.1136467644101" stroke="#000000" stroke-width="0.8" opacity="0.35" />
<line x1="530.2471362167635" y1="280.38721145298405" x2="560.8067931906121" y2="352.15772891436063" stroke="#000000" stroke-width="0.8" opacity="0.35" />
<line x1="537.9634692277832" y1="279.76717883287347" x2="568.7135376823285" y2="352.4805913847158" stroke="#000000" stroke-width="0.8" opacity="0.35" />
<line x1="546.284693540716" y1="279.70690682672284" x2="576.8368264014794" y2="352.12255012394235" stroke="#000000" stroke-width="0.8" opacity="0.35" />
<line x1="554.0930247061988" y1="280.4284346783679" x2="584.894923448896" y2="351.942982902161" stroke="#000000" stroke-width="0.8" opacity="0.35" />
<line x1="562.4877871087956" y1="279.5093429935587" x2="592.73752191022" y2="351.7203438324141" stroke="#000000" stroke-width="0.8" opacity="0.35" />
<line x1="569.7865362865341" y1="279.6524446522508" x2="594.4555642134001" y2="336.9352645444412" stroke="#000000" stroke-width="0.8" opacity="0.35" />
<line x1="578.0771225762437" y1="280.0108977043328" x2="594.1062382718737" y2="318.1062243529903" stroke="#000000" stroke-width="0.8" opacity="0.35" />
<line x1="586.2791064272242" y1="279.80101937386644" x2="593.716838525288" y2="299.24598971986956" stroke="#000000" stroke-width="0.8" opacity="0.35" />
<text x="514" y="306.2" text-anchor="middle" dominant-baseline="central" font-family="'Virgil', 'Segoe Print', 'Comic Sans MS', 'Patrick Hand', cursive" font-size="14" fill="#000000"><tspan x="514" dy="0">Structured JSON</tspan><tspan x="514" dy="19.599999999999998">~15 keys</tspan></text></g>
<g><path d="M 388.5661547715099,420.3718003081167
    L 640.3954210926204,419.9132054425463
    Q 645.281700084297,419.7703028332144 646.1861546453356,426.28397775259873
    L 645.3969432666709,486.55860237586603
    Q 646.2437531818359,491.5252735482136 640.0192172114257,492.41477258920713
    L 388.66253791397685,491.39202826462497
    Q 382.489489748511,492.19738460577355 382.65459129558803,486.05066435219305
    L 381.82201967648143,425.7739765574843
    Q 382.5638109202155,420.39203451262074 388.30601229272906,420.61441821009794
    Z" fill="#a5d8ff" stroke="#000000" stroke-width="1.5" />
<line x1="382.4096121400653" y1="476.5519452672632" x2="388.9075233050466" y2="491.63217784489825" stroke="#000000" stroke-width="0.8" opacity="0.35" />
<line x1="381.88106794263877" y1="457.67417315694536" x2="396.7343934959576" y2="492.4814009810907" stroke="#000000" stroke-width="0.8" opacity="0.35" />
<line x1="382.46560424593736" y1="438.81372340768206" x2="404.5613162709273" y2="492.34411379563244" stroke="#000000" stroke-width="0.8" opacity="0.35" />
<line x1="381.80946910395505" y1="419.62421899697074" x2="412.4041930240914" y2="492.01872188220295" stroke="#000000" stroke-width="0.8" opacity="0.35" />
<line x1="389.956520520318" y1="419.51808980026544" x2="420.3642094565843" y2="492.0628026301056" stroke="#000000" stroke-width="0.8" opacity="0.35" />
<line x1="398.37020969779405" y1="419.73814423454314" x2="428.4338023094246" y2="492.2969873349721" stroke="#000000" stroke-width="0.8" opacity="0.35" />
<line x1="406.4019437750467" y1="420.43303484240096" x2="435.98246641389454" y2="492.136525595648" stroke="#000000" stroke-width="0.8" opacity="0.35" />
<line x1="414.49375354514814" y1="419.71327520440536" x2="444.40842264804854" y2="491.7215053368618" stroke="#000000" stroke-width="0.8" opacity="0.35" />
<line x1="421.5103496706688" y1="419.9379505071338" x2="452.8688943013353" y2="492.0039507569745" stroke="#000000" stroke-width="0.8" opacity="0.35" />
<line x1="429.90993356379477" y1="420.2933547234934" x2="460.1529875491819" y2="492.0808668777754" stroke="#000000" stroke-width="0.8" opacity="0.35" />
<line x1="437.5007525554829" y1="419.94400925714945" x2="468.3060753732647" y2="491.89409113166766" stroke="#000000" stroke-width="0.8" opacity="0.35" />
<line x1="445.87207253708766" y1="419.6845026004903" x2="476.41129102909366" y2="491.67335418671246" stroke="#000000" stroke-width="0.8" opacity="0.35" />
<line x1="453.8261820802527" y1="419.8575942546231" x2="483.9697051220068" y2="492.11489316998086" stroke="#000000" stroke-width="0.8" opacity="0.35" />
<line x1="462.011384165271" y1="420.06047274768207" x2="492.0091691652419" y2="492.0883420013488" stroke="#000000" stroke-width="0.8" opacity="0.35" />
<line x1="469.8770358262991" y1="419.7024596406918" x2="500.37348372324453" y2="491.9045854575015" stroke="#000000" stroke-width="0.8" opacity="0.35" />
<line x1="477.82605859402247" y1="419.919082749675" x2="508.4196096881355" y2="492.35395843934384" stroke="#000000" stroke-width="0.8" opacity="0.35" />
<line x1="486.3659075618634" y1="420.0587036434117" x2="516.0334124458245" y2="491.61042867710785" stroke="#000000" stroke-width="0.8" opacity="0.35" />
<line x1="493.9424825479182" y1="420.41464855695085" x2="524.329505322436" y2="492.0018133065332" stroke="#000000" stroke-width="0.8" opacity="0.35" />
<line x1="501.8331460826885" y1="419.99765100720833" x2="532.3008103631696" y2="492.3517235165709" stroke="#000000" stroke-width="0.8" opacity="0.35" />
<line x1="509.7829376504742" y1="419.6461235816241" x2="540.5425597257349" y2="491.5520969552672" stroke="#000000" stroke-width="0.8" opacity="0.35" />
<line x1="518.3218529551305" y1="420.1934444123508" x2="548.709348729521" y2="491.56727836946084" stroke="#000000" stroke-width="0.8" opacity="0.35" />
<line x1="525.9977955701615" y1="420.0441703170309" x2="556.8122844925533" y2="492.4818583917331" stroke="#000000" stroke-width="0.8" opacity="0.35" />
<line x1="534.3064965067351" y1="420.4348544723325" x2="564.612282988172" y2="491.8742781410947" stroke="#000000" stroke-width="0.8" opacity="0.35" />
<line x1="542.4819178898906" y1="419.8044339137414" x2="572.2034927721365" y2="491.8348254661396" stroke="#000000" stroke-width="0.8" opacity="0.35" />
<line x1="549.5917295711552" y1="419.98461508085165" x2="580.1631576514706" y2="492.0906141786036" stroke="#000000" stroke-width="0.8" opacity="0.35" />
<line x1="557.9147922659249" y1="420.31384002195773" x2="588.148979252263" y2="492.384071098626" stroke="#000000" stroke-width="0.8" opacity="0.35" />
<line x1="565.9228604870223" y1="420.1427959349603" x2="596.662306192346" y2="491.8387829081694" stroke="#000000" stroke-width="0.8" opacity="0.35" />
<line x1="574.3648535714965" y1="419.93024497808074" x2="603.9834896917823" y2="492.23728753312207" stroke="#000000" stroke-width="0.8" opacity="0.35" />
<line x1="582.4511816456506" y1="419.5847986001536" x2="612.1593167511423" y2="491.54023755624075" stroke="#000000" stroke-width="0.8" opacity="0.35" />
<line x1="590.3055202242322" y1="419.53689369330095" x2="620.7257938963089" y2="491.6363570831163" stroke="#000000" stroke-width="0.8" opacity="0.35" />
<line x1="598.4825378301321" y1="419.84513167217665" x2="628.749959623136" y2="491.612839611269" stroke="#000000" stroke-width="0.8" opacity="0.35" />
<line x1="606.3378465656133" y1="419.86833599997954" x2="636.4489071862704" y2="492.2508179123215" stroke="#000000" stroke-width="0.8" opacity="0.35" />
<line x1="613.5455277837136" y1="419.87545558594866" x2="644.6504016572221" y2="491.6073269282788" stroke="#000000" stroke-width="0.8" opacity="0.35" />
<line x1="622.2231223941253" y1="420.491646942588" x2="646.1502572823956" y2="477.19874245846927" stroke="#000000" stroke-width="0.8" opacity="0.35" />
<line x1="629.9634363162913" y1="420.0797927330859" x2="646.2689537611177" y2="458.19799551424495" stroke="#000000" stroke-width="0.8" opacity="0.35" />
<line x1="637.8538777131398" y1="420.37172993520653" x2="646.1193987109873" y2="438.94154223369327" stroke="#000000" stroke-width="0.8" opacity="0.35" />
<text x="514" y="446.2" text-anchor="middle" dominant-baseline="central" font-family="'Virgil', 'Segoe Print', 'Comic Sans MS', 'Patrick Hand', cursive" font-size="14" fill="#000000"><tspan x="514" dy="0">Prompt Template</tspan><tspan x="514" dy="19.599999999999998">(role + schema + guidelines)</tspan></text></g>
<g><path d="M 440.1213003166631,560.4186596408363
    L 587.7015290607997,559.5752577879321
    Q 594.486315539335,559.2511288332244 593.9160138857242,565.7974454361756
    L 593.8411366975015,603.8169392698901
    Q 594.2233453562512,610.1063134901851 588.1355017983115,609.8081088056315
    L 439.52675390073546,609.955268919919
    Q 433.5100312800687,610.5023181330871 433.97966678518424,603.978267414881
    L 434.21305451437,565.739273120379
    Q 433.78639138193466,559.2928900592888 440.1723397549713,559.271640184088
    Z" fill="#a5d8ff" stroke="#000000" stroke-width="1.5" />
<line x1="433.56805741609423" y1="602.6623455620527" x2="436.81198658857153" y2="609.6385588137109" stroke="#000000" stroke-width="0.8" opacity="0.35" />
<line x1="433.9323719740969" y1="583.5568096578926" x2="445.4591327955682" y2="609.7679675719264" stroke="#000000" stroke-width="0.8" opacity="0.35" />
<line x1="433.97849793898786" y1="565.0844032794221" x2="452.8648749350637" y2="609.6749455730824" stroke="#000000" stroke-width="0.8" opacity="0.35" />
<line x1="439.59230069667683" y1="559.6104286771078" x2="460.7929445830419" y2="609.5527466316926" stroke="#000000" stroke-width="0.8" opacity="0.35" />
<line x1="447.88839357328834" y1="560.0018133065332" x2="469.5707402074009" y2="610.2350886396307" stroke="#000000" stroke-width="0.8" opacity="0.35" />
<line x1="455.8596986140219" y1="560.3517235165709" x2="476.9830264315429" y2="610.131456089619" stroke="#000000" stroke-width="0.8" opacity="0.35" />
<line x1="464.1014479765872" y1="559.5520969552672" x2="485.0173515170432" y2="609.6777172604343" stroke="#000000" stroke-width="0.8" opacity="0.35" />
<line x1="472.26823698037333" y1="559.5672783694608" x2="493.2876916079045" y2="610.0369914371186" stroke="#000000" stroke-width="0.8" opacity="0.35" />
<line x1="480.3711727434056" y1="560.4818583917331" x2="501.5273810089025" y2="610.0888529544609" stroke="#000000" stroke-width="0.8" opacity="0.35" />
<line x1="488.17117123902426" y1="559.8742781410947" x2="509.6273394615387" y2="609.6130255690368" stroke="#000000" stroke-width="0.8" opacity="0.35" />
<line x1="495.76238102298885" y1="559.8348254661396" x2="516.8645304109782" y2="609.9849889106918" stroke="#000000" stroke-width="0.8" opacity="0.35" />
<line x1="503.72204590232286" y1="560.0906141786036" x2="525.5488406764239" y2="609.5613722401249" stroke="#000000" stroke-width="0.8" opacity="0.35" />
<line x1="511.70786750311527" y1="560.384071098626" x2="532.7857655707089" y2="610.3145072908519" stroke="#000000" stroke-width="0.8" opacity="0.35" />
<line x1="520.2211944431983" y1="559.8387829081694" x2="540.6610712107981" y2="610.434482290184" stroke="#000000" stroke-width="0.8" opacity="0.35" />
<line x1="527.5423779426346" y1="560.2372875331221" x2="548.7260322470943" y2="610.1170730019439" stroke="#000000" stroke-width="0.8" opacity="0.35" />
<line x1="535.7182050019946" y1="559.5402375562408" x2="557.6323298021421" y2="609.7071698074942" stroke="#000000" stroke-width="0.8" opacity="0.35" />
<line x1="544.2846821471612" y1="559.6363570831163" x2="565.4910814255459" y2="610.4121411597735" stroke="#000000" stroke-width="0.8" opacity="0.35" />
<line x1="552.3088478739883" y1="559.612839611269" x2="572.8467417108373" y2="609.6359486634101" stroke="#000000" stroke-width="0.8" opacity="0.35" />
<line x1="560.0077954371227" y1="560.2508179123215" x2="581.2147601964139" y2="610.3876306222373" stroke="#000000" stroke-width="0.8" opacity="0.35" />
<line x1="568.2092899080744" y1="559.6073269282788" x2="588.7200249363345" y2="610.3216894370598" stroke="#000000" stroke-width="0.8" opacity="0.35" />
<line x1="576.1502572823956" y1="560.4334043775307" x2="594.3646213091997" y2="602.3911231381334" stroke="#000000" stroke-width="0.8" opacity="0.35" />
<line x1="584.2689537611177" y1="560.3544367936192" x2="594.1225234833182" y2="583.8385664199732" stroke="#000000" stroke-width="0.8" opacity="0.35" />
<line x1="592.1193987109873" y1="560.0197628733804" x2="593.8080629827555" y2="564.9090704694854" stroke="#000000" stroke-width="0.8" opacity="0.35" />
<text x="514" y="585" text-anchor="middle" dominant-baseline="central" font-family="'Virgil', 'Segoe Print', 'Comic Sans MS', 'Patrick Hand', cursive" font-size="14" fill="#000000"><tspan x="514" dy="0">Complete Prompt</tspan></text></g>
</g>
</svg>