<svg xmlns="http://www.w3.org/2000/svg" viewBox="0 0 1144 1250" width="1144" height="1250">
<rect width="1144" height="1250" fill="#ffffff" />
<defs><marker id="arrowhead" markerWidth="10" markerHeight="7" refX="10" refY="3.5" orient="auto"><polygon points="0 0, 10 3.5, 0 7" fill="#000000" /></marker></defs>
<g transform="translate(40, 40)">
<path d="M 160,49.7787610619469 Q 307.63494306532084,94.03341093493509 452,140.2212389380531" fill="none" stroke="#000000" stroke-width="1.5" marker-end="url(#arrowhead)" />

<path d="M 341.42857142857144,50 Q 417.7298795969691,93.3833927099331 490.57142857142856,140" fill="none" stroke="#000000" stroke-width="1.5" marker-end="url(#arrowhead)" />

<path d="M 522.1428571428571,50 Q 525.6131983154628,94.580681774416 529.8571428571429,140" fill="none" stroke="#000000" stroke-width="1.5" marker-end="url(#arrowhead)" />

<path d="M 712.7142857142857,50 Q 642.2439037810545,95.0387595211796 571.2857142857143,140" fill="none" stroke="#000000" stroke-width="1.5" marker-end="url(#arrowhead)" />

<path d="M 513.7880794701987,190 Q 479.59645345821514,233.6585138674418 448.2251655629139,280" fill="none" stroke="#000000" stroke-width="1.5" marker-end="url(#arrowhead)" />

<path d="M 422,352 Q 423.7623336838442,386.73403682242497 422,420" fill="none" stroke="#000000" stroke-width="1.5" marker-end="url(#arrowhead)" />

<path d="M 950.547619047619,50 Q 701.4187653527188,236.5655356465577 455.45238095238096,420" fill="none" stroke="#000000" stroke-width="1.5" marker-end="url(#arrowhead)" />

<path d="M 464.6356589147287,420 Q 521.9523116141319,387.719848209912 580.6046511627907,352" fill="none" stroke="#000000" stroke-width="1.5" marker-end="url(#arrowhead)" />

<path d="M 642,352 Q 642.2589242035756,385.31077991653 642,420" fill="none" stroke="#000000" stroke-width="1.5" marker-end="url(#arrowhead)" />

<path d="M 622.3571428571429,470 Q 588.2116725384403,515.1338019854738 551.6428571428571,560" fill="none" stroke="#000000" stroke-width="1.5" marker-end="url(#arrowhead)" />

<path d="M 532,610 Q 530.9133630703727,655.9624397240696 532,700" fill="none" stroke="#000000" stroke-width="1.5" marker-end="url(#arrowhead)" />

<path d="M 532,750 Q 532.4506521756994,796.852810316952 532,840" fill="none" stroke="#000000" stroke-width="1.5" marker-end="url(#arrowhead)" />

<path d="M 532,890 Q 533.1383680801955,936.3602498051805 532,980" fill="none" stroke="#000000" stroke-width="1.5" marker-end="url(#arrowhead)" />

<path d="M 532,1030 Q 533.0764641552814,1073.0344449930126 532,1120" fill="none" stroke="#000000" stroke-width="1.5" marker-end="url(#arrowhead)" />

<g><path d="M 5.637529100600659,0.48844872434165154
    L 153.29685479241016,-0.35328212005151727
    Q 160.08286935047363,-0.5062207110786403 159.64277978523023,5.852065683739056
    L 160.25958511977478,44.100992501731525
    Q 160.39369510439064,49.95405629251127 154.64870484886342,49.393772266224914
    L 6.338260902859474,50.70243182718332
    Q 0.7166158927675497,50.701192280859686 -0.1025850979531242,44.09640665274492
    L 0.21547114674467593,5.849634980080737
    Q 0.5978663334753946,0.36265536757673544 6.0979822422377765,-0.1450506317014515
    Z" fill="#a5d8ff" stroke="#000000" stroke-width="1.5" />
<line x1="0.14043441835929116" y1="43.00150678912438" x2="2.8195350987375924" y2="49.59060459167813" stroke="#000000" stroke-width="0.8" opacity="0.35" />
<line x1="0.009689880294899922" y1="23.639254602435287" x2="10.854752674535607" y2="49.51699960447149" stroke="#000000" stroke-width="0.8" opacity="0.35" />
<line x1="-0.20870731653849384" y1="5.206823839172088" x2="19.065706981299204" y2="49.924538516424946" stroke="#000000" stroke-width="0.8" opacity="0.35" />
<line x1="6.108072906579764" y1="0.11979216465442732" x2="27.25523246236529" y2="50.15519412815047" stroke="#000000" stroke-width="0.8" opacity="0.35" />
<line x1="13.52470914085643" y1="0.4405834209610475" x2="35.32317014251433" y2="50.10628380851631" stroke="#000000" stroke-width="0.8" opacity="0.35" />
<line x1="21.680431096234315" y1="0.12357718802377349" x2="43.049022706648" y2="49.86977110217413" stroke="#000000" stroke-width="0.8" opacity="0.35" />
<line x1="30.25398248348938" y1="-0.34433111074758926" x2="50.96835202717605" y2="50.429067521916295" stroke="#000000" stroke-width="0.8" opacity="0.35" />
<line x1="37.775552198778314" y1="-0.007281618105480447" x2="59.30738793351023" y2="49.83303914384305" stroke="#000000" stroke-width="0.8" opacity="0.35" />
<line x1="45.597200778160186" y1="0.46705133598152315" x2="67.04127156454754" y2="49.94538181704047" stroke="#000000" stroke-width="0.8" opacity="0.35" />
<line x1="54.0647310508939" y1="-0.17230502086749766" x2="74.64225330196908" y2="49.64141381115678" stroke="#000000" stroke-width="0.8" opacity="0.35" />
<line x1="62.087227868042646" y1="-0.38936935692618135" x2="83.18393947968119" y2="50.426805221126415" stroke="#000000" stroke-width="0.8" opacity="0.35" />
<line x1="70.08656188123132" y1="0.006175018570502289" x2="91.3308092251423" y2="50.08091584590875" stroke="#000000" stroke-width="0.8" opacity="0.35" />
<line x1="78.04677111742785" y1="0.1286354554067657" x2="98.86800170450127" y2="50.24060993101739" stroke="#000000" stroke-width="0.8" opacity="0.35" />
<line x1="85.67764041924238" y1="-0.008649986044474645" x2="107.17002813577395" y2="49.70347065087117" stroke="#000000" stroke-width="0.8" opacity="0.35" />
<line x1="94.46320257923799" y1="0.30403007008862915" x2="114.73137141858436" y2="49.970205689543945" stroke="#000000" stroke-width="0.8" opacity="0.35" />
<line x1="101.89223537468206" y1="-0.334359974549443" x2="122.83104591751228" y2="50.347892614183365" stroke="#000000" stroke-width="0.8" opacity="0.35" />
<line x1="110.41686189788015" y1="0.3236839089222485" x2="131.47557500919223" y2="50.23738144179515" stroke="#000000" stroke-width="0.8" opacity="0.35" />
<line x1="117.8461769039859" y1="0.26911603882035706" x2="138.64827218516123" y2="50.443306237888464" stroke="#000000" stroke-width="0.8" opacity="0.35" />
<line x1="126.0478598409245" y1="0.1563566887343768" x2="146.89484692095405" y2="49.808835936786636" stroke="#000000" stroke-width="0.8" opacity="0.35" />
<line x1="134.34358596142192" y1="-0.01819902974239085" x2="155.27800665567023" y2="49.55452718293418" stroke="#000000" stroke-width="0.8" opacity="0.35" />
<line x1="141.63445028110982" y1="0.017114535272412468" x2="160.47988275622265" y2="42.3277866236375" stroke="#000000" stroke-width="0.8" opacity="0.35" />
<line x1="150.11989018131862" y1="-0.06272764266032027" x2="159.8036419059572" y2="23.267121350828283" stroke="#000000" stroke-width="0.8" opacity="0.35" />
<line x1="158.4633683114007" y1="-0.22381090345879784" x2="160.37511364022794" y2="4.511741463352323" stroke="#000000" stroke-width="0.8" opacity="0.35" />
<text x="80" y="25" text-anchor="middle" dominant-baseline="central" font-family="'Virgil', 'Segoe Print', 'Comic Sans MS', 'Patrick Hand', cursive" font-size="14" fill="#000000"><tspan x="80" dy="0">API Calls</tspan></text></g>
<g><path d="M 226.4370839339026,-0.7377621408077175
    L 374.2641190596514,0.09709657634084579
    Q 379.74154246869875,-0.7461114524085133 379.46212071673517,5.979527663370391
    L 380.4067191956801,43.401587978194584
    Q 380.02919478740296,50.13084180206397 373.4159459646107,50.06641781415965
    L 226.64020783168962,50.215736663543794
    Q 220.45437720191512,50.05017574455269 219.98754638201717,44.12984282184698
    L 220.00926252785575,6.2867224323513256
    Q 220.12137376886312,-0.5726575525459339 225.79150000081427,-0.7021538526714721
    Z" fill="#a5d8ff" stroke="#000000" stroke-width="1.5" />
<line x1="219.84392782090436" y1="42.15697956767223" x2="222.90468599437057" y2="50.14759255269746" stroke="#000000" stroke-width="0.8" opacity="0.35" />
<line x1="219.5090149618045" y1="23.36424896414149" x2="231.20926353051848" y2="50.11266304392484" stroke="#000000" stroke-width="0.8" opacity="0.35" />
<line x1="219.9884812805758" y1="4.468069243524028" x2="239.55073163722093" y2="50.40984869562817" stroke="#000000" stroke-width="0.8" opacity="0.35" />
<line x1="226.28459202004888" y1="0.34006245129512536" x2="247.06520555456203" y2="50.25242691680978" stroke="#000000" stroke-width="0.8" opacity="0.35" />
<line x1="234.42828806984107" y1="0.2968920188359334" x2="254.90625704339303" y2="50.07682038446001" stroke="#000000" stroke-width="0.8" opacity="0.35" />
<line x1="242.42475023194038" y1="-0.17682651300128782" x2="262.7923816110529" y2="50.168870785484614" stroke="#000000" stroke-width="0.8" opacity="0.35" />
<line x1="249.66841133303387" y1="-0.24133419350982876" x2="271.3225384694702" y2="50.41811435298587" stroke="#000000" stroke-width="0.8" opacity="0.35" />
<line x1="257.65756755308394" y1="-0.10736422139962087" x2="279.0178866755346" y2="50.25988765528746" stroke="#000000" stroke-width="0.8" opacity="0.35" />
<line x1="266.04784100952384" y1="0.24716781098595675" x2="286.6981657823822" y2="49.54146841977854" stroke="#000000" stroke-width="0.8" opacity="0.35" />
<line x1="274.04070684968246" y1="-0.49695514207633096" x2="294.9256180831913" y2="50.21009614917102" stroke="#000000" stroke-width="0.8" opacity="0.35" />
<line x1="281.7146434490701" y1="0.2059982652499457" x2="303.14491324036186" y2="50.24794031733836" stroke="#000000" stroke-width="0.8" opacity="0.35" />
<line x1="289.6254794982451" y1="-0.21738610474130837" x2="311.5313229939939" y2="49.78476723753556" stroke="#000000" stroke-width="0.8" opacity="0.35" />
<line x1="298.3072896222002" y1="0.08621960622622282" x2="318.99210762767376" y2="49.932054930010054" stroke="#000000" stroke-width="0.8" opacity="0.35" />
<line x1="306.0654949046875" y1="0.47853935597186137" x2="327.39768231036993" y2="50.202740138334775" stroke="#000000" stroke-width="0.8" opacity="0.35" />
<line x1="314.11465871013206" y1="-0.3581632778259518" x2="335.3503322135189" y2="50.28047975944355" stroke="#000000" stroke-width="0.8" opacity="0.35" />
<line x1="322.2611015922175" y1="0.3877817256288836" x2="343.62770185949245" y2="49.55528958131981" stroke="#000000" stroke-width="0.8" opacity="0.35" />
<line x1="330.20570325713925" y1="0.18009982910734834" x2="351.38419009061596" y2="49.856994106383354" stroke="#000000" stroke-width="0.8" opacity="0.35" />
<line x1="338.29924629481684" y1="-0.35657140883631655" x2="359.29087776715875" y2="49.833909557441075" stroke="#000000" stroke-width="0.8" opacity="0.35" />
<line x1="345.9243166467422" y1="0.4841669303675644" x2="367.53727936769116" y2="49.55484050264204" stroke="#000000" stroke-width="0.8" opacity="0.35" />
<line x1="354.33480322668765" y1="-0.09235332694515819" x2="374.75577897223826" y2="49.73712378733626" stroke="#000000" stroke-width="0.8" opacity="0.35" />
<line x1="361.6153544529442" y1="-0.022844577324576676" x2="379.7923236009956" y2="42.86711640073445" stroke="#000000" stroke-width="0.8" opacity="0.35" />
<line x1="370.20300883644813" y1="0.3928862454195041" x2="380.29340076661356" y2="23.88378493041718" stroke="#000000" stroke-width="0.8" opacity="0.35" />
<line x1="378.0425953067315" y1="-0.13699351190007292" x2="379.56075984477866" y2="5.149130805776602" stroke="#000000" stroke-width="0.8" opacity="0.35" />
<text x="300" y="25" text-anchor="middle" dominant-baseline="central" font-family="'Virgil', 'Segoe Print', 'Comic Sans MS', 'Patrick Hand', cursive" font-size="14" fill="#000000"><tspan x="300" dy="0">Runtime Config</tspan></text></g>
<g><path d="M 445.9059085360095,-0.294537141064211
    L 593.4223457256558,0.061060274523697444
    Q 599.2545672868855,-0.3210642805752286 600.3151442237565,6.69505246710105
    L 599.6642836448118,44.562670460341906
    Q 599.6719449349112,49.57196517360512 594.3089973978749,50.00787845518062
    L 446.37191047600754,50.54319368932556
    Q 440.62866937176113,50.56657292284217 439.4263311874256,43.43821924736767
    L 439.67392084288804,6.587493085628694
    Q 439.67715085630334,0.5292191211465251 446.01042263916133,-0.32157761689813924
    Z" fill="#a5d8ff" stroke="#000000" stroke-width="1.5" />
<line x1="439.85891947138316" y1="42.919370629274276" x2="443.20244360828343" y2="49.7986720393892" stroke="#000000" stroke-width="0.8" opacity="0.35" />
<line x1="440.0373508621924" y1="23.872852571111153" x2="451.28031145415576" y2="49.88177476723649" stroke="#000000" stroke-width="0.8" opacity="0.35" />
<line x1="440.23602638289594" y1="4.718012373948094" x2="459.3010664670151" y2="49.639521307901305" stroke="#000000" stroke-width="0.8" opacity="0.35" />
<line x1="446.2298675168422" y1="0.23157306803750544" x2="467.3872668591617" y2="50.4610495443776" stroke="#000000" stroke-width="0.8" opacity="0.35" />
<line x1="454.1626340640614" y1="-0.44200191008349066" x2="475.27128877357296" y2="50.30755836174012" stroke="#000000" stroke-width="0.8" opacity="0.35" />
<line x1="462.1151982060112" y1="0.2828332414574106" x2="483.2579097891981" y2="49.669048904208466" stroke="#000000" stroke-width="0.8" opacity="0.35" />
<line x1="469.9788004476213" y1="-0.40732382107671583" x2="491.03704172366594" y2="49.65853604250151" stroke="#000000" stroke-width="0.8" opacity="0.35" />
<line x1="477.5495774712035" y1="0.21531325839896454" x2="498.808851849743" y2="50.44830595860549" stroke="#000000" stroke-width="0.8" opacity="0.35" />
<line x1="486.21503525784647" y1="0.04214918381865118" x2="506.9018232772692" y2="49.64476573990396" stroke="#000000" stroke-width="0.8" opacity="0.35" />
<line x1="494.4709461091297" y1="-0.1551155617526092" x2="514.8685511745684" y2="50.37496012319937" stroke="#000000" stroke-width="0.8" opacity="0.35" />
<line x1="501.9558037802875" y1="0.4144381921942113" x2="523.4905787811153" y2="49.58251287796884" stroke="#000000" stroke-width="0.8" opacity="0.35" />
<line x1="509.7228357958629" y1="-0.4818438945367234" x2="530.7665094591506" y2="49.51829137267487" stroke="#000000" stroke-width="0.8" opacity="0.35" />
<line x1="517.8368086115224" y1="-0.25547216087579727" x2="538.8091769394418" y2="49.683930181236065" stroke="#000000" stroke-width="0.8" opacity="0.35" />
<line x1="525.8355708069503" y1="0.29725932423571066" x2="547.5056070333126" y2="50.4468627359056" stroke="#000000" stroke-width="0.8" opacity="0.35" />
<line x1="534.0030895549098" y1="0.10774334673260455" x2="555.2234135070871" y2="50.49837052793123" stroke="#000000" stroke-width="0.8" opacity="0.35" />
<line x1="541.9346662267296" y1="0.278010795263981" x2="563.6328522253248" y2="49.786557967083354" stroke="#000000" stroke-width="0.8" opacity="0.35" />
<line x1="550.0183129864017" y1="-0.4918412828774308" x2="571.0227556004793" y2="49.98716580463224" stroke="#000000" stroke-width="0.8" opacity="0.35" />
<line x1="557.577435632069" y1="-0.1679299299576087" x2="579.043656574519" y2="49.86915015492559" stroke="#000000" stroke-width="0.8" opacity="0.35" />
<line x1="565.5628739702297" y1="0.4428779395593665" x2="586.6899931727935" y2="50.11694152703785" stroke="#000000" stroke-width="0.8" opacity="0.35" />
<line x1="573.5131215639485" y1="-0.3843254739076656" x2="594.7955655860246" y2="50.12389545281303" stroke="#000000" stroke-width="0.8" opacity="0.35" />
<line x1="581.605577607711" y1="0.36474487397936173" x2="600.3065008917474" y2="42.13133161765557" stroke="#000000" stroke-width="0.8" opacity="0.35" />
<line x1="589.5855958691282" y1="0.12061271946004126" x2="600.2196344646836" y2="23.196996128258398" stroke="#000000" stroke-width="0.8" opacity="0.35" />
<line x1="598.2976244330785" y1="-0.29469828207220417" x2="600.0860690561894" y2="4.304119726230958" stroke="#000000" stroke-width="0.8" opacity="0.35" />
<text x="520" y="25" text-anchor="middle" dominant-baseline="central" font-family="'Virgil', 'Segoe Print', 'Comic Sans MS', 'Patrick Hand', cursive" font-size="14" fill="#000000"><tspan x="520" dy="0">Trade History</tspan></text></g>
<g><path d="M 666.5893293681293,0.44010114992029514
    L 838.3473410950392,0.7064191636945907
    Q 843.7673266573711,-0.4066646435094299 844.562440184799,6.0638929600972915
    L 843.7945097321499,43.34113976716799
    Q 844.6280289485476,49.93370567043131 838.6216572882913,50.52637676631093
    L 665.3737693169533,50.247984617206384
    Q 659.5669078135993,50.59742229868425 659.8345987017001,43.58425369379438
    L 659.2772341581949,5.44027278336381
    Q 659.2774370590123,0.6188971359206334 665.2884940906406,-0.7023126207277528
    Z" fill="#a5d8ff" stroke="#000000" stroke-width="1.5" />
<line x1="660.3308194817248" y1="42.10944519908201" x2="662.7761204860367" y2="49.69411048454276" stroke="#000000" stroke-width="0.8" opacity="0.35" />
<line x1="660.3809684624794" y1="23.561048899958188" x2="671.231660031108" y2="50.45802863858262" stroke="#000000" stroke-width="0.8" opacity="0.35" />
<line x1="659.9936450134483" y1="4.746536891320822" x2="678.9769120322167" y2="50.18583960508113" stroke="#000000" stroke-width="0.8" opacity="0.35" />
<line x1="666.283245047729" y1="-0.3941434105456665" x2="686.8676983039081" y2="50.47145423025722" stroke="#000000" stroke-width="0.8" opacity="0.35" />
<line x1="674.0875849789772" y1="-0.2493407912697876" x2="695.5804332596567" y2="49.59544683375361" stroke="#000000" stroke-width="0.8" opacity="0.35" />
<line x1="681.9615515920959" y1="-0.42290884994872613" x2="702.9068700381217" y2="50.020258890479454" stroke="#000000" stroke-width="0.8" opacity="0.35" />
<line x1="690.4740342246587" y1="0.2623667512307293" x2="711.3339570260214" y2="50.039204626111314" stroke="#000000" stroke-width="0.8" opacity="0.35" />
<line x1="697.6553990281827" y1="0.34495053177670343" x2="718.8477197980505" y2="49.68154645450704" stroke="#000000" stroke-width="0.8" opacity="0.35" />
<line x1="705.7260337059342" y1="-0.38574470045750786" x2="727.0411476772101" y2="49.53485781108975" stroke="#000000" stroke-width="0.8" opacity="0.35" />
<line x1="714.1286473989203" y1="-0.13425542172262794" x2="734.9189057268418" y2="49.8897252980978" stroke="#000000" stroke-width="0.8" opacity="0.35" />
<line x1="722.0606923286659" y1="-0.4298322273316444" x2="743.1006452928018" y2="49.56155105884682" stroke="#000000" stroke-width="0.8" opacity="0.35" />
<line x1="730.1888009988543" y1="0.03502854733960703" x2="751.2926236459557" y2="50.43163691269001" stroke="#000000" stroke-width="0.8" opacity="0.35" />
<line x1="737.5770542613682" y1="0.061733988874038914" x2="759.0126752692927" y2="50.49915590436285" stroke="#000000" stroke-width="0.8" opacity="0.35" />
<line x1="745.8944134825579" y1="0.18468450828822824" x2="767.6189519789882" y2="50.28437676489557" stroke="#000000" stroke-width="0.8" opacity="0.35" />
<line x1="754.335239250955" y1="0.18108098443917697" x2="775.0757233408699" y2="50.35856402787795" stroke="#000000" stroke-width="0.8" opacity="0.35" />
<line x1="762.178919946602" y1="-0.06312080816132948" x2="783.1647311634192" y2="49.63470929828691" stroke="#000000" stroke-width="0.8" opacity="0.35" />
<line x1="770.2052971701669" y1="-0.14419156197982375" x2="790.6574804027473" y2="50.04615746917261" stroke="#000000" stroke-width="0.8" opacity="0.35" />
<line x1="778.3534528627351" y1="0.34727165155345574" x2="799.1453700192401" y2="50.27959656379244" stroke="#000000" stroke-width="0.8" opacity="0.35" />
<line x1="786.1414821934814" y1="-0.23120844245204353" x2="807.2072736841187" y2="49.8928242441325" stroke="#000000" stroke-width="0.8" opacity="0.35" />
<line x1="793.5385828852959" y1="0.032576819303358207" x2="815.392020342359" y2="50.45470967086385" stroke="#000000" stroke-width="0.8" opacity="0.35" />
<line x1="801.8629019492928" y1="0.054153557859535795" x2="822.9384756195909" y2="49.581871233524" stroke="#000000" stroke-width="0.8" opacity="0.35" />
<line x1="810.1783018670212" y1="0.4015572088683257" x2="830.9739507560066" y2="50.24846996330598" stroke="#000000" stroke-width="0.8" opacity="0.35" />
<line x1="817.6244886128043" y1="0.3498915383024723" x2="838.8944796620203" y2="49.71173458739213" stroke="#000000" stroke-width="0.8" opacity="0.35" />
<line x1="825.7723586750581" y1="-0.1768002296985287" x2="844.3175105103874" y2="42.074226178886356" stroke="#000000" stroke-width="0.8" opacity="0.35" />
<line x1="833.6028354556038" y1="-0.2194464195454202" x2="844.0212104326056" y2="23.28849462597733" stroke="#000000" stroke-width="0.8" opacity="0.35" />
<line x1="841.6537516284516" y1="0.25426126537058735" x2="844.1547869952556" y2="4.499695291243363" stroke="#000000" stroke-width="0.8" opacity="0.35" />
<text x="752" y="25" text-anchor="middle" dominant-baseline="central" font-family="'Virgil', 'Segoe Print', 'Comic Sans MS', 'Patrick Hand', cursive" font-size="14" fill="#000000"><tspan x="752" dy="0">Competition Memory</tspan></text></g>
<g><path d="M 910.1809190791901,0.32945169702543353
    L 1057.317157891801,0.1929710983804398
    Q 1063.798616867416,-0.3311328150994086 1063.8345879471467,6.446436649617681
    L 1063.5579525768917,44.12910358428417
    Q 1063.360512329229,50.091038492998905 1057.3552516590025,49.941476533840614
    L 909.3423265882702,49.732003219884064
    Q 903.8891300059504,49.77952840053331 903.8121956032028,44.283201498281414
    L 904.0525428210094,6.229444063571464
    Q 904.647455369035,-0.3224112780571886 909.4982125815677,-0.2131246161115996
    Z" fill="#a5d8ff" stroke="#000000" stroke-width="1.5" />
<line x1="903.5206414457771" y1="42.69371051220053" x2="906.7222053631745" y2="50.19834341465685" stroke="#000000" stroke-width="0.8" opacity="0.35" />
<line x1="904.1178330467228" y1="23.612950311667156" x2="915.3275681370465" y2="49.62472918270214" stroke="#000000" stroke-width="0.8" opacity="0.35" />
<line x1="903.5694659121509" y1="4.291307546062846" x2="923.0419447255922" y2="50.41459560736985" stroke="#000000" stroke-width="0.8" opacity="0.35" />
<line x1="909.9879134838557" y1="0.19662404666723887" x2="930.9971518478892" y2="49.9092010122622" stroke="#000000" stroke-width="0.8" opacity="0.35" />
<line x1="917.6340926290213" y1="-0.4196547306892171" x2="939.1944896940736" y2="49.67473544561017" stroke="#000000" stroke-width="0.8" opacity="0.35" />
<line x1="926.2287238389999" y1="-0.057609966614109" x2="947.2841524624641" y2="50.03919987202971" stroke="#000000" stroke-width="0.8" opacity="0.35" />
<line x1="934.2822620157531" y1="-0.3186198421390145" x2="955.4753888802466" y2="49.615229066206666" stroke="#000000" stroke-width="0.8" opacity="0.35" />
<line x1="942.0104050597874" y1="-0.43652304443821777" x2="963.1532673232437" y2="50.05676789167774" stroke="#000000" stroke-width="0.8" opacity="0.35" />
<line x1="950.3917573690414" y1="-0.29156746835269587" x2="971.3320980974863" y2="50.37671539775329" stroke="#000000" stroke-width="0.8" opacity="0.35" />
<line x1="957.9077679921102" y1="-0.2914316879105172" x2="978.7034450924007" y2="49.50592984427476" stroke="#000000" stroke-width="0.8" opacity="0.35" />
<line x1="966.2739078070426" y1="0.18731286926049506" x2="986.9878190114582" y2="50.43424198725552" stroke="#000000" stroke-width="0.8" opacity="0.35" />
<line x1="973.7215391652207" y1="-0.016524210121133365" x2="995.3454038983514" y2="49.859645671909675" stroke="#000000" stroke-width="0.8" opacity="0.35" />
<line x1="982.2826247948979" y1="-0.15520992221718188" x2="1003.1964196145605" y2="50.21314610214904" stroke="#000000" stroke-width="0.8" opacity="0.35" />
<line x1="990.3138792949394" y1="-0.07879862445952313" x2="1010.6707844987145" y2="50.40053849144897" stroke="#000000" stroke-width="0.8" opacity="0.35" />
<line x1="998.4871369490429" y1="0.4221646404257626" x2="1018.7933762069556" y2="49.654085128418956" stroke="#000000" stroke-width="0.8" opacity="0.35" />
<line x1="1006.19395241038" y1="0.16466409539134474" x2="1026.7228089576206" y2="49.7612115090451" stroke="#000000" stroke-width="0.8" opacity="0.35" />
<line x1="1014.0550943051894" y1="-0.3837679178759572" x2="1035.4735512052653" y2="49.65719095395616" stroke="#000000" stroke-width="0.8" opacity="0.35" />
<line x1="1022.0923851551634" y1="-0.49775992519425927" x2="1042.7852391562305" y2="49.64506984225591" stroke="#000000" stroke-width="0.8" opacity="0.35" />
<line x1="1029.9868737640354" y1="0.3019037306221435" x2="1050.7303819477497" y2="50.06938391645963" stroke="#000000" stroke-width="0.8" opacity="0.35" />
<line x1="1038.2878735662089" y1="0.11552285349898739" x2="1058.6847349656277" y2="49.58823478211525" stroke="#000000" stroke-width="0.8" opacity="0.35" />
<line x1="1045.518758180373" y1="0.1409906154658529" x2="1064.2739614672755" y2="42.99387605286659" stroke="#000000" stroke-width="0.8" opacity="0.35" />
<line x1="1053.8805083738298" y1="0.37743651433993364" x2="1064.2478668720778" y2="23.91583826213806" stroke="#000000" stroke-width="0.8" opacity="0.35" />
<line x1="1062.1893185017325" y1="-0.40203782221942674" x2="1064.3724015839107" y2="4.892946961302179" stroke="#000000" stroke-width="0.8" opacity="0.35" />
<text x="984" y="25" text-anchor="middle" dominant-baseline="central" font-family="'Virgil', 'Segoe Print', 'Comic Sans MS', 'Patrick Hand', cursive" font-size="14" fill="#000000"><tspan x="984" dy="0">Tool Catalog</tspan></text></g>
<g><path d="M 458.6023358133025,139.75143472864784
    L 606.372704944959,139.86165198816525
    Q 611.5628524681342,139.34567623323892 611.2588947664121,145.4367329192064
    L 612.5248373074537,183.6322280876684
    Q 611.5676018810882,190.41086171056395 606.2809693038907,189.77223711182523
    L 458.6513629808833,189.6585380125871
    Q 451.7347996554522,190.47626576558105 451.25033392727346,183.58230874783112
    L 451.9752136848183,146.30861444216498
    Q 451.7894685078645,139.40425318340567 457.67083037068187,140.03181564890838
    Z" fill="#a5d8ff" stroke="#000000" stroke-width="1.5" />
<line x1="451.6537516284516" y1="182.82826482607453" x2="455.2944479321637" y2="189.76925045116514" stroke="#000000" stroke-width="0.8" opacity="0.35" />
<line x1="451.7386873922587" y1="164.0495247603384" x2="462.78151889468114" y2="190.35978274065565" stroke="#000000" stroke-width="0.8" opacity="0.35" />
<line x1="452.0744683561643" y1="144.91471935066053" x2="470.88511237447943" y2="189.53268416381616" stroke="#000000" stroke-width="0.8" opacity="0.35" />
<line x1="458.0438782981" y1="139.81104862655593" x2="479.06395039456817" y2="190.21266581529926" stroke="#000000" stroke-width="0.8" opacity="0.35" />
<line x1="466.42622240619676" y1="139.80838837062038" x2="487.6269989912876" y2="190.36825473544923" stroke="#000000" stroke-width="0.8" opacity="0.35" />
<line x1="474.0854901469065" y1="139.82548129818315" x2="495.1395637657957" y2="189.5857731194701" stroke="#000000" stroke-width="0.8" opacity="0.35" />
<line x1="482.4947855114151" y1="139.61651350987813" x2="503.61219344556827" y2="189.65748620849627" stroke="#000000" stroke-width="0.8" opacity="0.35" />
<line x1="490.4314291137998" y1="139.93034190364415" x2="510.7201809366348" y2="189.5280698563729" stroke="#000000" stroke-width="0.8" opacity="0.35" />
<line x1="498.1643366651406" y1="140.20352743658987" x2="518.7664682602012" y2="190.1012155225544" stroke="#000000" stroke-width="0.8" opacity="0.35" />
<line x1="505.94213696169754" y1="139.52113338953131" x2="526.9865294923843" y2="190.1241030968904" stroke="#000000" stroke-width="0.8" opacity="0.35" />
<line x1="513.6835156988091" y1="140.0128114742838" x2="535.4161759963795" y2="190.44169194265123" stroke="#000000" stroke-width="0.8" opacity="0.35" />
<line x1="522.0337762347954" y1="139.88134645098762" x2="542.9889786418976" y2="190.37587394681032" stroke="#000000" stroke-width="0.8" opacity="0.35" />
<line x1="530.466411555899" y1="139.63217784489825" x2="550.9817969215296" y2="189.53224053390295" stroke="#000000" stroke-width="0.8" opacity="0.35" />
<line x1="538.29328174681" y1="140.4814009810907" x2="559.3463980612764" y2="190.20083234542108" stroke="#000000" stroke-width="0.8" opacity="0.35" />
<line x1="546.1202045217797" y1="140.34411379563244" x2="567.3867971536715" y2="190.38721145298405" stroke="#000000" stroke-width="0.8" opacity="0.35" />
<line x1="553.9630812749438" y1="140.01872188220295" x2="575.1031301646913" y2="189.76717883287347" stroke="#000000" stroke-width="0.8" opacity="0.35" />
<line x1="561.9230977074367" y1="140.06280263010558" x2="583.4243544776241" y2="189.70690682672284" stroke="#000000" stroke-width="0.8" opacity="0.35" />
<line x1="569.992690560277" y1="140.29698733497207" x2="591.2326856431068" y2="190.42843467836792" stroke="#000000" stroke-width="0.8" opacity="0.35" />
<line x1="577.5413546647469" y1="140.13652559564798" x2="599.6274480457037" y2="189.50934299355868" stroke="#000000" stroke-width="0.8" opacity="0.35" />
<line x1="585.9673108989009" y1="139.7215053368618" x2="606.9261972234422" y2="189.65244465225078" stroke="#000000" stroke-width="0.8" opacity="0.35" />
<line x1="594.4277825521876" y1="140.00395075697452" x2="612.0771225762437" y2="182.58490126503688" stroke="#000000" stroke-width="0.8" opacity="0.35" />
<line x1="601.7118758000342" y1="140.0808668777754" x2="612.2791064272242" y2="163.45324357425758" stroke="#000000" stroke-width="0.8" opacity="0.35" />
<line x1="609.8649636241171" y1="139.89409113166766" x2="611.8779595132601" y2="144.87934174424572" stroke="#000000" stroke-width="0.8" opacity="0.35" />
<text x="532" y="165" text-anchor="middle" dominant-baseline="central" font-family="'Virgil', 'Segoe Print', 'Comic Sans MS', 'Patrick Hand', cursive" font-size="14" fill="#000000"><tspan x="532" dy="0">Context Builder</tspan></text></g>
<g><path d="M 348.5661547715099,280.3718003081167
    L 496.3954210926204,279.9132054425463
    Q 501.281700084297,279.7703028332144 502.1861546453356,286.28397775259873
    L 501.39694326667086,346.55860237586603
    Q 502.2437531818359,351.5252735482136 496.0192172114257,352.41477258920713
    L 348.66253791397685,351.39202826462497
    Q 342.489489748511,352.19738460577355 342.65459129558803,346.05066435219305
    L 341.82201967648143,285.7739765574843
    Q 342.5638109202155,280.39203451262074 348.30601229272906,280.61441821009794
    Z" fill="#a5d8ff" stroke="#000000" stroke-width="1.5" />
<line x1="342.4096121400653" y1="336.5519452672632" x2="348.9075233050466" y2="351.63217784489825" stroke="#000000" stroke-width="0.8" opacity="0.35" />
<line x1="341.88106794263877" y1="317.67417315694536" x2="356.7343934959576" y2="352.4814009810907" stroke="#000000" stroke-width="0.8" opacity="0.35" />
<line x1="342.46560424593736" y1="298.81372340768206" x2="364.5613162709273" y2="352.34411379563244" stroke="#000000" stroke-width="0.8" opacity="0.35" />
<line x1="341.80946910395505" y1="279.62421899697074" x2="372.4041930240914" y2="352.01872188220295" stroke="#000000" stroke-width="0.8" opacity="0.35" />
<line x1="349.956520520318" y1="279.51808980026544" x2="380.3642094565843" y2="352.0628026301056" stroke="#000000" stroke-width="0.8" opacity="0.35" />
<line x1="358.37020969779405" y1="279.73814423454314" x2="388.4338023094246" y2="352.2969873349721" stroke="#000000" stroke-width="0.8" opacity="0.35" />
<line x1="366.4019437750467" y1="280.43303484240096" x2="395.98246641389454" y2="352.136525595648" stroke="#000000" stroke-width="0.8" opacity="0.35" />
<line x1="374.49375354514814" y1="279.71327520440536" x2="404.40842264804854" y2="351.7215053368618" stroke="#000000" stroke-width="0.8" opacity="0.35" />
<line x1="381.5103496706688" y1="279.9379505071338" x2="412.8688943013353" y2="352.0039507569745" stroke="#000000" stroke-width="0.8" opacity="0.35" />
<line x1="389.90993356379477" y1="280.2933547234934" x2="420.1529875491819" y2="352.0808668777754" stroke="#000000" stroke-width="0.8" opacity="0.35" />
<line x1="397.5007525554829" y1="279.94400925714945" x2="428.3060753732647" y2="351.89409113166766" stroke="#000000" stroke-width="0.8" opacity="0.35" />
<line x1="405.87207253708766" y1="279.6845026004903" x2="436.41129102909366" y2="351.67335418671246" stroke="#000000" stroke-width="0.8" opacity="0.35" />
<line x1="413.8261820802527" y1="279.8575942546231" x2="443.9697051220068" y2="352.11489316998086" stroke="#000000" stroke-width="0.8" opacity="0.35" />
<line x1="422.011384165271" y1="280.06047274768207" x2="452.0091691652419" y2="352.0883420013488" stroke="#000000" stroke-width="0.8" opacity="0.35" />
<line x1="429.8770358262991" y1="279.7024596406918" x2="460.37348372324453" y2="351.9045854575015" stroke="#000000" stroke-width="0.8" opacity="0.35" />
<line x1="437.82605859402247" y1="279.919082749675" x2="468.4196096881355" y2="352.35395843934384" stroke="#000000" stroke-width="0.8" opacity="0.35" />
<line x1="446.3659075618634" y1="280.0587036434117" x2="476.03341244582447" y2="351.61042867710785" stroke="#000000" stroke-width="0.8" opacity="0.35" />
<line x1="453.9424825479182" y1="280.41464855695085" x2="484.329505322436" y2="352.0018133065332" stroke="#000000" stroke-width="0.8" opacity="0.35" />
<line x1="461.8331460826885" y1="279.99765100720833" x2="492.30081036316955" y2="352.3517235165709" stroke="#000000" stroke-width="0.8" opacity="0.35" />
<line x1="469.7829376504742" y1="279.6461235816241" x2="500.54255972573486" y2="351.5520969552672" stroke="#000000" stroke-width="0.8" opacity="0.35" />
<line x1="478.32185295513045" y1="280.1934444123508" x2="502.26823698037333" y2="336.3326164503995" stroke="#000000" stroke-width="0.8" opacity="0.35" />
<line x1="485.99779557016154" y1="280.0441703170309" x2="502.3711727434056" y2="318.3254171123588" stroke="#000000" stroke-width="0.8" opacity="0.35" />
<line x1="494.30649650673513" y1="280.4348544723325" x2="502.17117123902426" y2="298.7960575014076" stroke="#000000" stroke-width="0.8" opacity="0.35" />
<text x="422" y="306.2" text-anchor="middle" dominant-baseline="central" font-family="'Virgil', 'Segoe Print', 'Comic Sans MS', 'Patrick Hand', cursive" font-size="14" fill="#000000"><tspan x="422" dy="0">JSON Context</tspan><tspan x="422" dy="19.599999999999998">~15 keys</tspan></text></g>
<g><path d="M 568.1213003166631,280.41865964083627
    L 715.7015290607997,279.57525778793206
    Q 722.486315539335,279.25112883322436 721.9160138857242,285.7974454361756
    L 721.8411366975015,345.8169392698901
    Q 722.2233453562512,352.10631349018513 716.1355017983115,351.8081088056315
    L 567.5267539007355,351.95526891991904
    Q 561.5100312800687,352.5023181330871 561.9796667851842,345.978267414881
    L 562.21305451437,285.73927312037904
    Q 561.7863913819347,279.29289005928877 568.1723397549713,279.271640184088
    Z" fill="#a5d8ff" stroke="#000000" stroke-width="1.5" />
<line x1="561.514426789392" y1="337.19297654326306" x2="568.7751700774611" y2="351.58456831907824" stroke="#000000" stroke-width="0.8" opacity="0.35" />
<line x1="561.6723256516634" y1="317.4821175343366" x2="576.5743233844264" y2="352.1838609448896" stroke="#000000" stroke-width="0.8" opacity="0.35" />
<line x1="562.3194718586601" y1="298.6897469322393" x2="584.7304624775284" y2="352.2787328345603" stroke="#000000" stroke-width="0.8" opacity="0.35" />
<line x1="561.7252139981556" y1="279.67494557308237" x2="592.5444443778583" y2="351.8817080165609" stroke="#000000" stroke-width="0.8" opacity="0.35" />
<line x1="569.6532836461338" y1="279.55274663169257" x2="600.807706566226" y2="352.3723159212241" stroke="#000000" stroke-width="0.8" opacity="0.35" />
<line x1="578.4310792704928" y1="280.2350886396307" x2="608.3574950411789" y2="352.31234724660317" stroke="#000000" stroke-width="0.8" opacity="0.35" />
<line x1="585.8433654946348" y1="280.13145608961895" x2="616.782455741683" y2="351.7703190844877" stroke="#000000" stroke-width="0.8" opacity="0.35" />
<line x1="593.8776905801351" y1="279.6777172604343" x2="624.6586519563502" y2="352.47107699855223" stroke="#000000" stroke-width="0.8" opacity="0.35" />
<line x1="602.1480306709964" y1="280.03699143711856" x2="632.460211287344" y2="352.37726514416136" stroke="#000000" stroke-width="0.8" opacity="0.35" />
<line x1="610.3877200719944" y1="280.0888529544609" x2="640.3904875418216" y2="352.4538635884819" stroke="#000000" stroke-width="0.8" opacity="0.35" />
<line x1="618.4876785246306" y1="279.61302556903684" x2="648.5980850331403" y2="352.22372647914017" stroke="#000000" stroke-width="0.8" opacity="0.35" />
<line x1="625.7248694740701" y1="279.98498891069175" x2="656.1106658987487" y2="351.56448267422456" stroke="#000000" stroke-width="0.8" opacity="0.35" />
<line x1="634.4091797395158" y1="279.5613722401249" x2="664.0873676877532" y2="352.3999359383306" stroke="#000000" stroke-width="0.8" opacity="0.35" />
<line x1="641.6461046338009" y1="280.3145072908519" x2="672.7103567744384" y2="351.5985437881027" stroke="#000000" stroke-width="0.8" opacity="0.35" />
<line x1="649.5214102738901" y1="280.43448229018395" x2="680.6715079769588" y2="352.4784071691829" stroke="#000000" stroke-width="0.8" opacity="0.35" />
<line x1="657.5863713101862" y1="280.11707300194394" x2="688.4896364515812" y2="352.1480710592805" stroke="#000000" stroke-width="0.8" opacity="0.35" />
<line x1="666.492668865234" y1="279.7071698074942" x2="696.44885445296" y2="352.1265497326458" stroke="#000000" stroke-width="0.8" opacity="0.35" />
<line x1="674.3514204886378" y1="280.41214115977346" x2="704.2028720574021" y2="351.576240792916" stroke="#000000" stroke-width="0.8" opacity="0.35" />
<line x1="681.7070807739292" y1="279.6359486634101" x2="712.7276531205794" y2="351.5294343386122" stroke="#000000" stroke-width="0.8" opacity="0.35" />
<line x1="690.0750992595058" y1="280.38763062223734" x2="720.1356355840185" y2="351.58662975354673" stroke="#000000" stroke-width="0.8" opacity="0.35" />
<line x1="697.5803639994265" y1="280.32168943705983" x2="721.6210055267511" y2="336.6381582750653" stroke="#000000" stroke-width="0.8" opacity="0.35" />
<line x1="706.3646213091997" y1="279.81711957742937" x2="722.1969019149183" y2="317.8794692103873" stroke="#000000" stroke-width="0.8" opacity="0.35" />
<line x1="714.1225234833182" y1="280.186342219582" x2="721.792541160663" y2="298.44343231622673" stroke="#000000" stroke-width="0.8" opacity="0.35" />
<text x="642" y="306.2" text-anchor="middle" dominant-baseline="central" font-family="'Virgil', 'Segoe Print', 'Comic Sans MS', 'Patrick Hand', cursive" font-size="14" fill="#000000"><tspan x="642" dy="0">Complete Prompt</tspan><tspan x="642" dy="19.599999999999998">2-50KB</tspan></text></g>
<g><path d="M 348.68079538272286,420.4597447601027
    L 496.6522817084988,420.2567568585364
    Q 501.81141721164204,420.7315177869459 501.41953835355525,426.23545992598883
    L 502.33558971871025,464.7228768348359
    Q 501.70665087061207,469.64357153448327 495.7522381992094,469.5873042111052
    L 347.97748336603763,469.50433122440154
    Q 341.34672401133685,469.38759435673273 341.9769226212775,463.5830688534843
    L 342.13592126790536,426.61376960927373
    Q 341.34205836018737,419.4693839079082 348.5999039074959,419.8721883988874
    Z" fill="#a5d8ff" stroke="#000000" stroke-width="1.5" />
<line x1="342.26924502529073" y1="462.17254734880663" x2="345.0625214239304" y2="470.1427959349603" stroke="#000000" stroke-width="0.8" opacity="0.35" />
<line x1="342.23039622781107" y1="444.13063136957396" x2="353.5045145084046" y2="469.93024497808074" stroke="#000000" stroke-width="0.8" opacity="0.35" />
<line x1="342.0485247024335" y1="424.8785158993587" x2="361.59084258255876" y2="469.5847986001536" stroke="#000000" stroke-width="0.8" opacity="0.35" />
<line x1="348.00774270381226" y1="420.1265497326458" x2="369.4451811611403" y2="469.53689369330095" stroke="#000000" stroke-width="0.8" opacity="0.35" />
<line x1="355.76176030825445" y1="419.576240792916" x2="377.6221987670402" y2="469.84513167217665" stroke="#000000" stroke-width="0.8" opacity="0.35" />
<line x1="364.28654137143167" y1="419.5294343386122" x2="385.4775075025214" y2="469.86833599997954" stroke="#000000" stroke-width="0.8" opacity="0.35" />
<line x1="371.6945238348708" y1="419.58662975354673" x2="392.68518872062174" y2="469.87545558594866" stroke="#000000" stroke-width="0.8" opacity="0.35" />
<line x1="379.6210055267511" y1="419.8728201941267" x2="401.3627833310334" y2="470.491646942588" stroke="#000000" stroke-width="0.8" opacity="0.35" />
<line x1="388.19690191491827" y1="420.0359104897616" x2="409.10309725319945" y2="470.0797927330859" stroke="#000000" stroke-width="0.8" opacity="0.35" />
<line x1="395.79254116066295" y1="419.52165295591385" x2="416.9935386500479" y2="470.37172993520653" stroke="#000000" stroke-width="0.8" opacity="0.35" />
<line x1="404.4840347018908" y1="420.11719370533683" x2="425.62158091403813" y2="469.7448975878888" stroke="#000000" stroke-width="0.8" opacity="0.35" />
<line x1="411.81646433761307" y1="419.9680293061974" x2="433.3960735359365" y2="470.20874758013815" stroke="#000000" stroke-width="0.8" opacity="0.35" />
<line x1="419.9406274855428" y1="420.14270144915645" x2="441.409803768966" y2="469.7266529757326" stroke="#000000" stroke-width="0.8" opacity="0.35" />
<line x1="428.02927438306506" y1="419.8925650506426" x2="448.7802465898172" y2="470.34724405132874" stroke="#000000" stroke-width="0.8" opacity="0.35" />
<line x1="436.0100817112907" y1="419.76704556984987" x2="456.94855853571477" y2="470.4990065154052" stroke="#000000" stroke-width="0.8" opacity="0.35" />
<line x1="444.25363487015784" y1="420.2734958771907" x2="464.7770890036741" y2="470.3054184012399" stroke="#000000" stroke-width="0.8" opacity="0.35" />
<line x1="452.06228360216846" y1="419.8607295612237" x2="473.0235768504613" y2="469.83306755412195" stroke="#000000" stroke-width="0.8" opacity="0.35" />
<line x1="460.1087820560351" y1="419.6589875650752" x2="481.1960486749345" y2="469.5400616370316" stroke="#000000" stroke-width="0.8" opacity="0.35" />
<line x1="468.24856037533027" y1="420.3185204918882" x2="489.5866451974185" y2="470.0295456263193" stroke="#000000" stroke-width="0.8" opacity="0.35" />
<line x1="475.72958755250147" y1="419.8509758278815" x2="497.2188611846255" y2="469.8546859853086" stroke="#000000" stroke-width="0.8" opacity="0.35" />
<line x1="483.9647264347186" y1="419.8755179912696" x2="502.13061551801366" y2="462.66414057147614" stroke="#000000" stroke-width="0.8" opacity="0.35" />
<line x1="491.8909383899704" y1="419.55124239224824" x2="501.79157653121365" y2="443.26936638925594" stroke="#000000" stroke-width="0.8" opacity="0.35" />
<line x1="500.26094135682797" y1="420.0787966394928" x2="502.03927664248704" y2="424.9608838807717" stroke="#000000" stroke-width="0.8" opacity="0.35" />
<text x="422" y="445" text-anchor="middle" dominant-baseline="central" font-family="'Virgil', 'Segoe Print', 'Comic Sans MS', 'Patrick Hand', cursive" font-size="14" fill="#000000"><tspan x="422" dy="0">Prompt Template</tspan></text></g>
<g><path d="M 568.5316551904289,420.1837852249773
    L 716.279513329373,419.6888117409944
    Q 721.2824794338708,419.7808165697097 722.5575949028098,426.17909806648095
    L 722.0296443100706,463.7120944741332
    Q 722.2679384441108,470.72605205283617 716.1757905580052,470.72287996569503
    L 567.6173463818332,469.3213554133472
    Q 562.4612239244652,470.1590542628255 561.5556621668002,463.7246965064196
    L 561.9520439592961,426.3846188985426
    Q 562.3131213702072,420.63269863564346 567.2662810270176,420.4111036015638
    Z" fill="#a5d8ff" stroke="#000000" stroke-width="1.5" />
<line x1="562.4611908324841" y1="463.0176613756875" x2="564.7410522700197" y2="469.8435513144086" stroke="#000000" stroke-width="0.8" opacity="0.35" />
<line x1="562.1450556981817" y1="444.1109150357651" x2="573.259474650597" y2="469.80444468848145" stroke="#000000" stroke-width="0.8" opacity="0.35" />
<line x1="562.2234568365602" y1="425.05837608260026" x2="581.5567948303892" y2="470.16852586652385" stroke="#000000" stroke-width="0.8" opacity="0.35" />
<line x1="567.6084614432984" y1="419.61960731406725" x2="588.8465801864481" y2="470.0951185181766" stroke="#000000" stroke-width="0.8" opacity="0.35" />
<line x1="576.4731617283687" y1="420.48277544753364" x2="597.5629612122834" y2="470.2331523405883" stroke="#000000" stroke-width="0.8" opacity="0.35" />
<line x1="584.0318251134777" y1="420.46528549560026" x2="604.6468490893426" y2="470.32324486613106" stroke="#000000" stroke-width="0.8" opacity="0.35" />
<line x1="592.375307448724" y1="420.21146974009025" x2="612.8580970140142" y2="470.15214619610197" stroke="#000000" stroke-width="0.8" opacity="0.35" />
<line x1="599.7395935887871" y1="420.2166248770736" x2="621.1345445583815" y2="469.8800891365536" stroke="#000000" stroke-width="0.8" opacity="0.35" />
<line x1="607.909990935761" y1="419.82071967008596" x2="629.1444662979416" y2="470.2298818113268" stroke="#000000" stroke-width="0.8" opacity="0.35" />
<line x1="615.7007036221621" y1="420.0649150924014" x2="636.8751772844885" y2="470.19579033280024" stroke="#000000" stroke-width="0.8" opacity="0.35" />
<line x1="624.2197681236648" y1="420.3586342076487" x2="645.5701209556105" y2="469.799513241328" stroke="#000000" stroke-width="0.8" opacity="0.35" />
<line x1="632.4156875310541" y1="419.923375239443" x2="653.4096440220169" y2="470.0814847241563" stroke="#000000" stroke-width="0.8" opacity="0.35" />
<line x1="639.8198985697782" y1="420.3206358648167" x2="661.1356069185208" y2="469.6359334147637" stroke="#000000" stroke-width="0.8" opacity="0.35" />
<line x1="648.1235401553495" y1="419.56840835784897" x2="669.2996462556807" y2="469.73163399843907" stroke="#000000" stroke-width="0.8" opacity="0.35" />
<line x1="656.4864814336106" y1="419.80447543219634" x2="677.0097738457739" y2="470.3733188921542" stroke="#000000" stroke-width="0.8" opacity="0.35" />
<line x1="664.358061605988" y1="419.95124719037995" x2="684.9042053569469" y2="469.82066249740546" stroke="#000000" stroke-width="0.8" opacity="0.35" />
<line x1="671.7173743107735" y1="419.9529503074882" x2="693.2408070108872" y2="470.4119841877473" stroke="#000000" stroke-width="0.8" opacity="0.35" />
<line x1="679.6488299453995" y1="420.2296347473093" x2="701.010201586472" y2="469.80653294100193" stroke="#000000" stroke-width="0.8" opacity="0.35" />
<line x1="687.8726778485143" y1="419.5456626871637" x2="709.5044869148119" y2="470.1786715174385" stroke="#000000" stroke-width="0.8" opacity="0.35" />
<line x1="696.2578993478237" y1="420.2524935567552" x2="717.5784233180789" y2="470.4552838628442" stroke="#000000" stroke-width="0.8" opacity="0.35" />
<line x1="703.753850770805" y1="420.0390341592356" x2="721.9482734854973" y2="462.51245020608957" stroke="#000000" stroke-width="0.8" opacity="0.35" />
<line x1="711.7282916103493" y1="419.7063213612855" x2="721.5123912647869" y2="443.58405666368975" stroke="#000000" stroke-width="0.8" opacity="0.35" />
<line x1="720.4420324435159" y1="420.48758207227365" x2="722.0660197280463" y2="424.54029335385985" stroke="#000000" stroke-width="0.8" opacity="0.35" />
<text x="642" y="445" text-anchor="middle" dominant-baseline="central" font-family="'Virgil', 'Segoe Print', 'Comic Sans MS', 'Patrick Hand', cursive" font-size="14" fill="#000000"><tspan x="642" dy="0">LLM</tspan></text></g>
<g><path d="M 457.32686358837236,559.6873647968205
    L 605.4257132832972,559.5510554332432
    Q 612.0973726386021,559.6032745213706 612.2936854992004,566.391412035242
    L 612.1181949592392,604.0589149637306
    Q 612.3456585610402,610.3296521854973 606.5379513114731,610.6456900280537
    L 457.699269861992,609.3252603908986
    Q 451.9387489951441,609.2896730085467 451.6590090457721,604.6235312965812
    L 451.88506285916446,566.4049746276633
    Q 452.1222270862345,560.4660050416787 458.47722441108886,560.5222600066663
    Z" fill="#a5d8ff" stroke="#000000" stroke-width="1.5" />
<line x1="451.962802114449" y1="602.3410643878804" x2="455.4719576476169" y2="609.6450558111064" stroke="#000000" stroke-width="0.8" opacity="0.35" />
<line x1="451.7558142050657" y1="584.0264060951439" x2="463.45836438968087" y2="610.3966071800241" stroke="#000000" stroke-width="0.8" opacity="0.35" />
<line x1="451.56552503056446" y1="564.7448812116663" x2="470.81070414601714" y2="610.1443745307915" stroke="#000000" stroke-width="0.8" opacity="0.35" />
<line x1="457.58154513084446" y1="560.4846246566885" x2="479.1951154211061" y2="610.1776331282963" stroke="#000000" stroke-width="0.8" opacity="0.35" />
<line x1="466.1579852923096" y1="559.7178799676424" x2="487.3909663568889" y2="609.8821091291356" stroke="#000000" stroke-width="0.8" opacity="0.35" />
<line x1="473.56812008628185" y1="559.7597026083531" x2="494.79814453869454" y2="609.5203982245744" stroke="#000000" stroke-width="0.8" opacity="0.35" />
<line x1="482.1062687011108" y1="559.71193046595" x2="502.91870028130194" y2="609.9751691875063" stroke="#000000" stroke-width="0.8" opacity="0.35" />
<line x1="490.22273424745435" y1="560.0327930242202" x2="511.5399407281457" y2="609.6761348107102" stroke="#000000" stroke-width="0.8" opacity="0.35" />
<line x1="497.94247530551365" y1="559.5910805901913" x2="519.381623255384" y2="609.7998676478383" stroke="#000000" stroke-width="0.8" opacity="0.35" />
<line x1="505.7218284221017" y1="559.6025410497999" x2="527.516210610735" y2="609.9332714459633" stroke="#000000" stroke-width="0.8" opacity="0.35" />
<line x1="514.0743864650904" y1="559.6339849592769" x2="534.7106294391237" y2="610.2690616927739" stroke="#000000" stroke-width="0.8" opacity="0.35" />
<line x1="522.3891791078732" y1="559.9942572154032" x2="543.5991104564278" y2="610.1257996478271" stroke="#000000" stroke-width="0.8" opacity="0.35" />
<line x1="530.4633539931965" y1="559.654765713407" x2="550.813146559011" y2="610.2672704940705" stroke="#000000" stroke-width="0.8" opacity="0.35" />
<line x1="538.1855330345934" y1="560.0020800547791" x2="559.463873305835" y2="610.1486955589862" stroke="#000000" stroke-width="0.8" opacity="0.35" />
<line x1="546.4986819789556" y1="559.5260189222411" x2="567.4043960365639" y2="609.9742890849266" stroke="#000000" stroke-width="0.8" opacity="0.35" />
<line x1="553.747464280561" y1="560.1406298347647" x2="574.7175221054026" y2="610.4450679996519" stroke="#000000" stroke-width="0.8" opacity="0.35" />
<line x1="562.0504921330121" y1="559.6978890871469" x2="582.758298679259" y2="609.591959258003" stroke="#000000" stroke-width="0.8" opacity="0.35" />
<line x1="569.5475248364637" y1="560.3547465894153" x2="591.0762780307218" y2="610.406175469885" stroke="#000000" stroke-width="0.8" opacity="0.35" />
<line x1="577.8165023350739" y1="560.4698052534986" x2="598.7091496652397" y2="609.6868064768933" stroke="#000000" stroke-width="0.8" opacity="0.35" />
<line x1="586.0317184836385" y1="560.0421609170526" x2="607.5496856742943" y2="609.7646989464301" stroke="#000000" stroke-width="0.8" opacity="0.35" />
<line x1="593.8241102394131" y1="560.0017862072236" x2="612.2340796727876" y2="602.1760160332782" stroke="#000000" stroke-width="0.8" opacity="0.35" />
<line x1="601.5367747924488" y1="560.3460351215326" x2="612.4858901344924" y2="583.7410761092715" stroke="#000000" stroke-width="0.8" opacity="0.35" />
<line x1="609.7634854017451" y1="559.5601474284631" x2="611.6366385780648" y2="564.358044361582" stroke="#000000" stroke-width="0.8" opacity="0.35" />
<text x="532" y="585" text-anchor="middle" dominant-baseline="central" font-family="'Virgil', 'Segoe Print', 'Comic Sans MS', 'Patrick Hand', cursive" font-size="14" fill="#000000"><tspan x="532" dy="0">Tool Proxy Loop</tspan></text></g>
<g><path d="M 441.5594820419283,699.2685868971803
    L 621.897748694948,699.5827426331525
    Q 627.4038115747,700.5648245107404 627.899907168945,706.6630486652739
    L 628.7313731084105,744.0990295920695
    Q 627.7147727706724,750.1115796976355 621.4509774389153,749.3564527533235
    L 442.40359253916085,749.6003036345573
    Q 436.69328032528574,749.7638705183253 436.1551612088697,744.5837686618099
    L 435.9913858231048,706.6891742792795
    Q 436.1886994717406,700.7324207222919 441.9434400186184,700.0087022591179
    Z" fill="#a5d8ff" stroke="#000000" stroke-width="1.5" />
<line x1="435.68707986157824" y1="742.9614764597161" x2="439.6061949261171" y2="749.7065191140473" stroke="#000000" stroke-width="0.8" opacity="0.35" />
<line x1="435.89465756646564" y1="723.2890171771131" x2="446.9163229310985" y2="750.3990906874969" stroke="#000000" stroke-width="0.8" opacity="0.35" />
<line x1="436.4451242303585" y1="704.3226304012524" x2="455.1680781116334" y2="750.110910396259" stroke="#000000" stroke-width="0.8" opacity="0.35" />
<line x1="442.2352316038523" y1="700.055687707958" x2="462.98582780162593" y2="749.9920069589498" stroke="#000000" stroke-width="0.8" opacity="0.35" />
<line x1="449.6973924677077" y1="700.487935366195" x2="471.22832704143053" y2="750.2271840214198" stroke="#000000" stroke-width="0.8" opacity="0.35" />
<line x1="458.40921486507796" y1="699.7328412258175" x2="478.99044233216097" y2="749.6788823185889" stroke="#000000" stroke-width="0.8" opacity="0.35" />
<line x1="465.6625351895327" y1="700.2443955240669" x2="487.27776934791524" y2="749.5429326205558" stroke="#000000" stroke-width="0.8" opacity="0.35" />
<line x1="473.9324538756591" y1="699.9944034336368" x2="495.34366048242197" y2="750.2213542504251" stroke="#000000" stroke-width="0.8" opacity="0.35" />
<line x1="481.8603390054632" y1="700.0931341324358" x2="502.79658003115816" y2="750.2835686720427" stroke="#000000" stroke-width="0.8" opacity="0.35" />
<line x1="490.45192669203243" y1="700.3826660348577" x2="511.29803357713223" y2="750.4365025020634" stroke="#000000" stroke-width="0.8" opacity="0.35" />
<line x1="498.14199464078047" y1="699.7834780884514" x2="518.8191683674127" y2="750.408336881027" stroke="#000000" stroke-width="0.8" opacity="0.35" />
<line x1="506.4793830779972" y1="700.0753861745616" x2="526.9505068432268" y2="750.0649128368786" stroke="#000000" stroke-width="0.8" opacity="0.35" />
<line x1="514.2058286468709" y1="700.0979943844795" x2="535.1804774426696" y2="749.6989105624889" stroke="#000000" stroke-width="0.8" opacity="0.35" />
<line x1="522.0454038185999" y1="700.3719878137344" x2="542.7229679695306" y2="750.3700199532541" stroke="#000000" stroke-width="0.8" opacity="0.35" />
<line x1="530.3659307027992" y1="700.1973675930476" x2="550.7797070430574" y2="749.5914994517807" stroke="#000000" stroke-width="0.8" opacity="0.35" />
<line x1="538.0762117157356" y1="700.2210725506993" x2="558.7183216556773" y2="750.444932049898" stroke="#000000" stroke-width="0.8" opacity="0.35" />
<line x1="545.7956047399575" y1="699.721703776122" x2="567.117404452893" y2="749.640262477682" stroke="#000000" stroke-width="0.8" opacity="0.35" />
<line x1="553.5932154017391" y1="700.2591146624109" x2="575.1299104989371" y2="750.1468480690528" stroke="#000000" stroke-width="0.8" opacity="0.35" />
<line x1="562.181506429115" y1="699.721403137868" x2="583.0992922984119" y2="749.5955590419399" stroke="#000000" stroke-width="0.8" opacity="0.35" />
<line x1="570.1011933630361" y1="700.4790104407357" x2="591.053154644233" y2="749.5294362654022" stroke="#000000" stroke-width="0.8" opacity="0.35" />
<line x1="578.3705239616393" y1="699.701979368263" x2="599.3616809933415" y2="750.3344188656247" stroke="#000000" stroke-width="0.8" opacity="0.35" />
<line x1="586.0660949759804" y1="699.8203781421616" x2="606.9289044416623" y2="749.9192112724631" stroke="#000000" stroke-width="0.8" opacity="0.35" />
<line x1="594.4474153754527" y1="699.7859626523204" x2="614.6482184058391" y2="750.2133717395118" stroke="#000000" stroke-width="0.8" opacity="0.35" />
<line x1="601.6148694081421" y1="700.0033956374828" x2="623.284352849209" y2="750.2563449243753" stroke="#000000" stroke-width="0.8" opacity="0.35" />
<line x1="610.3675823601443" y1="699.7691093743852" x2="628.3138237673993" y2="742.6947260704063" stroke="#000000" stroke-width="0.8" opacity="0.35" />
<line x1="618.1502983398386" y1="699.8585598474201" x2="628.3315199570643" y2="723.2689318155672" stroke="#000000" stroke-width="0.8" opacity="0.35" />
<line x1="625.7517817799344" y1="700.0528943428071" x2="628.3622133098543" y2="704.2587793500525" stroke="#000000" stroke-width="0.8" opacity="0.35" />
<text x="532" y="725" text-anchor="middle" dominant-baseline="central" font-family="'Virgil', 'Segoe Print', 'Comic Sans MS', 'Patrick Hand', cursive" font-size="14" fill="#000000"><tspan x="532" dy="0">Final Decision JSON</tspan></text></g>
<g><path d="M 458.51905268229893,840.7288352017385
    L 606.1332778633205,840.6778900380486
    Q 612.5739990522866,840.2375589603362 612.6547537530951,845.6452281026177
    L 611.3402211426946,883.4549578670972
    Q 611.4413992822556,890.2129919611707 605.6752171326771,889.5192611457569
    L 458.61250532154054,890.4423132730335
    Q 451.66447934735334,890.4092820989117 451.7446978978878,884.7190746169958
    L 452.11307926184236,845.7162688594781
    Q 452.097369255318,839.8668844439017 457.5548375077874,840.3906306815734
    Z" fill="#a5d8ff" stroke="#000000" stroke-width="1.5" />
<line x1="451.5107405335875" y1="882.486308828228" x2="455.2814554987022" y2="890.2915136089687" stroke="#000000" stroke-width="0.8" opacity="0.35" />
<line x1="452.2967646217194" y1="863.1600885315191" x2="463.39950937514783" y2="890.3047068167834" stroke="#000000" stroke-width="0.8" opacity="0.35" />
<line x1="452.4262868023543" y1="844.381417947453" x2="471.36273317786305" y2="889.5121146858583" stroke="#000000" stroke-width="0.8" opacity="0.35" />
<line x1="458.0343925619891" y1="839.7347829538121" x2="478.89552152020457" y2="889.9457639667598" stroke="#000000" stroke-width="0.8" opacity="0.35" />
<line x1="465.7751684466857" y1="840.0583307577172" x2="487.35797473577674" y2="889.7839900621984" stroke="#000000" stroke-width="0.8" opacity="0.35" />
<line x1="473.9822269259894" y1="839.5410428671166" x2="495.09048679806125" y2="890.0616646756989" stroke="#000000" stroke-width="0.8" opacity="0.35" />
<line x1="481.78291772130524" y1="839.7979377121956" x2="503.2469747975452" y2="889.9020875738242" stroke="#000000" stroke-width="0.8" opacity="0.35" />
<line x1="489.8764803165868" y1="839.9594423867602" x2="511.2892062422248" y2="889.6855358854446" stroke="#000000" stroke-width="0.8" opacity="0.35" />
<line x1="498.40362618381187" y1="840.1906363499802" x2="519.5048854749843" y2="890.3549211409991" stroke="#000000" stroke-width="0.8" opacity="0.35" />
<line x1="506.3092440137698" y1="839.6519134388991" x2="526.7807433058811" y2="889.6876842060301" stroke="#000000" stroke-width="0.8" opacity="0.35" />
<line x1="514.3807243153133" y1="839.5321879015246" x2="535.4986534661043" y2="890.4554888263574" stroke="#000000" stroke-width="0.8" opacity="0.35" />
<line x1="522.4529530911113" y1="839.8755949581755" x2="543.3017436290288" y2="889.5192268106111" stroke="#000000" stroke-width="0.8" opacity="0.35" />
<line x1="530.4787796165729" y1="839.7696563812133" x2="551.0149941534096" y2="889.8182964112857" stroke="#000000" stroke-width="0.8" opacity="0.35" />
<line x1="537.7266119298074" y1="840.0227538127874" x2="559.6111499223812" y2="890.3292956434234" stroke="#000000" stroke-width="0.8" opacity="0.35" />
<line x1="546.2475016813187" y1="840.022182773937" x2="566.9813920393103" y2="889.6927167164831" stroke="#000000" stroke-width="0.8" opacity="0.35" />
<line x1="553.8145309497777" y1="839.5066153096705" x2="575.2520749482105" y2="890.0093992781567" stroke="#000000" stroke-width="0.8" opacity="0.35" />
<line x1="561.7713917129604" y1="840.4442964873888" x2="582.663475798447" y2="889.7713851395092" stroke="#000000" stroke-width="0.8" opacity="0.35" />
<line x1="569.620698884868" y1="840.3173150474613" x2="591.0065581085641" y2="889.6247788800101" stroke="#000000" stroke-width="0.8" opacity="0.35" />
<line x1="578.2835227516116" y1="840.1445613320466" x2="599.6073136816708" y2="890.0924484972275" stroke="#000000" stroke-width="0.8" opacity="0.35" />
<line x1="586.372455169505" y1="839.6995879292845" x2="607.2292387837119" y2="889.7213223620129" stroke="#000000" stroke-width="0.8" opacity="0.35" />
<line x1="594.3569824274164" y1="840.0632623387974" x2="612.0057635939156" y2="882.825669645751" stroke="#000000" stroke-width="0.8" opacity="0.35" />
<line x1="602.2110888452153" y1="840.2509214415113" x2="612.2569365568415" y2="863.9044572226148" stroke="#000000" stroke-width="0.8" opacity="0.35" />
<line x1="609.7111681777969" y1="839.7894819731373" x2="611.5994144781507" y2="844.5930471728889" stroke="#000000" stroke-width="0.8" opacity="0.35" />
<text x="532" y="865" text-anchor="middle" dominant-baseline="central" font-family="'Virgil', 'Segoe Print', 'Comic Sans MS', 'Patrick Hand', cursive" font-size="14" fill="#000000"><tspan x="532" dy="0">Decision Parser</tspan></text></g>
<g><path d="M 457.73056721324247,979.6838652571314
    L 605.8788169086947,980.4638660206547
    Q 611.4778701583487,979.4616235534595 611.5315263090451,986.671123063179
    L 611.6789439784807,1023.2628362033965
    Q 612.3200576092677,1030.57108647297 605.2982818522869,1030.5384887937944
    L 458.6832332395361,1029.4223041122132
    Q 452.00509345622413,1030.2170378684514 452.38451738656295,1024.679429636667
    L 451.81339243726325,986.2431240381811
    Q 451.2788402159167,980.5513735402164 457.65366406157773,980.470735651099
    Z" fill="#a5d8ff" stroke="#000000" stroke-width="1.5" />
<line x1="452.1502983398386" y1="1022.432563408124" x2="455.4711808939724" y2="1029.616707615176" stroke="#000000" stroke-width="0.8" opacity="0.35" />
<line x1="451.7517817799344" y1="1003.7051185431982" x2="463.5018742467624" y2="1029.5283345099742" stroke="#000000" stroke-width="0.8" opacity="0.35" />
<line x1="452.1447141849967" y1="984.6689161562126" x2="471.1980777057602" y2="1029.590975915351" stroke="#000000" stroke-width="0.8" opacity="0.35" />
<line x1="457.6475099336458" y1="980.1139776163109" x2="478.6600926211982" y2="1029.6002017889114" stroke="#000000" stroke-width="0.8" opacity="0.35" />
<line x1="465.92333373658767" y1="979.6021852690737" x2="487.2717701783518" y2="1030.270043171171" stroke="#000000" stroke-width="0.8" opacity="0.35" />
<line x1="473.5064878682533" y1="980.3005466474315" x2="494.81718907718874" y2="1029.8243311153801" stroke="#000000" stroke-width="0.8" opacity="0.35" />
<line x1="482.3211622191502" y1="980.1445126332401" x2="502.9184919267323" y2="1030.0719236146288" stroke="#000000" stroke-width="0.8" opacity="0.35" />
<line x1="490.08350839773993" y1="979.9280487988872" x2="511.2501168640816" y2="1030.0157532519806" stroke="#000000" stroke-width="0.8" opacity="0.35" />
<line x1="497.53793632570887" y1="979.9842598473188" x2="519.6302187045226" y2="1029.8263717157824" stroke="#000000" stroke-width="0.8" opacity="0.35" />
<line x1="505.5752931523966" y1="979.5042337400264" x2="526.7557561096369" y2="1029.9174516995117" stroke="#000000" stroke-width="0.8" opacity="0.35" />
<line x1="514.4945429308937" y1="979.6164311646098" x2="535.2187356246909" y2="1030.4809153583774" stroke="#000000" stroke-width="0.8" opacity="0.35" />
<line x1="522.2518307611899" y1="979.8635446974804" x2="543.2251662276581" y2="1030.1333789605414" stroke="#000000" stroke-width="0.8" opacity="0.35" />
<line x1="529.6829100350151" y1="979.9173674590274" x2="551.284442468987" y2="1030.2666601526216" stroke="#000000" stroke-width="0.8" opacity="0.35" />
<line x1="537.5018880004864" y1="979.5815182451697" x2="559.6188014842196" y2="1030.085315848206" stroke="#000000" stroke-width="0.8" opacity="0.35" />
<line x1="546.1791086389931" y1="979.9912023117322" x2="567.110610324537" y2="1030.039427755968" stroke="#000000" stroke-width="0.8" opacity="0.35" />
<line x1="554.1333580163337" y1="980.374872113629" x2="575.5436935748698" y2="1030.099659045467" stroke="#000000" stroke-width="0.8" opacity="0.35" />
<line x1="562.0319985221122" y1="980.0205869301135" x2="583.431492344575" y2="1030.2766235333183" stroke="#000000" stroke-width="0.8" opacity="0.35" />
<line x1="570.3813304031391" y1="980.0202015333998" x2="590.7921559727988" y2="1030.1647394273823" stroke="#000000" stroke-width="0.8" opacity="0.35" />
<line x1="577.7131181042641" y1="979.9102244485839" x2="599.068853523177" y2="1030.478564243298" stroke="#000000" stroke-width="0.8" opacity="0.35" />
<line x1="585.6393746517351" y1="979.5674776143169" x2="607.4997166163052" y2="1029.6498986110018" stroke="#000000" stroke-width="0.8" opacity="0.35" />
<line x1="594.4042549362639" y1="980.1261239003925" x2="611.569249838838" y2="1022.7558270872877" stroke="#000000" stroke-width="0.8" opacity="0.35" />
<line x1="602.1620019200636" y1="980.4677115209779" x2="612.3695834831087" y2="1003.6997602291713" stroke="#000000" stroke-width="0.8" opacity="0.35" />
<line x1="609.6350446652141" y1="980.3013135989968" x2="612.1371985243368" y2="984.3027457932867" stroke="#000000" stroke-width="0.8" opacity="0.35" />
<text x="532" y="1005" text-anchor="middle" dominant-baseline="central" font-family="'Virgil', 'Segoe Print', 'Comic Sans MS', 'Patrick Hand', cursive" font-size="14" fill="#000000"><tspan x="532" dy="0">Cooldown Filter</tspan></text></g>
<g><path d="M 454.37638216226696,1120.3854048352623
    L 610.3783495333355,1119.362939728595
    Q 615.2563506100396,1119.4241427590932 615.8761775492676,1125.5667522666954
    L 615.684222959706,1163.399121717226
    Q 615.793903499216,1170.7418143963405 609.4246467469147,1170.1186120316743
    L 454.7213730375661,1170.4670810066928
    Q 447.2576817229092,1169.6516714341597 447.72887969399744,1164.3777461417849
    L 447.7953170462206,1126.128257936125
    Q 448.2000684408122,1119.2729954045499 454.3079353562007,1119.4164737897845
    Z" fill="#a5d8ff" stroke="#000000" stroke-width="1.5" />
<line x1="448.04538058640173" y1="1162.3545302622867" x2="451.02213424235794" y2="1169.700891037117" stroke="#000000" stroke-width="0.8" opacity="0.35" />
<line x1="448.25475800040294" y1="1143.7372465557846" x2="459.529238943233" y2="1169.5352541827779" stroke="#000000" stroke-width="0.8" opacity="0.35" />
<line x1="448.1791274173629" y1="1125.0548425412808" x2="466.69796115087644" y2="1170.3318661875965" stroke="#000000" stroke-width="0.8" opacity="0.35" />
<line x1="454.0048515028029" y1="1120.0901805126196" x2="474.9452548849045" y2="1169.63572085966" stroke="#000000" stroke-width="0.8" opacity="0.35" />
<line x1="461.5562332687332" y1="1120.0496451904473" x2="482.72978011517677" y2="1169.7187409151884" stroke="#000000" stroke-width="0.8" opacity="0.35" />
<line x1="469.8799583544751" y1="1120.2176852301945" x2="490.77455109646377" y2="1169.864492208193" stroke="#000000" stroke-width="0.8" opacity="0.35" />
<line x1="478.3964850850316" y1="1119.7780372419147" x2="499.0522084175869" y2="1170.1751691653753" stroke="#000000" stroke-width="0.8" opacity="0.35" />
<line x1="486.4721004147632" y1="1120.011341776073" x2="507.38037960847447" y2="1169.8743517988987" stroke="#000000" stroke-width="0.8" opacity="0.35" />
<line x1="493.5169818709692" y1="1119.9231838328124" x2="515.1726974271901" y2="1169.618875151078" stroke="#000000" stroke-width="0.8" opacity="0.35" />
<line x1="502.4242705939105" y1="1119.73069521642" x2="523.3094510220585" y2="1169.7156543860328" stroke="#000000" stroke-width="0.8" opacity="0.35" />
<line x1="509.822881590364" y1="1119.9163316115737" x2="531.3440445217607" y2="1170.2371996639777" stroke="#000000" stroke-width="0.8" opacity="0.35" />
<line x1="518.1432311905955" y1="1120.2024598783246" x2="538.918003476389" y2="1169.709377616513" stroke="#000000" stroke-width="0.8" opacity="0.35" />
<line x1="526.054750348585" y1="1119.8905436492278" x2="547.2967440137877" y2="1170.3726824222467" stroke="#000000" stroke-width="0.8" opacity="0.35" />
<line x1="533.9601110534495" y1="1120.0662472068434" x2="555.05848979749" y2="1169.7966747457103" stroke="#000000" stroke-width="0.8" opacity="0.35" />
<line x1="542.0976195596159" y1="1119.7326747441657" x2="563.5919421335534" y2="1169.7943099283293" stroke="#000000" stroke-width="0.8" opacity="0.35" />
<line x1="549.7972889133671" y1="1120.4018317691753" x2="570.7210648708028" y2="1170.2995638318716" stroke="#000000" stroke-width="0.8" opacity="0.35" />
<line x1="558.016322536103" y1="1120.2709691218697" x2="579.039860445952" y2="1169.659417852079" stroke="#000000" stroke-width="0.8" opacity="0.35" />
<line x1="566.4074181391388" y1="1119.953142533188" x2="586.9722030237685" y2="1169.7494424213874" stroke="#000000" stroke-width="0.8" opacity="0.35" />
<line x1="574.4067234746981" y1="1119.6210943601545" x2="595.0866621068494" y2="1170.1479857641825" stroke="#000000" stroke-width="0.8" opacity="0.35" />
<line x1="581.6035501446677" y1="1119.5245290467246" x2="602.6399189178233" y2="1170.0664748029521" stroke="#000000" stroke-width="0.8" opacity="0.35" />
<line x1="589.6863704791685" y1="1120.1847954388522" x2="610.9451529499315" y2="1169.5164780210253" stroke="#000000" stroke-width="0.8" opacity="0.35" />
<line x1="597.5529260752701" y1="1119.9355181237624" x2="616.1511821400127" y2="1162.1064458135834" stroke="#000000" stroke-width="0.8" opacity="0.35" />
<line x1="606.0246451776147" y1="1120.1411962439452" x2="615.808451582172" y2="1143.6184807976306" stroke="#000000" stroke-width="0.8" opacity="0.35" />
<line x1="613.8903809644617" y1="1119.7299530592863" x2="615.6154124104123" y2="1124.3330476357469" stroke="#000000" stroke-width="0.8" opacity="0.35" />
<text x="532" y="1145" text-anchor="middle" dominant-baseline="central" font-family="'Virgil', 'Segoe Print', 'Comic Sans MS', 'Patrick Hand', cursive" font-size="14" fill="#000000"><tspan x="532" dy="0">Config Overrides</tspan></text></g>
</g>
</svg>