<svg xmlns="http://www.w3.org/2000/svg" viewBox="0 0 600 690" width="600" height="690">
<rect width="600" height="690" fill="#ffffff" />
<defs><marker id="arrowhead" markerWidth="10" markerHeight="7" refX="10" refY="3.5" orient="auto"><polygon points="0 0, 10 3.5, 0 7" fill="#000000" /></marker></defs>
<g transform="translate(40, 40)">
<path d="M 260,50 Q 261.63494306532084,96.53341093493509 260,145" fill="none" stroke="#000000" stroke-width="1.5" marker-end="url(#arrowhead)" />

<path d="M 195.71428571428572,235 Q 165.30130816839767,255.8833927099331 131.42857142857142,280" fill="none" stroke="#000000" stroke-width="1.5" marker-end="url(#arrowhead)" />
<rect x="130.07142857142856" y="242.5" width="67" height="26" rx="4" fill="white" stroke="none" />
<text x="163.57142857142856" y="256.5" text-anchor="middle" dominant-baseline="central" font-family="'Virgil', 'Segoe Print', 'Comic Sans MS', 'Patrick Hand', cursive" font-size="12" fill="#495057" font-style="italic">Claude</text>
<path d="M 299.2857142857143,235 Q 318.54176974403424,257.080681774416 338.57142857142856,280" fill="none" stroke="#000000" stroke-width="1.5" marker-end="url(#arrowhead)" />
<rect x="214.17857142857144" y="242.5" width="209.5" height="26" rx="4" fill="white" stroke="none" />
<text x="318.92857142857144" y="256.5" text-anchor="middle" dominant-baseline="central" font-family="'Virgil', 'Segoe Print', 'Comic Sans MS', 'Patrick Hand', cursive" font-size="12" fill="#495057" font-style="italic">Gemini / Codex / OpenClaw</text>
<path d="M 130.2325581395349,352 Q 177.91832238570572,386.0387595211796 225.11627906976744,420" fill="none" stroke="#000000" stroke-width="1.5" marker-end="url(#arrowhead)" />

<path d="M 339.30232558139534,352 Q 308.8999084610387,384.6585138674418 281.3178294573643,420" fill="none" stroke="#000000" stroke-width="1.5" marker-end="url(#arrowhead)" />

<path d="M 260,470 Q 261.7623336838442,515.734036822425 260,560" fill="none" stroke="#000000" stroke-width="1.5" marker-end="url(#arrowhead)" />

<g><path d="M 185.63752910060066,0.48844872434165154
    L 333.29685479241016,-0.35328212005151727
    Q 340.08286935047363,-0.5062207110786403 339.64277978523023,5.852065683739056
    L 340.2595851197748,44.100992501731525
    Q 340.39369510439064,49.95405629251127 334.6487048488634,49.393772266224914
    L 186.33826090285947,50.70243182718332
    Q 180.71661589276755,50.701192280859686 179.89741490204688,44.09640665274492
    L 180.21547114674468,5.849634980080737
    Q 180.5978663334754,0.36265536757673544 186.09798224223778,-0.1450506317014515
    Z" fill="#a5d8ff" stroke="#000000" stroke-width="1.5" />
<line x1="180.1404344183593" y1="43.001506789124385" x2="182.8195350987376" y2="49.59060459167813" stroke="#000000" stroke-width="0.8" opacity="0.35" />
<line x1="180.0096898802949" y1="23.639254602435294" x2="190.8547526745356" y2="49.51699960447149" stroke="#000000" stroke-width="0.8" opacity="0.35" />
<line x1="179.7912926834615" y1="5.206823839172089" x2="199.0657069812992" y2="49.924538516424946" stroke="#000000" stroke-width="0.8" opacity="0.35" />
<line x1="186.10807290657976" y1="0.11979216465442732" x2="207.25523246236529" y2="50.15519412815047" stroke="#000000" stroke-width="0.8" opacity="0.35" />
<line x1="193.52470914085643" y1="0.4405834209610475" x2="215.32317014251433" y2="50.10628380851631" stroke="#000000" stroke-width="0.8" opacity="0.35" />
<line x1="201.68043109623432" y1="0.12357718802377349" x2="223.049022706648" y2="49.86977110217413" stroke="#000000" stroke-width="0.8" opacity="0.35" />
<line x1="210.25398248348938" y1="-0.34433111074758926" x2="230.96835202717605" y2="50.429067521916295" stroke="#000000" stroke-width="0.8" opacity="0.35" />
<line x1="217.7755521987783" y1="-0.007281618105480447" x2="239.30738793351023" y2="49.83303914384305" stroke="#000000" stroke-width="0.8" opacity="0.35" />
<line x1="225.5972007781602" y1="0.46705133598152315" x2="247.04127156454754" y2="49.94538181704047" stroke="#000000" stroke-width="0.8" opacity="0.35" />
<line x1="234.0647310508939" y1="-0.17230502086749766" x2="254.64225330196908" y2="49.64141381115678" stroke="#000000" stroke-width="0.8" opacity="0.35" />
<line x1="242.08722786804265" y1="-0.38936935692618135" x2="263.1839394796812" y2="50.426805221126415" stroke="#000000" stroke-width="0.8" opacity="0.35" />
<line x1="250.08656188123132" y1="0.006175018570502289" x2="271.33080922514233" y2="50.08091584590875" stroke="#000000" stroke-width="0.8" opacity="0.35" />
<line x1="258.04677111742785" y1="0.1286354554067657" x2="278.8680017045013" y2="50.24060993101739" stroke="#000000" stroke-width="0.8" opacity="0.35" />
<line x1="265.6776404192424" y1="-0.008649986044474645" x2="287.170028135774" y2="49.70347065087117" stroke="#000000" stroke-width="0.8" opacity="0.35" />
<line x1="274.463202579238" y1="0.30403007008862915" x2="294.7313714185844" y2="49.970205689543945" stroke="#000000" stroke-width="0.8" opacity="0.35" />
<line x1="281.89223537468206" y1="-0.334359974549443" x2="302.8310459175123" y2="50.347892614183365" stroke="#000000" stroke-width="0.8" opacity="0.35" />
<line x1="290.41686189788015" y1="0.3236839089222485" x2="311.47557500919226" y2="50.23738144179515" stroke="#000000" stroke-width="0.8" opacity="0.35" />
<line x1="297.8461769039859" y1="0.26911603882035706" x2="318.64827218516126" y2="50.443306237888464" stroke="#000000" stroke-width="0.8" opacity="0.35" />
<line x1="306.0478598409245" y1="0.1563566887343768" x2="326.8948469209541" y2="49.808835936786636" stroke="#000000" stroke-width="0.8" opacity="0.35" />
<line x1="314.3435859614219" y1="-0.01819902974239085" x2="335.27800665567025" y2="49.55452718293418" stroke="#000000" stroke-width="0.8" opacity="0.35" />
<line x1="321.6344502811098" y1="0.017114535272412468" x2="340.47988275622265" y2="42.327786623637444" stroke="#000000" stroke-width="0.8" opacity="0.35" />
<line x1="330.1198901813186" y1="-0.06272764266032027" x2="339.8036419059572" y2="23.267121350828248" stroke="#000000" stroke-width="0.8" opacity="0.35" />
<line x1="338.4633683114007" y1="-0.22381090345879784" x2="340.37511364022794" y2="4.511741463352317" stroke="#000000" stroke-width="0.8" opacity="0.35" />
<text x="260" y="25" text-anchor="middle" dominant-baseline="central" font-family="'Virgil', 'Segoe Print', 'Comic Sans MS', 'Patrick Hand', cursive" font-size="14" fill="#000000"><tspan x="260" dy="0">Setup Agent</tspan></text></g>
<g><path d="M 260.5827785785368,139.0163171455897
    L 372.3521587462019,190.1294621017878
    L 259.655389958265,239.00518473012198
    L 147.28282762231356,189.97270355116052
    Z" fill="#ffec99" stroke="#000000" stroke-width="1.5" />
<line x1="148.0442785427731" y1="225.57481234253441" x2="154.4231463161787" y2="240.30291813461008" stroke="#000000" stroke-width="0.8" opacity="0.35" />
<line x1="148.19114828823422" y1="206.30714360700387" x2="161.89755017211888" y2="239.86100000054284" stroke="#000000" stroke-width="0.8" opacity="0.35" />
<line x1="147.72834076759318" y1="187.54505833179962" x2="170.12324969472053" y2="239.58297600696824" stroke="#000000" stroke-width="0.8" opacity="0.35" />
<line x1="148.03036719886586" y1="168.0861396913405" x2="177.78833683562067" y2="239.71202476375038" stroke="#000000" stroke-width="0.8" opacity="0.35" />
<line x1="147.59171048167627" y1="149.4310953697004" x2="186.26780315439197" y2="239.7376244034458" stroke="#000000" stroke-width="0.8" opacity="0.35" />
<line x1="151.6913849806042" y1="140.34789261418337" x2="194.56391389386505" y2="240.34006245129513" stroke="#000000" stroke-width="0.8" opacity="0.35" />
<line x1="160.33591407228414" y1="140.23738144179515" x2="202.70760994365725" y2="240.29689201883593" stroke="#000000" stroke-width="0.8" opacity="0.35" />
<line x1="167.50861124825315" y1="140.44330623788846" x2="210.70407210575655" y2="239.8231734869987" stroke="#000000" stroke-width="0.8" opacity="0.35" />
<line x1="175.75518598404597" y1="139.80883593678664" x2="217.94773320685005" y2="239.75866580649017" stroke="#000000" stroke-width="0.8" opacity="0.35" />
<line x1="184.13834571876214" y1="139.55452718293418" x2="225.9368894269001" y2="239.89263577860038" stroke="#000000" stroke-width="0.8" opacity="0.35" />
<line x1="192.47988275622265" y1="139.7537830629335" x2="234.32716288334" y2="240.24716781098596" stroke="#000000" stroke-width="0.8" opacity="0.35" />
<line x1="199.8036419059572" y1="139.61489715043717" x2="242.32002872349864" y2="239.50304485792367" stroke="#000000" stroke-width="0.8" opacity="0.35" />
<line x1="208.37511364022794" y1="139.7812966232741" x2="249.99396532288625" y2="240.20599826524995" stroke="#000000" stroke-width="0.8" opacity="0.35" />
<line x1="216.37771528189478" y1="139.6175541249504" x2="257.9048013720613" y2="239.7826138952587" stroke="#000000" stroke-width="0.8" opacity="0.35" />
<line x1="223.7856149220679" y1="139.85000347418827" x2="266.58661149601636" y2="240.08621960622622" stroke="#000000" stroke-width="0.8" opacity="0.35" />
<line x1="232.06278267137532" y1="139.7986720393892" x2="274.3448167785037" y2="240.47853935597186" stroke="#000000" stroke-width="0.8" opacity="0.35" />
<line x1="240.14065051724765" y1="139.8817747672365" x2="282.39398058394823" y2="239.64183672217405" stroke="#000000" stroke-width="0.8" opacity="0.35" />
<line x1="248.161405530107" y1="139.6395213079013" x2="290.5404234660337" y2="240.38778172562888" stroke="#000000" stroke-width="0.8" opacity="0.35" />
<line x1="256.24760592225357" y1="140.4610495443776" x2="298.4850251309554" y2="240.18009982910735" stroke="#000000" stroke-width="0.8" opacity="0.35" />
<line x1="264.13162783666485" y1="140.30755836174012" x2="306.578568168633" y2="239.64342859116368" stroke="#000000" stroke-width="0.8" opacity="0.35" />
<line x1="272.11824885229" y1="139.66904890420847" x2="314.2036385205584" y2="240.48416693036756" stroke="#000000" stroke-width="0.8" opacity="0.35" />
<line x1="279.8973807867578" y1="139.6585360425015" x2="322.6141251005038" y2="239.90764667305484" stroke="#000000" stroke-width="0.8" opacity="0.35" />
<line x1="287.6691909128349" y1="140.4483059586055" x2="329.89467632676036" y2="239.97715542267542" stroke="#000000" stroke-width="0.8" opacity="0.35" />
<line x1="295.7621623403611" y1="139.64476573990396" x2="338.4823307102643" y2="240.3928862454195" stroke="#000000" stroke-width="0.8" opacity="0.35" />
<line x1="303.7288902376604" y1="140.37496012319937" x2="346.3219171805477" y2="239.86300648809993" stroke="#000000" stroke-width="0.8" opacity="0.35" />
<line x1="312.3509178442073" y1="139.58251287796884" x2="354.44464495195376" y2="239.7112718757329" stroke="#000000" stroke-width="0.8" opacity="0.35" />
<line x1="319.62684852224254" y1="139.51829137267487" x2="362.6919199644299" y2="239.52566272709373" stroke="#000000" stroke-width="0.8" opacity="0.35" />
<line x1="327.6695160025338" y1="139.68393018123606" x2="370.610141355541" y2="239.53544163837796" stroke="#000000" stroke-width="0.8" opacity="0.35" />
<line x1="336.3659460964045" y1="140.4468627359056" x2="372.38096846247936" y2="225.05683182097505" stroke="#000000" stroke-width="0.8" opacity="0.35" />
<line x1="344.08375257017906" y1="140.49837052793123" x2="371.99364501344826" y2="206.2423198123377" stroke="#000000" stroke-width="0.8" opacity="0.35" />
<line x1="352.4931912884167" y1="139.78655796708335" x2="372.283245047729" y2="186.91030499023657" stroke="#000000" stroke-width="0.8" opacity="0.35" />
<line x1="359.8830946635712" y1="139.98716580463224" x2="372.08758497897725" y2="168.13332824919954" stroke="#000000" stroke-width="0.8" opacity="0.35" />
<line x1="367.90399563761093" y1="139.8691501549256" x2="371.96155159209593" y2="149.03798083020772" stroke="#000000" stroke-width="0.8" opacity="0.35" />
<text x="260" y="190" text-anchor="middle" dominant-baseline="central" font-family="'Virgil', 'Segoe Print', 'Comic Sans MS', 'Patrick Hand', cursive" font-size="14" fill="#000000"><tspan x="260" dy="0">Backend?</tspan></text></g>
<g><path d="M 5.90590853600952,279.7054628589358
    L 153.42234572565576,280.0610602745237
    Q 159.2545672868855,279.67893571942477 160.31514422375653,286.69505246710105
    L 159.6642836448118,346.5626704603419
    Q 159.67194493491115,351.5719651736051 154.30899739787492,352.0078784551806
    L 6.3719104760075425,352.54319368932556
    Q 0.6286693717611342,352.56657292284217 -0.5736688125743967,345.43821924736767
    L -0.32607915711196256,286.5874930856287
    Q -0.32284914369665785,280.5292191211465 6.010422639161334,279.67842238310186
    Z" fill="#a5d8ff" stroke="#000000" stroke-width="1.5" />
<line x1="-0.21438507793209283" y1="336.6153415551269" x2="6.7484013713478355" y2="352.0862196062262" stroke="#000000" stroke-width="0.8" opacity="0.35" />
<line x1="0.06278267137531657" y1="317.64223076001497" x2="14.50660665383516" y2="352.47853935597186" stroke="#000000" stroke-width="0.8" opacity="0.35" />
<line x1="0.14065051724765" y1="298.8035541275494" x2="22.55577045927971" y2="351.64183672217405" stroke="#000000" stroke-width="0.8" opacity="0.35" />
<line x1="0.16140553010700387" y1="279.6395213079013" x2="30.702213341365177" y2="352.3877817256289" stroke="#000000" stroke-width="0.8" opacity="0.35" />
<line x1="8.24760592225357" y1="280.4610495443776" x2="38.6468150062869" y2="352.18009982910735" stroke="#000000" stroke-width="0.8" opacity="0.35" />
<line x1="16.131627836664848" y1="280.3075583617401" x2="46.74035804396449" y2="351.6434285911637" stroke="#000000" stroke-width="0.8" opacity="0.35" />
<line x1="24.11824885228998" y1="279.66904890420847" x2="54.36542839588988" y2="352.48416693036756" stroke="#000000" stroke-width="0.8" opacity="0.35" />
<line x1="31.89738078675782" y1="279.6585360425015" x2="62.775914975835306" y2="351.90764667305484" stroke="#000000" stroke-width="0.8" opacity="0.35" />
<line x1="39.66919091283489" y1="280.4483059586055" x2="70.05646620209184" y2="351.9771554226754" stroke="#000000" stroke-width="0.8" opacity="0.35" />
<line x1="47.7621623403611" y1="279.64476573990396" x2="78.64412058559579" y2="352.3928862454195" stroke="#000000" stroke-width="0.8" opacity="0.35" />
<line x1="55.72889023766038" y1="280.37496012319934" x2="86.48370705587918" y2="351.8630064880999" stroke="#000000" stroke-width="0.8" opacity="0.35" />
<line x1="64.35091784420729" y1="279.58251287796884" x2="94.60643482728524" y2="351.7112718757329" stroke="#000000" stroke-width="0.8" opacity="0.35" />
<line x1="71.62684852224254" y1="279.51829137267487" x2="102.85370983976141" y2="351.52566272709373" stroke="#000000" stroke-width="0.8" opacity="0.35" />
<line x1="79.66951600253378" y1="279.68393018123606" x2="110.77193123087245" y2="351.53544163837796" stroke="#000000" stroke-width="0.8" opacity="0.35" />
<line x1="88.36594609640451" y1="280.4468627359056" x2="118.82208021162701" y2="351.90882469956705" stroke="#000000" stroke-width="0.8" opacity="0.35" />
<line x1="96.08375257017906" y1="280.49837052793123" x2="126.43475676259591" y2="352.0160920512426" stroke="#000000" stroke-width="0.8" opacity="0.35" />
<line x1="104.49319128841671" y1="279.78655796708335" x2="134.72435679687663" y2="351.60585658945433" stroke="#000000" stroke-width="0.8" opacity="0.35" />
<line x1="111.88309466357123" y1="279.98716580463224" x2="142.52869672812488" y2="351.7506592087302" stroke="#000000" stroke-width="0.8" opacity="0.35" />
<line x1="119.90399563761093" y1="279.8691501549256" x2="150.40266334124357" y2="351.5770911500513" stroke="#000000" stroke-width="0.8" opacity="0.35" />
<line x1="127.55033223588543" y1="280.11694152703785" x2="158.91514597380632" y2="352.26236675123073" stroke="#000000" stroke-width="0.8" opacity="0.35" />
<line x1="135.65590464911656" y1="280.12389545281303" x2="159.65539902818273" y2="337.11028861271535" stroke="#000000" stroke-width="0.8" opacity="0.35" />
<line x1="144.30650089174742" y1="279.5573280569515" x2="159.72603370593424" y2="317.45781402016826" stroke="#000000" stroke-width="0.8" opacity="0.35" />
<line x1="152.21963446468362" y1="279.54477192786726" x2="160.1286473989203" y2="298.78752393859025" stroke="#000000" stroke-width="0.8" opacity="0.35" />
<text x="80" y="306.2" text-anchor="middle" dominant-baseline="central" font-family="'Virgil', 'Segoe Print', 'Comic Sans MS', 'Patrick Hand', cursive" font-size="14" fill="#000000"><tspan x="80" dy="0">Native MCP</tspan><tspan x="80" dy="19.599999999999998">(--mcp-config)</tspan></text></g>
<g><path d="M 226.58932936812926,280.4401011499203
    L 514.3473410950392,280.7064191636946
    Q 519.7673266573711,279.59333535649057 520.562440184799,286.0638929600973
    L 519.7945097321499,345.341139767168
    Q 520.6280289485476,351.9337056704313 514.6216572882913,352.52637676631093
    L 225.37376931695326,352.2479846172064
    Q 219.56690781359936,352.59742229868425 219.8345987017001,345.5842536937944
    L 219.27723415819491,285.4402727833638
    Q 219.2774370590123,280.61889713592063 225.2884940906406,279.29768737927225
    Z" fill="#a5d8ff" stroke="#000000" stroke-width="1.5" />
<line x1="219.5317915861815" y1="336.79213757424833" x2="226.27792036067007" y2="351.7445278391242" stroke="#000000" stroke-width="0.8" opacity="0.35" />
<line x1="219.63645954912863" y1="317.5376692051685" x2="234.2766825560979" y2="352.2972593242357" stroke="#000000" stroke-width="0.8" opacity="0.35" />
<line x1="220.0919990942" y1="299.3798079988955" x2="242.44420130405746" y2="352.1077433467326" stroke="#000000" stroke-width="0.8" opacity="0.35" />
<line x1="219.8372510953086" y1="280.1858396050811" x2="250.37577797587727" y2="352.278010795264" stroke="#000000" stroke-width="0.8" opacity="0.35" />
<line x1="227.72803736700007" y1="280.4714542302572" x2="258.45942473554936" y2="351.50815871712257" stroke="#000000" stroke-width="0.8" opacity="0.35" />
<line x1="236.44077232274867" y1="279.5954468337536" x2="266.0185473812166" y2="351.8320700700424" stroke="#000000" stroke-width="0.8" opacity="0.35" />
<line x1="243.76720910121367" y1="280.02025889047945" x2="274.00398571937734" y2="352.44287793955937" stroke="#000000" stroke-width="0.8" opacity="0.35" />
<line x1="252.19429608911332" y1="280.0392046261113" x2="281.95423331309615" y2="351.61567452609233" stroke="#000000" stroke-width="0.8" opacity="0.35" />
<line x1="259.7080588611425" y1="279.68154645450704" x2="290.0466893568586" y2="352.36474487397936" stroke="#000000" stroke-width="0.8" opacity="0.35" />
<line x1="267.90148674030206" y1="279.53485781108975" x2="298.0267076182758" y2="352.12061271946004" stroke="#000000" stroke-width="0.8" opacity="0.35" />
<line x1="275.7792447899337" y1="279.8897252980978" x2="306.7387361822261" y2="351.7053017179278" stroke="#000000" stroke-width="0.8" opacity="0.35" />
<line x1="283.96098435589374" y1="279.5615510588468" x2="314.26244722907035" y2="351.9260866706336" stroke="#000000" stroke-width="0.8" opacity="0.35" />
<line x1="292.15296270904764" y1="280.43163691269" x2="322.2261708971095" y2="351.6654750543785" stroke="#000000" stroke-width="0.8" opacity="0.35" />
<line x1="299.8730143323846" y1="280.49915590436285" x2="329.9617531949247" y2="352.1197069514965" stroke="#000000" stroke-width="0.8" opacity="0.35" />
<line x1="308.47929104208015" y1="280.28437676489557" x2="338.55894479587045" y2="351.960726111276" stroke="#000000" stroke-width="0.8" opacity="0.35" />
<line x1="315.93606240396184" y1="280.35856402787795" x2="346.01057766129856" y2="351.5608627059846" stroke="#000000" stroke-width="0.8" opacity="0.35" />
<line x1="324.02507022651116" y1="279.6347092982869" x2="354.4290252330033" y2="352.19662404666724" stroke="#000000" stroke-width="0.8" opacity="0.35" />
<line x1="331.51781946583924" y1="280.0461574691726" x2="362.07520437816896" y2="351.5803452693108" stroke="#000000" stroke-width="0.8" opacity="0.35" />
<line x1="340.00570908233203" y1="280.27959656379244" x2="370.6698355881476" y2="351.9423900333859" stroke="#000000" stroke-width="0.8" opacity="0.35" />
<line x1="348.06761274721066" y1="279.8928242441325" x2="378.7233737649007" y2="351.681380157861" stroke="#000000" stroke-width="0.8" opacity="0.35" />
<line x1="356.252359405451" y1="280.45470967086385" x2="386.4515168089351" y2="351.5634769555618" stroke="#000000" stroke-width="0.8" opacity="0.35" />
<line x1="363.79881468268286" y1="279.581871233524" x2="394.8328691181891" y2="351.7084325316473" stroke="#000000" stroke-width="0.8" opacity="0.35" />
<line x1="371.83428981909856" y1="280.248469963306" x2="402.3488797412578" y2="351.7085683120895" stroke="#000000" stroke-width="0.8" opacity="0.35" />
<line x1="379.7548187251123" y1="279.71173458739213" x2="410.71501955619027" y2="352.1873128692605" stroke="#000000" stroke-width="0.8" opacity="0.35" />
<line x1="388.31751051038736" y1="279.5002226181823" x2="418.1626509143684" y2="351.98347578987887" stroke="#000000" stroke-width="0.8" opacity="0.35" />
<line x1="396.0212104326056" y1="279.6362704255862" x2="426.7237365440455" y2="351.8447900777828" stroke="#000000" stroke-width="0.8" opacity="0.35" />
<line x1="404.15478699525556" y1="279.76925045116514" x2="434.75499104408703" y2="351.9212013755405" stroke="#000000" stroke-width="0.8" opacity="0.35" />
<line x1="411.641857957773" y1="280.35978274065565" x2="442.92824869819054" y2="352.42216464042576" stroke="#000000" stroke-width="0.8" opacity="0.35" />
<line x1="419.7454514375713" y1="279.53268416381616" x2="450.63506415952764" y2="352.16466409539134" stroke="#000000" stroke-width="0.8" opacity="0.35" />
<line x1="427.92428945766005" y1="280.21266581529926" x2="458.49620605433705" y2="351.61623208212404" stroke="#000000" stroke-width="0.8" opacity="0.35" />
<line x1="436.4873380543795" y1="280.3682547354492" x2="466.533496904311" y2="351.50224007480574" stroke="#000000" stroke-width="0.8" opacity="0.35" />
<line x1="443.99990282888757" y1="279.5857731194701" x2="474.42798551318305" y2="352.30190373062214" stroke="#000000" stroke-width="0.8" opacity="0.35" />
<line x1="452.47253250866015" y1="279.65748620849627" x2="482.7289853153565" y2="352.115522853499" stroke="#000000" stroke-width="0.8" opacity="0.35" />
<line x1="459.5805199997267" y1="279.5280698563729" x2="489.9598699295206" y2="352.14099061546585" stroke="#000000" stroke-width="0.8" opacity="0.35" />
<line x1="467.6268073232932" y1="280.1012155225544" x2="498.32162012297744" y2="352.37743651433993" stroke="#000000" stroke-width="0.8" opacity="0.35" />
<line x1="475.84686855547625" y1="280.1241030968904" x2="506.6304302508801" y2="351.5979621777806" stroke="#000000" stroke-width="0.8" opacity="0.35" />
<line x1="484.2765150594714" y1="280.44169194265123" x2="514.0357972588977" y2="352.32632649900734" stroke="#000000" stroke-width="0.8" opacity="0.35" />
<line x1="491.8493177049895" y1="280.3758739468103" x2="520.2613563417472" y2="346.4302359562477" stroke="#000000" stroke-width="0.8" opacity="0.35" />
<line x1="499.84213598462156" y1="279.53224053390295" x2="519.7688403915581" y2="327.64437793339107" stroke="#000000" stroke-width="0.8" opacity="0.35" />
<line x1="508.2067371243684" y1="280.2008323454211" x2="519.774912948058" y2="308.4963158048794" stroke="#000000" stroke-width="0.8" opacity="0.35" />
<line x1="516.2471362167635" y1="280.38721145298405" x2="520.3656814414644" y2="289.61861859451705" stroke="#000000" stroke-width="0.8" opacity="0.35" />
<text x="370" y="306.2" text-anchor="middle" dominant-baseline="central" font-family="'Virgil', 'Segoe Print', 'Comic Sans MS', 'Patrick Hand', cursive" font-size="14" fill="#000000"><tspan x="370" dy="0">Tool Proxy</tspan><tspan x="370" dy="19.599999999999998">(prompt injection + tool_calls JSON)</tspan></text></g>
<g><path d="M 150.18091907919006,420.32945169702543
    L 369.3171578918009,420.19297109838044
    Q 375.79861686741606,419.6688671849006 375.8345879471467,426.4464366496177
    L 375.5579525768917,464.12910358428417
    Q 375.3605123292291,470.0910384929989 369.35525165900253,469.9414765338406
    L 149.34232658827023,469.73200321988406
    Q 143.8891300059504,469.7795284005333 143.81219560320278,464.2832014982814
    L 144.0525428210094,426.22944406357146
    Q 144.64745536903501,419.6775887219428 149.4982125815677,419.7868753838884
    Z" fill="#a5d8ff" stroke="#000000" stroke-width="1.5" />
<line x1="143.52064144577707" y1="462.6937105122005" x2="146.72220536317448" y2="470.19834341465685" stroke="#000000" stroke-width="0.8" opacity="0.35" />
<line x1="144.1178330467228" y1="443.61295031166713" x2="155.32756813704648" y2="469.62472918270214" stroke="#000000" stroke-width="0.8" opacity="0.35" />
<line x1="143.56946591215092" y1="424.29130754606285" x2="163.04194472559223" y2="470.41459560736985" stroke="#000000" stroke-width="0.8" opacity="0.35" />
<line x1="149.98791348385566" y1="420.19662404666724" x2="170.99715184788923" y2="469.9092010122622" stroke="#000000" stroke-width="0.8" opacity="0.35" />
<line x1="157.63409262902132" y1="419.5803452693108" x2="179.1944896940736" y2="469.67473544561017" stroke="#000000" stroke-width="0.8" opacity="0.35" />
<line x1="166.22872383899994" y1="419.9423900333859" x2="187.28415246246416" y2="470.0391998720297" stroke="#000000" stroke-width="0.8" opacity="0.35" />
<line x1="174.28226201575308" y1="419.681380157861" x2="195.47538888024658" y2="469.61522906620667" stroke="#000000" stroke-width="0.8" opacity="0.35" />
<line x1="182.01040505978744" y1="419.5634769555618" x2="203.15326732324368" y2="470.05676789167774" stroke="#000000" stroke-width="0.8" opacity="0.35" />
<line x1="190.39175736904144" y1="419.7084325316473" x2="211.33209809748635" y2="470.3767153977533" stroke="#000000" stroke-width="0.8" opacity="0.35" />
<line x1="197.90776799211017" y1="419.7085683120895" x2="218.7034450924007" y2="469.50592984427476" stroke="#000000" stroke-width="0.8" opacity="0.35" />
<line x1="206.27390780704263" y1="420.1873128692605" x2="226.98781901145824" y2="470.4342419872555" stroke="#000000" stroke-width="0.8" opacity="0.35" />
<line x1="213.72153916522075" y1="419.98347578987887" x2="235.3454038983514" y2="469.8596456719097" stroke="#000000" stroke-width="0.8" opacity="0.35" />
<line x1="222.28262479489786" y1="419.8447900777828" x2="243.19641961456048" y2="470.21314610214904" stroke="#000000" stroke-width="0.8" opacity="0.35" />
<line x1="230.3138792949394" y1="419.9212013755405" x2="250.67078449871454" y2="470.40053849144897" stroke="#000000" stroke-width="0.8" opacity="0.35" />
<line x1="238.4871369490429" y1="420.42216464042576" x2="258.79337620695566" y2="469.65408512841896" stroke="#000000" stroke-width="0.8" opacity="0.35" />
<line x1="246.19395241038" y1="420.16466409539134" x2="266.72280895762066" y2="469.7612115090451" stroke="#000000" stroke-width="0.8" opacity="0.35" />
<line x1="254.0550943051894" y1="419.61623208212404" x2="275.4735512052653" y2="469.65719095395616" stroke="#000000" stroke-width="0.8" opacity="0.35" />
<line x1="262.09238515516336" y1="419.50224007480574" x2="282.7852391562306" y2="469.6450698422559" stroke="#000000" stroke-width="0.8" opacity="0.35" />
<line x1="269.9868737640354" y1="420.30190373062214" x2="290.7303819477498" y2="470.0693839164596" stroke="#000000" stroke-width="0.8" opacity="0.35" />
<line x1="278.2878735662089" y1="420.115522853499" x2="298.6847349656278" y2="469.58823478211525" stroke="#000000" stroke-width="0.8" opacity="0.35" />
<line x1="285.51875818037297" y1="420.14099061546585" x2="307.4136224041836" y2="470.41987249216254" stroke="#000000" stroke-width="0.8" opacity="0.35" />
<line x1="293.8805083738298" y1="420.37743651433993" x2="315.3875278089859" y2="470.2636140617469" stroke="#000000" stroke-width="0.8" opacity="0.35" />
<line x1="302.1893185017325" y1="419.5979621777806" x2="323.5120625208188" y2="470.16250212122395" stroke="#000000" stroke-width="0.8" opacity="0.35" />
<line x1="309.59468550975" y1="420.32632649900734" x2="331.2712506740905" y2="470.4363941970587" stroke="#000000" stroke-width="0.8" opacity="0.35" />
<line x1="318.26135634174716" y1="420.2040081951527" x2="339.5492730769734" y2="469.78660718632455" stroke="#000000" stroke-width="0.8" opacity="0.35" />
<line x1="325.7688403915581" y1="420.33992953260895" x2="347.0207288795469" y2="469.8306144363196" stroke="#000000" stroke-width="0.8" opacity="0.35" />
<line x1="333.77491294805805" y1="420.1136467644101" x2="355.60526518284547" y2="469.8919440473692" stroke="#000000" stroke-width="0.8" opacity="0.35" />
<line x1="342.3656814414644" y1="420.15772891436063" x2="362.94913004086317" y2="469.62421899697074" stroke="#000000" stroke-width="0.8" opacity="0.35" />
<line x1="350.2724259331808" y1="420.4805913847158" x2="371.0961814572261" y2="469.51808980026544" stroke="#000000" stroke-width="0.8" opacity="0.35" />
<line x1="358.39571465233166" y1="420.12255012394235" x2="376.37020969779405" y2="462.3121477952471" stroke="#000000" stroke-width="0.8" opacity="0.35" />
<line x1="366.45381169974826" y1="419.942982902161" x2="376.4019437750467" y2="444.085259042792" stroke="#000000" stroke-width="0.8" opacity="0.35" />
<line x1="374.29641016107234" y1="419.7203438324141" x2="376.49375354514814" y2="424.4437200444836" stroke="#000000" stroke-width="0.8" opacity="0.35" />
<text x="260" y="445" text-anchor="middle" dominant-baseline="central" font-family="'Virgil', 'Segoe Print', 'Comic Sans MS', 'Patrick Hand', cursive" font-size="14" fill="#000000"><tspan x="260" dy="0">varsity_tools.dispatch()</tspan></text></g>
<g><path d="M 186.6023358133025,559.7514347286478
    L 334.37270494495897,559.8616519881652
    Q 339.5628524681342,559.3456762332389 339.25889476641214,565.4367329192064
    L 340.5248373074537,603.6322280876684
    Q 339.5676018810882,610.410861710564 334.28096930389074,609.7722371118252
    L 186.65136298088328,609.6585380125871
    Q 179.7347996554522,610.476265765581 179.25033392727346,603.5823087478311
    L 179.9752136848183,566.308614442165
    Q 179.7894685078645,559.4042531834057 185.67083037068187,560.0318156489084
    Z" fill="#a5d8ff" stroke="#000000" stroke-width="1.5" />
<line x1="179.65375162845157" y1="602.8282648260746" x2="183.29444793216365" y2="609.7692504511651" stroke="#000000" stroke-width="0.8" opacity="0.35" />
<line x1="179.73868739225873" y1="584.0495247603384" x2="190.7815188946811" y2="610.3597827406556" stroke="#000000" stroke-width="0.8" opacity="0.35" />
<line x1="180.0744683561643" y1="564.9147193506606" x2="198.8851123744794" y2="609.5326841638162" stroke="#000000" stroke-width="0.8" opacity="0.35" />
<line x1="186.04387829810003" y1="559.8110486265559" x2="207.06395039456814" y2="610.2126658152993" stroke="#000000" stroke-width="0.8" opacity="0.35" />
<line x1="194.42622240619676" y1="559.8083883706204" x2="215.6269989912876" y2="610.3682547354492" stroke="#000000" stroke-width="0.8" opacity="0.35" />
<line x1="202.08549014690652" y1="559.8254812981831" x2="223.13956376579566" y2="609.5857731194701" stroke="#000000" stroke-width="0.8" opacity="0.35" />
<line x1="210.4947855114151" y1="559.6165135098781" x2="231.61219344556824" y2="609.6574862084963" stroke="#000000" stroke-width="0.8" opacity="0.35" />
<line x1="218.43142911379982" y1="559.9303419036441" x2="238.72018093663476" y2="609.5280698563729" stroke="#000000" stroke-width="0.8" opacity="0.35" />
<line x1="226.16433666514058" y1="560.2035274365899" x2="246.76646826020126" y2="610.1012155225544" stroke="#000000" stroke-width="0.8" opacity="0.35" />
<line x1="233.94213696169754" y1="559.5211333895313" x2="254.98652949238434" y2="610.1241030968904" stroke="#000000" stroke-width="0.8" opacity="0.35" />
<line x1="241.68351569880906" y1="560.0128114742838" x2="263.41617599637954" y2="610.4416919426512" stroke="#000000" stroke-width="0.8" opacity="0.35" />
<line x1="250.03377623479537" y1="559.8813464509876" x2="270.98897864189763" y2="610.3758739468103" stroke="#000000" stroke-width="0.8" opacity="0.35" />
<line x1="258.46641155589896" y1="559.6321778448983" x2="278.9817969215297" y2="609.532240533903" stroke="#000000" stroke-width="0.8" opacity="0.35" />
<line x1="266.29328174680995" y1="560.4814009810907" x2="287.3463980612765" y2="610.2008323454211" stroke="#000000" stroke-width="0.8" opacity="0.35" />
<line x1="274.12020452177967" y1="560.3441137956324" x2="295.3867971536716" y2="610.387211452984" stroke="#000000" stroke-width="0.8" opacity="0.35" />
<line x1="281.96308127494376" y1="560.018721882203" x2="303.1031301646913" y2="609.7671788328735" stroke="#000000" stroke-width="0.8" opacity="0.35" />
<line x1="289.9230977074367" y1="560.0628026301056" x2="311.42435447762415" y2="609.7069068267228" stroke="#000000" stroke-width="0.8" opacity="0.35" />
<line x1="297.99269056027697" y1="560.2969873349721" x2="319.2326856431069" y2="610.4284346783679" stroke="#000000" stroke-width="0.8" opacity="0.35" />
<line x1="305.5413546647469" y1="560.136525595648" x2="327.6274480457037" y2="609.5093429935587" stroke="#000000" stroke-width="0.8" opacity="0.35" />
<line x1="313.9673108989009" y1="559.7215053368618" x2="334.9261972234422" y2="609.6524446522508" stroke="#000000" stroke-width="0.8" opacity="0.35" />
<line x1="322.42778255218764" y1="560.0039507569745" x2="340.0771225762437" y2="602.5849012650367" stroke="#000000" stroke-width="0.8" opacity="0.35" />
<line x1="329.71187580003425" y1="560.0808668777754" x2="340.2791064272242" y2="583.4532435742575" stroke="#000000" stroke-width="0.8" opacity="0.35" />
<line x1="337.8649636241171" y1="559.8940911316677" x2="339.87795951326007" y2="564.8793417442457" stroke="#000000" stroke-width="0.8" opacity="0.35" />
<text x="260" y="585" text-anchor="middle" dominant-baseline="central" font-family="'Virgil', 'Segoe Print', 'Comic Sans MS', 'Patrick Hand', cursive" font-size="14" fill="#000000"><tspan x="260" dy="0">Arena API</tspan></text></g>
</g>
</svg>