<svg xmlns="http://www.w3.org/2000/svg" viewBox="0 0 580 1020" width="580" height="1020">
<rect width="580" height="1020" fill="#ffffff" />
<defs><marker id="arrowhead" markerWidth="10" markerHeight="7" refX="10" refY="3.5" orient="auto"><polygon points="0 0, 10 3.5, 0 7" fill="#495057" /></marker></defs>
<g transform="translate(80, -70)">
<rect x="20" y="110" width="380" height="940" rx="8" ry="8" fill="#f8f9fa" stroke="#868e96" stroke-width="1" stroke-dasharray="6,4" />
<text x="32" y="128" font-family="'Segoe Print', 'Comic Sans MS', 'Patrick Hand', cursive" font-size="12" fill="#868e96" font-weight="600">Outer Loop (LLM) — every 10-60 min</text>
<rect x="-40" y="270" width="500" height="620" rx="8" ry="8" fill="#f8f9fa" stroke="#868e96" stroke-width="1" stroke-dasharray="6,4" />
<text x="-28" y="288" font-family="'Segoe Print', 'Comic Sans MS', 'Patrick Hand', cursive" font-size="12" fill="#868e96" font-weight="600">Inner Loop (deterministic) — every candle</text>
<line x1="210" y1="960" x2="210" y2="210" stroke="#495057" stroke-width="1.5" marker-end="url(#arrowhead)" />
<rect x="175.5" y="570" width="69" height="26" rx="4" fill="white" stroke="none" opacity="0.9" />
<text x="210" y="583" text-anchor="middle" dominant-baseline="central" font-family="'Segoe Print', 'Comic Sans MS', 'Patrick Hand', cursive" font-size="12" fill="#495057" font-style="italic">defines</text>
<line x1="210" y1="370" x2="210" y2="485" stroke="#495057" stroke-width="1.5" marker-end="url(#arrowhead)" />
<rect x="168.5" y="412.5" width="83" height="26" rx="4" fill="white" stroke="none" opacity="0.9" />
<text x="210" y="425.5" text-anchor="middle" dominant-baseline="central" font-family="'Segoe Print', 'Comic Sans MS', 'Patrick Hand', cursive" font-size="12" fill="#495057" font-style="italic">evaluates</text>
<line x1="166.66666666666669" y1="575" x2="104.07407407407408" y2="640" stroke="#495057" stroke-width="1.5" marker-end="url(#arrowhead)" />
<rect x="114.87037037037038" y="592.5" width="41" height="26" rx="4" fill="white" stroke="none" opacity="0.9" />
<text x="135.37037037037038" y="605.5" text-anchor="middle" dominant-baseline="central" font-family="'Segoe Print', 'Comic Sans MS', 'Patrick Hand', cursive" font-size="12" fill="#495057" font-style="italic">Yes</text>
<line x1="100.3125" y1="690" x2="189.6875" y2="800" stroke="#495057" stroke-width="1.5" marker-end="url(#arrowhead)" />

<line x1="253.33333333333331" y1="575" x2="315.9259259259259" y2="640" stroke="#495057" stroke-width="1.5" marker-end="url(#arrowhead)" />
<rect x="267.6296296296296" y="592.5" width="34" height="26" rx="4" fill="white" stroke="none" opacity="0.9" />
<text x="284.6296296296296" y="605.5" text-anchor="middle" dominant-baseline="central" font-family="'Segoe Print', 'Comic Sans MS', 'Patrick Hand', cursive" font-size="12" fill="#495057" font-style="italic">No</text>
<line x1="210" y1="210" x2="210" y2="320" stroke="#495057" stroke-width="1.5" marker-end="url(#arrowhead)" />

<line x1="210" y1="850" x2="210" y2="960" stroke="#495057" stroke-width="1.5" marker-end="url(#arrowhead)" />
<rect x="130" y="890" width="160" height="26" rx="4" fill="white" stroke="none" opacity="0.9" />
<text x="210" y="903" text-anchor="middle" dominant-baseline="central" font-family="'Segoe Print', 'Comic Sans MS', 'Patrick Hand', cursive" font-size="12" fill="#495057" font-style="italic">performance feedback</text>
<rect x="60" y="160" width="300" height="50" rx="8" ry="8" fill="#a5d8ff" stroke="#1e1e1e" stroke-width="1.5" />
<text x="210" y="185" text-anchor="middle" dominant-baseline="central" font-family="'Segoe Print', 'Comic Sans MS', 'Patrick Hand', cursive" font-size="14" fill="#1e1e1e"><tspan x="210" dy="0">entry_long = rsi_14 &lt; 30 and close &gt; sma_50</tspan></text>
<rect x="122" y="320" width="176" height="50" rx="8" ry="8" fill="#a5d8ff" stroke="#1e1e1e" stroke-width="1.5" />
<text x="210" y="345" text-anchor="middle" dominant-baseline="central" font-family="'Segoe Print', 'Comic Sans MS', 'Patrick Hand', cursive" font-size="14" fill="#1e1e1e"><tspan x="210" dy="0">Expression Engine</tspan></text>
<polygon points="210,480 322,530 210,580 98,530" fill="#ffec99" stroke="#1e1e1e" stroke-width="1.5" />
<text x="210" y="530" text-anchor="middle" dominant-baseline="central" font-family="'Segoe Print', 'Comic Sans MS', 'Patrick Hand', cursive" font-size="14" fill="#1e1e1e"><tspan x="210" dy="0">Signal?</tspan></text>
<rect x="0" y="640" width="160" height="50" rx="8" ry="8" fill="#a5d8ff" stroke="#1e1e1e" stroke-width="1.5" />
<text x="80" y="665" text-anchor="middle" dominant-baseline="central" font-family="'Segoe Print', 'Comic Sans MS', 'Patrick Hand', cursive" font-size="14" fill="#1e1e1e"><tspan x="80" dy="0">Strategy Layer</tspan></text>
<rect x="260" y="640" width="160" height="50" rx="8" ry="8" fill="#b2f2bb" stroke="#1e1e1e" stroke-width="1.5" />
<text x="340" y="665" text-anchor="middle" dominant-baseline="central" font-family="'Segoe Print', 'Comic Sans MS', 'Patrick Hand', cursive" font-size="14" fill="#1e1e1e"><tspan x="340" dy="0">HOLD</tspan></text>
<rect x="130" y="800" width="160" height="50" rx="8" ry="8" fill="#a5d8ff" stroke="#1e1e1e" stroke-width="1.5" />
<text x="210" y="825" text-anchor="middle" dominant-baseline="central" font-family="'Segoe Print', 'Comic Sans MS', 'Patrick Hand', cursive" font-size="14" fill="#1e1e1e"><tspan x="210" dy="0">Execute Trade</tspan></text>
<rect x="130" y="960" width="160" height="50" rx="8" ry="8" fill="#a5d8ff" stroke="#1e1e1e" stroke-width="1.5" />
<text x="210" y="985" text-anchor="middle" dominant-baseline="central" font-family="'Segoe Print', 'Comic Sans MS', 'Patrick Hand', cursive" font-size="14" fill="#1e1e1e"><tspan x="210" dy="0">Setup Agent</tspan></text>
</g>
</svg>