<svg xmlns="http://www.w3.org/2000/svg" viewBox="0 0 540 920" width="540" height="920">
<rect width="540" height="920" fill="#ffffff" />
<defs><marker id="arrowhead" markerWidth="10" markerHeight="7" refX="10" refY="3.5" orient="auto"><polygon points="0 0, 10 3.5, 0 7" fill="#000000" /></marker></defs>
<g transform="translate(80, -50)">
<path d="M 5.387067797728378,89.71727806019408
    L 374.66480024265184,89.46010181233987
    Q 380.7117263173095,90.40291655233159 379.96237308781747,95.26199016983082
    L 380.09204813482893,924.4946291685083
    Q 380.5239226407284,929.7958823578574 374.4426330035567,930.2169438197407
    L 6.25362935758676,929.3357505708736
    Q -0.4960246043592633,930.2204601711892 -0.38255843165916303,924.041568335575
    L 0.014740129845449701,96.64204256199446
    Q 0.2495827152088168,90.40027869234564 6.121723792392004,89.9279166235574
    Z" fill="#f8f9fa" stroke="#868e96" stroke-width="1" stroke-dasharray="8,5" />
<text x="12" y="110" font-family="'Virgil', 'Segoe Print', 'Comic Sans MS', 'Patrick Hand', cursive" font-size="13" fill="#868e96" font-weight="600">Outer Loop (LLM) — every 10-60 min</text>
<path d="M -34.61293220227162,229.71727806019408
    L 414.66480024265184,229.46010181233987
    Q 420.7117263173095,230.4029165523316 419.96237308781747,235.26199016983082
    L 420.09204813482893,784.4946291685083
    Q 420.5239226407284,789.7958823578574 414.4426330035567,790.2169438197407
    L -33.74637064241324,789.3357505708736
    Q -40.49602460435926,790.2204601711892 -40.38255843165916,784.041568335575
    L -39.98525987015455,236.64204256199446
    Q -39.75041728479118,230.40027869234564 -33.878276207607996,229.9279166235574
    Z" fill="#f8f9fa" stroke="#868e96" stroke-width="1" stroke-dasharray="8,5" />
<text x="-28" y="250" font-family="'Virgil', 'Segoe Print', 'Comic Sans MS', 'Patrick Hand', cursive" font-size="13" fill="#868e96" font-weight="600">Inner Loop (deterministic) — every candle</text>
<path d="M 190,840 Q 191.63494306532084,514.0334109349351 190,190" fill="none" stroke="#000000" stroke-width="1.5" marker-end="url(#arrowhead)" />
<rect x="152.75" y="500" width="74.5" height="26" rx="4" fill="white" stroke="none" />
<text x="190" y="514" text-anchor="middle" dominant-baseline="central" font-family="'Virgil', 'Segoe Print', 'Comic Sans MS', 'Patrick Hand', cursive" font-size="12" fill="#495057" font-style="italic">defines</text>
<path d="M 190,330 Q 191.7298795969691,375.8833927099331 190,425" fill="none" stroke="#000000" stroke-width="1.5" marker-end="url(#arrowhead)" />
<rect x="145.25" y="362.5" width="89.5" height="26" rx="4" fill="white" stroke="none" />
<text x="190" y="376.5" text-anchor="middle" dominant-baseline="central" font-family="'Virgil', 'Segoe Print', 'Comic Sans MS', 'Patrick Hand', cursive" font-size="12" fill="#495057" font-style="italic">evaluates</text>
<path d="M 146.95652173913044,515 Q 125.04798092415845,537.080681774416 103.91304347826087,560" fill="none" stroke="#000000" stroke-width="1.5" marker-end="url(#arrowhead)" />
<rect x="103.18478260869566" y="522.5" width="44.5" height="26" rx="4" fill="white" stroke="none" />
<text x="125.43478260869566" y="536.5" text-anchor="middle" dominant-baseline="central" font-family="'Virgil', 'Segoe Print', 'Comic Sans MS', 'Patrick Hand', cursive" font-size="12" fill="#495057" font-style="italic">Yes</text>
<path d="M 99.64285714285714,610 Q 135.24390378105454,655.0387595211796 170.35714285714286,700" fill="none" stroke="#000000" stroke-width="1.5" marker-end="url(#arrowhead)" />

<path d="M 233.04347826086956,515 Q 253.15504833296322,536.1585138674418 276.0869565217391,560" fill="none" stroke="#000000" stroke-width="1.5" marker-end="url(#arrowhead)" />
<rect x="236.06521739130434" y="522.5" width="37" height="26" rx="4" fill="white" stroke="none" />
<text x="254.56521739130434" y="536.5" text-anchor="middle" dominant-baseline="central" font-family="'Virgil', 'Segoe Print', 'Comic Sans MS', 'Patrick Hand', cursive" font-size="12" fill="#495057" font-style="italic">No</text>
<path d="M 190,190 Q 191.7623336838442,235.73403682242497 190,280" fill="none" stroke="#000000" stroke-width="1.5" marker-end="url(#arrowhead)" />

<path d="M 190,750 Q 188.41876535271876,796.5655356465577 190,840" fill="none" stroke="#000000" stroke-width="1.5" marker-end="url(#arrowhead)" />
<rect x="104" y="780" width="172" height="26" rx="4" fill="white" stroke="none" />
<text x="190" y="794" text-anchor="middle" dominant-baseline="central" font-family="'Virgil', 'Segoe Print', 'Comic Sans MS', 'Patrick Hand', cursive" font-size="12" fill="#495057" font-style="italic">performance feedback</text>
<g><path d="M 45.63752910060066,140.48844872434165
    L 333.29685479241016,139.64671787994848
    Q 340.08286935047363,139.49377928892136 339.64277978523023,145.85206568373906
    L 340.2595851197748,184.10099250173153
    Q 340.39369510439064,189.95405629251127 334.6487048488634,189.39377226622491
    L 46.338260902859474,190.70243182718332
    Q 40.71661589276755,190.7011922808597 39.897414902046876,184.09640665274492
    L 40.215471146744676,145.84963498008074
    Q 40.597866333475395,140.36265536757674 46.09798224223778,139.85494936829855
    Z" fill="#a5d8ff" stroke="#000000" stroke-width="1.5" />
<line x1="40.14043441835929" y1="183.0015067891244" x2="42.81953509873759" y2="189.59060459167813" stroke="#000000" stroke-width="0.8" opacity="0.35" />
<line x1="40.0096898802949" y1="163.6392546024353" x2="50.854752674535604" y2="189.5169996044715" stroke="#000000" stroke-width="0.8" opacity="0.35" />
<line x1="39.791292683461506" y1="145.2068238391721" x2="59.0657069812992" y2="189.92453851642495" stroke="#000000" stroke-width="0.8" opacity="0.35" />
<line x1="46.108072906579764" y1="140.11979216465443" x2="67.25523246236529" y2="190.15519412815047" stroke="#000000" stroke-width="0.8" opacity="0.35" />
<line x1="53.52470914085643" y1="140.44058342096105" x2="75.32317014251433" y2="190.1062838085163" stroke="#000000" stroke-width="0.8" opacity="0.35" />
<line x1="61.680431096234315" y1="140.12357718802377" x2="83.049022706648" y2="189.86977110217413" stroke="#000000" stroke-width="0.8" opacity="0.35" />
<line x1="70.25398248348938" y1="139.6556688892524" x2="90.96835202717605" y2="190.4290675219163" stroke="#000000" stroke-width="0.8" opacity="0.35" />
<line x1="77.77555219877831" y1="139.99271838189452" x2="99.30738793351023" y2="189.83303914384305" stroke="#000000" stroke-width="0.8" opacity="0.35" />
<line x1="85.59720077816019" y1="140.46705133598152" x2="107.04127156454754" y2="189.94538181704047" stroke="#000000" stroke-width="0.8" opacity="0.35" />
<line x1="94.0647310508939" y1="139.8276949791325" x2="114.64225330196908" y2="189.64141381115678" stroke="#000000" stroke-width="0.8" opacity="0.35" />
<line x1="102.08722786804265" y1="139.61063064307382" x2="123.18393947968119" y2="190.42680522112641" stroke="#000000" stroke-width="0.8" opacity="0.35" />
<line x1="110.08656188123132" y1="140.0061750185705" x2="131.3308092251423" y2="190.08091584590875" stroke="#000000" stroke-width="0.8" opacity="0.35" />
<line x1="118.04677111742785" y1="140.12863545540677" x2="138.86800170450127" y2="190.2406099310174" stroke="#000000" stroke-width="0.8" opacity="0.35" />
<line x1="125.67764041924238" y1="139.99135001395553" x2="147.17002813577395" y2="189.70347065087117" stroke="#000000" stroke-width="0.8" opacity="0.35" />
<line x1="134.463202579238" y1="140.30403007008863" x2="154.73137141858436" y2="189.97020568954395" stroke="#000000" stroke-width="0.8" opacity="0.35" />
<line x1="141.89223537468206" y1="139.66564002545056" x2="162.83104591751228" y2="190.34789261418337" stroke="#000000" stroke-width="0.8" opacity="0.35" />
<line x1="150.41686189788015" y1="140.32368390892225" x2="171.47557500919223" y2="190.23738144179515" stroke="#000000" stroke-width="0.8" opacity="0.35" />
<line x1="157.8461769039859" y1="140.26911603882036" x2="178.64827218516123" y2="190.44330623788846" stroke="#000000" stroke-width="0.8" opacity="0.35" />
<line x1="166.0478598409245" y1="140.15635668873438" x2="186.89484692095405" y2="189.80883593678664" stroke="#000000" stroke-width="0.8" opacity="0.35" />
<line x1="174.34358596142192" y1="139.9818009702576" x2="195.27800665567023" y2="189.55452718293418" stroke="#000000" stroke-width="0.8" opacity="0.35" />
<line x1="181.63445028110982" y1="140.0171145352724" x2="203.61954369313074" y2="189.7537830629335" stroke="#000000" stroke-width="0.8" opacity="0.35" />
<line x1="190.11989018131862" y1="139.93727235733968" x2="210.94330284286528" y2="189.61489715043717" stroke="#000000" stroke-width="0.8" opacity="0.35" />
<line x1="198.4633683114007" y1="139.7761890965412" x2="219.51477457713602" y2="189.7812966232741" stroke="#000000" stroke-width="0.8" opacity="0.35" />
<line x1="206.36212912621704" y1="140.41911291450742" x2="227.51737621880287" y2="189.6175541249504" stroke="#000000" stroke-width="0.8" opacity="0.35" />
<line x1="214.35281274743102" y1="140.00694842610756" x2="234.925275858976" y2="189.85000347418827" stroke="#000000" stroke-width="0.8" opacity="0.35" />
<line x1="221.85891947138316" y1="140.34536706857034" x2="243.2024436082834" y2="189.7986720393892" stroke="#000000" stroke-width="0.8" opacity="0.35" />
<line x1="230.0373508621924" y1="140.22062837072008" x2="251.28031145415574" y2="189.8817747672365" stroke="#000000" stroke-width="0.8" opacity="0.35" />
<line x1="238.23602638289594" y1="139.98756753386988" x2="259.3010664670151" y2="189.6395213079013" stroke="#000000" stroke-width="0.8" opacity="0.35" />
<line x1="246.2298675168422" y1="140.2315730680375" x2="267.3872668591617" y2="190.4610495443776" stroke="#000000" stroke-width="0.8" opacity="0.35" />
<line x1="254.16263406406142" y1="139.5579980899165" x2="275.27128877357296" y2="190.30755836174012" stroke="#000000" stroke-width="0.8" opacity="0.35" />
<line x1="262.1151982060112" y1="140.2828332414574" x2="283.2579097891981" y2="189.66904890420847" stroke="#000000" stroke-width="0.8" opacity="0.35" />
<line x1="269.9788004476213" y1="139.59267617892328" x2="291.03704172366594" y2="189.6585360425015" stroke="#000000" stroke-width="0.8" opacity="0.35" />
<line x1="277.5495774712035" y1="140.21531325839896" x2="298.808851849743" y2="190.4483059586055" stroke="#000000" stroke-width="0.8" opacity="0.35" />
<line x1="286.21503525784647" y1="140.04214918381865" x2="306.9018232772692" y2="189.64476573990396" stroke="#000000" stroke-width="0.8" opacity="0.35" />
<line x1="294.4709461091297" y1="139.8448844382474" x2="314.8685511745685" y2="190.37496012319937" stroke="#000000" stroke-width="0.8" opacity="0.35" />
<line x1="301.9558037802875" y1="140.4144381921942" x2="323.4905787811154" y2="189.58251287796884" stroke="#000000" stroke-width="0.8" opacity="0.35" />
<line x1="309.7228357958629" y1="139.51815610546328" x2="330.76650945915065" y2="189.51829137267487" stroke="#000000" stroke-width="0.8" opacity="0.35" />
<line x1="317.83680861152243" y1="139.7445278391242" x2="338.8091769394419" y2="189.68393018123606" stroke="#000000" stroke-width="0.8" opacity="0.35" />
<line x1="325.8355708069503" y1="140.2972593242357" x2="340.3659460964045" y2="173.5599766164531" stroke="#000000" stroke-width="0.8" opacity="0.35" />
<line x1="334.0030895549098" y1="140.1077433467326" x2="340.08375257017906" y2="154.68970504816588" stroke="#000000" stroke-width="0.8" opacity="0.35" />
<text x="190" y="165" text-anchor="middle" dominant-baseline="central" font-family="'Virgil', 'Segoe Print', 'Comic Sans MS', 'Patrick Hand', cursive" font-size="14" fill="#000000"><tspan x="190" dy="0">entry_long = rsi_14 &lt; 30 and close &gt; sma_50</tspan></text></g>
<g><path d="M 108.43708393390261,279.2622378591923
    L 272.2641190596514,280.09709657634085
    Q 277.74154246869875,279.2538885475915 277.46212071673517,285.9795276633704
    L 278.4067191956801,323.4015879781946
    Q 278.02919478740296,330.13084180206397 271.4159459646107,330.06641781415965
    L 108.64020783168962,330.2157366635438
    Q 102.45437720191512,330.0501757445527 101.98754638201717,324.129842821847
    L 102.00926252785575,286.2867224323513
    Q 102.12137376886312,279.42734244745407 107.79150000081427,279.2978461473285
    Z" fill="#a5d8ff" stroke="#000000" stroke-width="1.5" />
<line x1="101.84392782090436" y1="322.15697956767224" x2="104.90468599437057" y2="330.14759255269746" stroke="#000000" stroke-width="0.8" opacity="0.35" />
<line x1="101.5090149618045" y1="303.3642489641415" x2="113.20926353051848" y2="330.11266304392484" stroke="#000000" stroke-width="0.8" opacity="0.35" />
<line x1="101.9884812805758" y1="284.46806924352404" x2="121.55073163722093" y2="330.40984869562817" stroke="#000000" stroke-width="0.8" opacity="0.35" />
<line x1="108.28459202004888" y1="280.3400624512951" x2="129.06520555456203" y2="330.2524269168098" stroke="#000000" stroke-width="0.8" opacity="0.35" />
<line x1="116.42828806984107" y1="280.29689201883593" x2="136.90625704339303" y2="330.07682038446" stroke="#000000" stroke-width="0.8" opacity="0.35" />
<line x1="124.42475023194038" y1="279.8231734869987" x2="144.7923816110529" y2="330.1688707854846" stroke="#000000" stroke-width="0.8" opacity="0.35" />
<line x1="131.66841133303387" y1="279.75866580649017" x2="153.32253846947017" y2="330.41811435298587" stroke="#000000" stroke-width="0.8" opacity="0.35" />
<line x1="139.65756755308394" y1="279.8926357786004" x2="161.01788667553458" y2="330.25988765528746" stroke="#000000" stroke-width="0.8" opacity="0.35" />
<line x1="148.04784100952384" y1="280.24716781098596" x2="168.69816578238218" y2="329.54146841977854" stroke="#000000" stroke-width="0.8" opacity="0.35" />
<line x1="156.04070684968246" y1="279.50304485792367" x2="176.92561808319127" y2="330.210096149171" stroke="#000000" stroke-width="0.8" opacity="0.35" />
<line x1="163.71464344907008" y1="280.20599826524995" x2="185.14491324036183" y2="330.24794031733836" stroke="#000000" stroke-width="0.8" opacity="0.35" />
<line x1="171.6254794982451" y1="279.7826138952587" x2="193.53132299399388" y2="329.78476723753556" stroke="#000000" stroke-width="0.8" opacity="0.35" />
<line x1="180.3072896222002" y1="280.0862196062262" x2="200.99210762767373" y2="329.93205493001005" stroke="#000000" stroke-width="0.8" opacity="0.35" />
<line x1="188.0654949046875" y1="280.47853935597186" x2="209.3976823103699" y2="330.2027401383348" stroke="#000000" stroke-width="0.8" opacity="0.35" />
<line x1="196.11465871013206" y1="279.64183672217405" x2="217.3503322135189" y2="330.28047975944355" stroke="#000000" stroke-width="0.8" opacity="0.35" />
<line x1="204.26110159221753" y1="280.3877817256289" x2="225.62770185949242" y2="329.5552895813198" stroke="#000000" stroke-width="0.8" opacity="0.35" />
<line x1="212.20570325713925" y1="280.18009982910735" x2="233.38419009061593" y2="329.85699410638335" stroke="#000000" stroke-width="0.8" opacity="0.35" />
<line x1="220.29924629481684" y1="279.6434285911637" x2="241.29087776715872" y2="329.8339095574411" stroke="#000000" stroke-width="0.8" opacity="0.35" />
<line x1="227.92431664674223" y1="280.48416693036756" x2="249.53727936769113" y2="329.55484050264204" stroke="#000000" stroke-width="0.8" opacity="0.35" />
<line x1="236.33480322668765" y1="279.90764667305484" x2="256.75577897223826" y2="329.73712378733626" stroke="#000000" stroke-width="0.8" opacity="0.35" />
<line x1="243.6153544529442" y1="279.9771554226754" x2="264.9319845379037" y2="330.2931128400305" stroke="#000000" stroke-width="0.8" opacity="0.35" />
<line x1="252.20300883644813" y1="280.3928862454195" x2="273.4330617035216" y2="330.2315607300261" stroke="#000000" stroke-width="0.8" opacity="0.35" />
<line x1="260.0425953067315" y1="279.8630064880999" x2="277.56075984477866" y2="322.99268952640233" stroke="#000000" stroke-width="0.8" opacity="0.35" />
<line x1="268.1653230781376" y1="279.7112718757329" x2="278.39828153245617" y2="303.5419566681911" stroke="#000000" stroke-width="0.8" opacity="0.35" />
<line x1="276.41259809061376" y1="279.52566272709373" x2="277.5317915861815" y2="284.7572443333879" stroke="#000000" stroke-width="0.8" opacity="0.35" />
<text x="190" y="305" text-anchor="middle" dominant-baseline="central" font-family="'Virgil', 'Segoe Print', 'Comic Sans MS', 'Patrick Hand', cursive" font-size="14" fill="#000000"><tspan x="190" dy="0">Expression Engine</tspan></text></g>
<g><path d="M 189.87454471467936,419.6072838119144
    L 301.22979430087435,470.08141369936493
    L 189.00608971584734,519.5719142925664
    L 78.42019229834204,470.9267366228014
    Z" fill="#ffec99" stroke="#000000" stroke-width="1.5" />
<line x1="78.00525230345374" y1="505.39594743874636" x2="84.64145100003321" y2="520.4191129145074" stroke="#000000" stroke-width="0.8" opacity="0.35" />
<line x1="78.3916620570858" y1="486.0109949986307" x2="92.63213462124719" y2="520.0069484261076" stroke="#000000" stroke-width="0.8" opacity="0.35" />
<line x1="77.85244669076565" y1="467.2365033307923" x2="100.13824134519933" y2="520.3453670685703" stroke="#000000" stroke-width="0.8" opacity="0.35" />
<line x1="78.25802137346182" y1="448.5854091788041" x2="108.31667273600857" y2="520.2206283707201" stroke="#000000" stroke-width="0.8" opacity="0.35" />
<line x1="78.21067127661081" y1="429.7413694396" x2="116.51534825671212" y2="519.9875675338699" stroke="#000000" stroke-width="0.8" opacity="0.35" />
<line x1="82.48804092258433" y1="419.5552895813198" x2="124.50918939065838" y2="520.2315730680375" stroke="#000000" stroke-width="0.8" opacity="0.35" />
<line x1="90.24452915370784" y1="419.85699410638335" x2="132.4419559378776" y2="519.5579980899165" stroke="#000000" stroke-width="0.8" opacity="0.35" />
<line x1="98.15121683025063" y1="419.8339095574411" x2="140.39452007982737" y2="520.2828332414574" stroke="#000000" stroke-width="0.8" opacity="0.35" />
<line x1="106.39761843078304" y1="419.55484050264204" x2="148.2581223214375" y2="519.5926761789233" stroke="#000000" stroke-width="0.8" opacity="0.35" />
<line x1="113.61611803533015" y1="419.73712378733626" x2="155.8288993450197" y2="520.215313258399" stroke="#000000" stroke-width="0.8" opacity="0.35" />
<line x1="121.79232360099559" y1="420.2931128400305" x2="164.49435713166264" y2="520.0421491838187" stroke="#000000" stroke-width="0.8" opacity="0.35" />
<line x1="130.29340076661353" y1="420.2315607300261" x2="172.7502679829459" y2="519.8448844382474" stroke="#000000" stroke-width="0.8" opacity="0.35" />
<line x1="137.56075984477866" y1="420.4186859656984" x2="180.2351256541037" y2="520.4144381921942" stroke="#000000" stroke-width="0.8" opacity="0.35" />
<line x1="146.39828153245617" y1="419.88973246780006" x2="188.0021576696791" y2="519.5181561054633" stroke="#000000" stroke-width="0.8" opacity="0.35" />
<line x1="153.5317915861815" y1="420.0267994933097" x2="196.1161304853386" y2="519.7445278391242" stroke="#000000" stroke-width="0.8" opacity="0.35" />
<line x1="161.63645954912863" y1="419.69411048454276" x2="204.11489268076645" y2="520.2972593242357" stroke="#000000" stroke-width="0.8" opacity="0.35" />
<line x1="170.0919990942" y1="420.4580286385826" x2="212.282411428726" y2="520.1077433467326" stroke="#000000" stroke-width="0.8" opacity="0.35" />
<line x1="177.8372510953086" y1="420.1858396050811" x2="220.2139881005458" y2="520.278010795264" stroke="#000000" stroke-width="0.8" opacity="0.35" />
<line x1="185.72803736700007" y1="420.4714542302572" x2="228.2976348602179" y2="519.5081587171226" stroke="#000000" stroke-width="0.8" opacity="0.35" />
<line x1="194.44077232274867" y1="419.5954468337536" x2="235.85675750588513" y2="519.8320700700424" stroke="#000000" stroke-width="0.8" opacity="0.35" />
<line x1="201.76720910121367" y1="420.02025889047945" x2="243.84219584404588" y2="520.4428779395594" stroke="#000000" stroke-width="0.8" opacity="0.35" />
<line x1="210.19429608911332" y1="420.0392046261113" x2="251.7924434377647" y2="519.6156745260923" stroke="#000000" stroke-width="0.8" opacity="0.35" />
<line x1="217.7080588611425" y1="419.68154645450704" x2="259.88489948152716" y2="520.3647448739794" stroke="#000000" stroke-width="0.8" opacity="0.35" />
<line x1="225.90148674030206" y1="419.53485781108975" x2="267.86491774294433" y2="520.12061271946" stroke="#000000" stroke-width="0.8" opacity="0.35" />
<line x1="233.77924478993373" y1="419.8897252980978" x2="276.5769463068946" y2="519.7053017179278" stroke="#000000" stroke-width="0.8" opacity="0.35" />
<line x1="241.96098435589374" y1="419.5615510588468" x2="284.1006573537389" y2="519.9260866706336" stroke="#000000" stroke-width="0.8" opacity="0.35" />
<line x1="250.15296270904764" y1="420.43163691269" x2="292.06438102177805" y2="519.6654750543785" stroke="#000000" stroke-width="0.8" opacity="0.35" />
<line x1="257.8730143323846" y1="420.49915590436285" x2="299.79996331959325" y2="520.1197069514965" stroke="#000000" stroke-width="0.8" opacity="0.35" />
<line x1="266.47929104208015" y1="420.28437676489557" x2="302.1178330467228" y2="505.108733232684" stroke="#000000" stroke-width="0.8" opacity="0.35" />
<line x1="273.93606240396184" y1="420.35856402787795" x2="301.5694659121509" y2="485.78709046707974" stroke="#000000" stroke-width="0.8" opacity="0.35" />
<line x1="282.02507022651116" y1="419.6347092982869" x2="301.98791348385566" y2="467.5010724474495" stroke="#000000" stroke-width="0.8" opacity="0.35" />
<line x1="289.51781946583924" y1="420.0461574691726" x2="301.6340926290213" y2="447.96301430978014" stroke="#000000" stroke-width="0.8" opacity="0.35" />
<line x1="298.00570908233203" y1="420.27959656379244" x2="302.22872383899994" y2="429.40327971354236" stroke="#000000" stroke-width="0.8" opacity="0.35" />
<text x="190" y="470" text-anchor="middle" dominant-baseline="central" font-family="'Virgil', 'Segoe Print', 'Comic Sans MS', 'Patrick Hand', cursive" font-size="14" fill="#000000"><tspan x="190" dy="0">Signal?</tspan></text></g>
<g><path d="M 6.589329368129256,560.4401011499203
    L 154.34734109503916,560.7064191636946
    Q 159.7673266573711,559.5933353564906 160.56244018479907,566.0638929600973
    L 159.7945097321499,603.341139767168
    Q 160.62802894854758,609.9337056704313 154.62165728829132,610.5263767663109
    L 5.373769316953258,610.2479846172064
    Q -0.43309218640064273,610.5974222986843 -0.16540129829991201,603.5842536937944
    L -0.7227658418050851,565.4402727833638
    Q -0.7225629409877001,560.6188971359206 5.288494090640597,559.2976873792722
    Z" fill="#a5d8ff" stroke="#000000" stroke-width="1.5" />
<line x1="0.33081948172480224" y1="602.109445199082" x2="2.776120486036721" y2="609.6941104845428" stroke="#000000" stroke-width="0.8" opacity="0.35" />
<line x1="0.380968462479359" y1="583.5610488999581" x2="11.231660031108081" y2="610.4580286385826" stroke="#000000" stroke-width="0.8" opacity="0.35" />
<line x1="-0.006354986551741826" y1="564.7465368913208" x2="18.976912032216692" y2="610.1858396050811" stroke="#000000" stroke-width="0.8" opacity="0.35" />
<line x1="6.283245047728997" y1="559.6058565894543" x2="26.86769830390816" y2="610.4714542302572" stroke="#000000" stroke-width="0.8" opacity="0.35" />
<line x1="14.087584978977247" y1="559.7506592087302" x2="35.58043325965676" y2="609.5954468337536" stroke="#000000" stroke-width="0.8" opacity="0.35" />
<line x1="21.96155159209593" y1="559.5770911500513" x2="42.90687003812175" y2="610.0202588904795" stroke="#000000" stroke-width="0.8" opacity="0.35" />
<line x1="30.47403422465868" y1="560.2623667512307" x2="51.33395702602141" y2="610.0392046261113" stroke="#000000" stroke-width="0.8" opacity="0.35" />
<line x1="37.65539902818273" y1="560.3449505317767" x2="58.847719798050576" y2="609.681546454507" stroke="#000000" stroke-width="0.8" opacity="0.35" />
<line x1="45.72603370593424" y1="559.6142552995425" x2="67.04114767721015" y2="609.5348578110898" stroke="#000000" stroke-width="0.8" opacity="0.35" />
<line x1="54.12864739892029" y1="559.8657445782774" x2="74.91890572684181" y2="609.8897252980978" stroke="#000000" stroke-width="0.8" opacity="0.35" />
<line x1="62.06069232866594" y1="559.5701677726684" x2="83.10064529280183" y2="609.5615510588468" stroke="#000000" stroke-width="0.8" opacity="0.35" />
<line x1="70.18880099885428" y1="560.0350285473396" x2="91.29262364595573" y2="610.43163691269" stroke="#000000" stroke-width="0.8" opacity="0.35" />
<line x1="77.57705426136818" y1="560.061733988874" x2="99.01267526929271" y2="610.4991559043629" stroke="#000000" stroke-width="0.8" opacity="0.35" />
<line x1="85.89441348255787" y1="560.1846845082882" x2="107.61895197898824" y2="610.2843767648956" stroke="#000000" stroke-width="0.8" opacity="0.35" />
<line x1="94.33523925095506" y1="560.1810809844392" x2="115.07572334086993" y2="610.358564027878" stroke="#000000" stroke-width="0.8" opacity="0.35" />
<line x1="102.17891994660204" y1="559.9368791918387" x2="123.16473116341925" y2="609.6347092982869" stroke="#000000" stroke-width="0.8" opacity="0.35" />
<line x1="110.20529717016689" y1="559.8558084380202" x2="130.65748040274732" y2="610.0461574691726" stroke="#000000" stroke-width="0.8" opacity="0.35" />
<line x1="118.35345286273514" y1="560.3472716515535" x2="139.14537001924012" y2="610.2795965637924" stroke="#000000" stroke-width="0.8" opacity="0.35" />
<line x1="126.14148219348135" y1="559.768791557548" x2="147.20727368411875" y2="609.8928242441325" stroke="#000000" stroke-width="0.8" opacity="0.35" />
<line x1="133.5385828852959" y1="560.0325768193034" x2="155.39202034235907" y2="610.4547096708638" stroke="#000000" stroke-width="0.8" opacity="0.35" />
<line x1="141.8629019492928" y1="560.0541535578595" x2="159.79881468268286" y2="602.155874794228" stroke="#000000" stroke-width="0.8" opacity="0.35" />
<line x1="150.17830186702122" y1="560.4015572088683" x2="159.83428981909856" y2="583.900694163697" stroke="#000000" stroke-width="0.8" opacity="0.35" />
<line x1="157.62448861280427" y1="560.3498915383025" x2="159.75481872511227" y2="564.4421794274704" stroke="#000000" stroke-width="0.8" opacity="0.35" />
<text x="80" y="585" text-anchor="middle" dominant-baseline="central" font-family="'Virgil', 'Segoe Print', 'Comic Sans MS', 'Patrick Hand', cursive" font-size="14" fill="#000000"><tspan x="80" dy="0">Strategy Layer</tspan></text></g>
<g><path d="M 226.18091907919006,560.3294516970254
    L 373.3171578918009,560.1929710983804
    Q 379.79861686741606,559.6688671849006 379.8345879471467,566.4464366496177
    L 379.5579525768917,604.1291035842842
    Q 379.3605123292291,610.0910384929989 373.35525165900253,609.9414765338406
    L 225.34232658827023,609.7320032198841
    Q 219.8891300059504,609.7795284005333 219.81219560320278,604.2832014982814
    L 220.0525428210094,566.2294440635715
    Q 220.64745536903501,559.6775887219428 225.4982125815677,559.7868753838884
    Z" fill="#b2f2bb" stroke="#000000" stroke-width="1.5" />
<line x1="219.52064144577707" y1="602.6937105122005" x2="222.72220536317448" y2="610.1983434146568" stroke="#000000" stroke-width="0.8" opacity="0.35" />
<line x1="220.1178330467228" y1="583.6129503116671" x2="231.32756813704648" y2="609.6247291827021" stroke="#000000" stroke-width="0.8" opacity="0.35" />
<line x1="219.56946591215092" y1="564.2913075460629" x2="239.04194472559223" y2="610.4145956073698" stroke="#000000" stroke-width="0.8" opacity="0.35" />
<line x1="225.98791348385566" y1="560.1966240466672" x2="246.99715184788923" y2="609.9092010122622" stroke="#000000" stroke-width="0.8" opacity="0.35" />
<line x1="233.63409262902132" y1="559.5803452693108" x2="255.1944896940736" y2="609.6747354456102" stroke="#000000" stroke-width="0.8" opacity="0.35" />
<line x1="242.22872383899994" y1="559.9423900333859" x2="263.2841524624642" y2="610.0391998720297" stroke="#000000" stroke-width="0.8" opacity="0.35" />
<line x1="250.28226201575308" y1="559.681380157861" x2="271.4753888802466" y2="609.6152290662067" stroke="#000000" stroke-width="0.8" opacity="0.35" />
<line x1="258.01040505978744" y1="559.5634769555618" x2="279.1532673232437" y2="610.0567678916777" stroke="#000000" stroke-width="0.8" opacity="0.35" />
<line x1="266.39175736904144" y1="559.7084325316473" x2="287.3320980974864" y2="610.3767153977533" stroke="#000000" stroke-width="0.8" opacity="0.35" />
<line x1="273.90776799211017" y1="559.7085683120895" x2="294.7034450924007" y2="609.5059298442748" stroke="#000000" stroke-width="0.8" opacity="0.35" />
<line x1="282.27390780704263" y1="560.1873128692605" x2="302.98781901145827" y2="610.4342419872555" stroke="#000000" stroke-width="0.8" opacity="0.35" />
<line x1="289.72153916522075" y1="559.9834757898789" x2="311.34540389835144" y2="609.8596456719097" stroke="#000000" stroke-width="0.8" opacity="0.35" />
<line x1="298.28262479489786" y1="559.8447900777828" x2="319.1964196145605" y2="610.213146102149" stroke="#000000" stroke-width="0.8" opacity="0.35" />
<line x1="306.3138792949394" y1="559.9212013755405" x2="326.67078449871457" y2="610.400538491449" stroke="#000000" stroke-width="0.8" opacity="0.35" />
<line x1="314.4871369490429" y1="560.4221646404258" x2="334.79337620695566" y2="609.654085128419" stroke="#000000" stroke-width="0.8" opacity="0.35" />
<line x1="322.19395241038" y1="560.1646640953913" x2="342.72280895762066" y2="609.7612115090451" stroke="#000000" stroke-width="0.8" opacity="0.35" />
<line x1="330.0550943051894" y1="559.616232082124" x2="351.4735512052653" y2="609.6571909539562" stroke="#000000" stroke-width="0.8" opacity="0.35" />
<line x1="338.09238515516336" y1="559.5022400748057" x2="358.7852391562306" y2="609.6450698422559" stroke="#000000" stroke-width="0.8" opacity="0.35" />
<line x1="345.9868737640354" y1="560.3019037306221" x2="366.7303819477498" y2="610.0693839164596" stroke="#000000" stroke-width="0.8" opacity="0.35" />
<line x1="354.2878735662089" y1="560.115522853499" x2="374.6847349656278" y2="609.5882347821153" stroke="#000000" stroke-width="0.8" opacity="0.35" />
<line x1="361.51875818037297" y1="560.1409906154659" x2="380.2739614672755" y2="602.9938760528664" stroke="#000000" stroke-width="0.8" opacity="0.35" />
<line x1="369.8805083738298" y1="560.3774365143399" x2="380.2478668720778" y2="583.915838262138" stroke="#000000" stroke-width="0.8" opacity="0.35" />
<line x1="378.1893185017325" y1="559.5979621777806" x2="380.3724015839107" y2="564.8929469613022" stroke="#000000" stroke-width="0.8" opacity="0.35" />
<text x="300" y="585" text-anchor="middle" dominant-baseline="central" font-family="'Virgil', 'Segoe Print', 'Comic Sans MS', 'Patrick Hand', cursive" font-size="14" fill="#000000"><tspan x="300" dy="0">HOLD</tspan></text></g>
<g><path d="M 116.60233581330249,699.7514347286478
    L 264.37270494495897,699.8616519881652
    Q 269.5628524681342,699.3456762332389 269.25889476641214,705.4367329192064
    L 270.5248373074537,743.6322280876684
    Q 269.5676018810882,750.410861710564 264.28096930389074,749.7722371118252
    L 116.65136298088328,749.6585380125871
    Q 109.7347996554522,750.476265765581 109.25033392727346,743.5823087478311
    L 109.9752136848183,706.308614442165
    Q 109.78946850786451,699.4042531834057 115.67083037068187,700.0318156489084
    Z" fill="#a5d8ff" stroke="#000000" stroke-width="1.5" />
<line x1="109.65375162845157" y1="742.8282648260746" x2="113.29444793216365" y2="749.7692504511651" stroke="#000000" stroke-width="0.8" opacity="0.35" />
<line x1="109.73868739225873" y1="724.0495247603384" x2="120.78151889468111" y2="750.3597827406556" stroke="#000000" stroke-width="0.8" opacity="0.35" />
<line x1="110.07446835616429" y1="704.9147193506606" x2="128.8851123744794" y2="749.5326841638162" stroke="#000000" stroke-width="0.8" opacity="0.35" />
<line x1="116.04387829810003" y1="699.8110486265559" x2="137.06395039456814" y2="750.2126658152993" stroke="#000000" stroke-width="0.8" opacity="0.35" />
<line x1="124.42622240619676" y1="699.8083883706204" x2="145.6269989912876" y2="750.3682547354492" stroke="#000000" stroke-width="0.8" opacity="0.35" />
<line x1="132.08549014690652" y1="699.8254812981831" x2="153.13956376579566" y2="749.5857731194701" stroke="#000000" stroke-width="0.8" opacity="0.35" />
<line x1="140.4947855114151" y1="699.6165135098781" x2="161.61219344556824" y2="749.6574862084963" stroke="#000000" stroke-width="0.8" opacity="0.35" />
<line x1="148.43142911379982" y1="699.9303419036441" x2="168.72018093663476" y2="749.5280698563729" stroke="#000000" stroke-width="0.8" opacity="0.35" />
<line x1="156.16433666514058" y1="700.2035274365899" x2="176.76646826020126" y2="750.1012155225544" stroke="#000000" stroke-width="0.8" opacity="0.35" />
<line x1="163.94213696169754" y1="699.5211333895313" x2="184.98652949238434" y2="750.1241030968904" stroke="#000000" stroke-width="0.8" opacity="0.35" />
<line x1="171.68351569880906" y1="700.0128114742838" x2="193.4161759963795" y2="750.4416919426512" stroke="#000000" stroke-width="0.8" opacity="0.35" />
<line x1="180.03377623479537" y1="699.8813464509876" x2="200.9889786418976" y2="750.3758739468103" stroke="#000000" stroke-width="0.8" opacity="0.35" />
<line x1="188.46641155589896" y1="699.6321778448983" x2="208.98179692152965" y2="749.532240533903" stroke="#000000" stroke-width="0.8" opacity="0.35" />
<line x1="196.29328174680995" y1="700.4814009810907" x2="217.34639806127646" y2="750.2008323454211" stroke="#000000" stroke-width="0.8" opacity="0.35" />
<line x1="204.12020452177967" y1="700.3441137956324" x2="225.38679715367155" y2="750.387211452984" stroke="#000000" stroke-width="0.8" opacity="0.35" />
<line x1="211.96308127494376" y1="700.018721882203" x2="233.1031301646913" y2="749.7671788328735" stroke="#000000" stroke-width="0.8" opacity="0.35" />
<line x1="219.92309770743668" y1="700.0628026301056" x2="241.42435447762412" y2="749.7069068267228" stroke="#000000" stroke-width="0.8" opacity="0.35" />
<line x1="227.99269056027697" y1="700.2969873349721" x2="249.23268564310686" y2="750.4284346783679" stroke="#000000" stroke-width="0.8" opacity="0.35" />
<line x1="235.5413546647469" y1="700.136525595648" x2="257.6274480457037" y2="749.5093429935587" stroke="#000000" stroke-width="0.8" opacity="0.35" />
<line x1="243.9673108989009" y1="699.7215053368618" x2="264.9261972234422" y2="749.6524446522508" stroke="#000000" stroke-width="0.8" opacity="0.35" />
<line x1="252.42778255218764" y1="700.0039507569745" x2="270.0771225762437" y2="742.5849012650367" stroke="#000000" stroke-width="0.8" opacity="0.35" />
<line x1="259.71187580003425" y1="700.0808668777754" x2="270.2791064272242" y2="723.4532435742575" stroke="#000000" stroke-width="0.8" opacity="0.35" />
<line x1="267.8649636241171" y1="699.8940911316677" x2="269.87795951326007" y2="704.8793417442457" stroke="#000000" stroke-width="0.8" opacity="0.35" />
<text x="190" y="725" text-anchor="middle" dominant-baseline="central" font-family="'Virgil', 'Segoe Print', 'Comic Sans MS', 'Patrick Hand', cursive" font-size="14" fill="#000000"><tspan x="190" dy="0">Execute Trade</tspan></text></g>
<g><path d="M 116.5661547715099,840.3718003081167
    L 264.3954210926204,839.9132054425463
    Q 269.281700084297,839.7703028332144 270.1861546453356,846.2839777525987
    L 269.39694326667086,884.558602375866
    Q 270.2437531818359,889.5252735482136 264.0192172114257,890.4147725892071
    L 116.66253791397685,889.392028264625
    Q 110.489489748511,890.1973846057735 110.65459129558803,884.050664352193
    L 109.82201967648143,845.7739765574843
    Q 110.56381092021547,840.3920345126207 116.30601229272906,840.6144182100979
    Z" fill="#a5d8ff" stroke="#000000" stroke-width="1.5" />
<line x1="109.76884039155811" y1="882.913933093313" x2="113.02072887954685" y2="889.8306144363196" stroke="#000000" stroke-width="0.8" opacity="0.35" />
<line x1="109.77491294805805" y1="863.7658709648011" x2="121.60526518284544" y2="889.8919440473692" stroke="#000000" stroke-width="0.8" opacity="0.35" />
<line x1="110.3656814414644" y1="844.8881737544389" x2="128.94913004086314" y2="889.6242189969707" stroke="#000000" stroke-width="0.8" opacity="0.35" />
<line x1="116.27242593318078" y1="840.4805913847158" x2="137.0961814572261" y2="889.5180898002654" stroke="#000000" stroke-width="0.8" opacity="0.35" />
<line x1="124.39571465233166" y1="840.1225501239423" x2="145.50987063470214" y2="889.7381442345431" stroke="#000000" stroke-width="0.8" opacity="0.35" />
<line x1="132.45381169974826" y1="839.942982902161" x2="153.54160471195476" y2="890.433034842401" stroke="#000000" stroke-width="0.8" opacity="0.35" />
<line x1="140.29641016107234" y1="839.7203438324141" x2="161.63341448205622" y2="889.7132752044054" stroke="#000000" stroke-width="0.8" opacity="0.35" />
<line x1="148.45556421340007" y1="840.1699264635026" x2="168.6500106075769" y2="889.9379505071338" stroke="#000000" stroke-width="0.8" opacity="0.35" />
<line x1="156.10623827187374" y1="840.2626656323646" x2="177.04959450070285" y2="890.2933547234934" stroke="#000000" stroke-width="0.8" opacity="0.35" />
<line x1="163.71683852528804" y1="840.3242103595567" x2="184.640413492391" y2="889.9440092571494" stroke="#000000" stroke-width="0.8" opacity="0.35" />
<line x1="172.07087566012342" y1="840.0903345322076" x2="193.01173347399575" y2="889.6845026004903" stroke="#000000" stroke-width="0.8" opacity="0.35" />
<line x1="179.98551160992065" y1="840.1420363429133" x2="200.96584301716078" y2="889.8575942546231" stroke="#000000" stroke-width="0.8" opacity="0.35" />
<line x1="188.3340583283134" y1="839.5845683190782" x2="209.1510451021791" y2="890.0604727476821" stroke="#000000" stroke-width="0.8" opacity="0.35" />
<line x1="196.1332116352787" y1="840.1838609448896" x2="217.0166967632072" y2="889.7024596406918" stroke="#000000" stroke-width="0.8" opacity="0.35" />
<line x1="204.28935072838067" y1="840.2787328345603" x2="224.96571953093056" y2="889.919082749675" stroke="#000000" stroke-width="0.8" opacity="0.35" />
<line x1="212.10333262871063" y1="839.8817080165609" x2="233.5055684987715" y2="890.0587036434117" stroke="#000000" stroke-width="0.8" opacity="0.35" />
<line x1="220.3665948170783" y1="840.3723159212241" x2="241.08214348482628" y2="890.4146485569509" stroke="#000000" stroke-width="0.8" opacity="0.35" />
<line x1="227.91638329203124" y1="840.3123472466032" x2="248.97280701959656" y2="889.9976510072083" stroke="#000000" stroke-width="0.8" opacity="0.35" />
<line x1="236.34134399253526" y1="839.7703190844877" x2="256.9225985873823" y2="889.6461235816241" stroke="#000000" stroke-width="0.8" opacity="0.35" />
<line x1="244.21754020720255" y1="840.4710769985522" x2="265.46151389203857" y2="890.1934444123508" stroke="#000000" stroke-width="0.8" opacity="0.35" />
<line x1="252.01909953819631" y1="840.3772651441614" x2="269.99779557016154" y2="882.6181738777348" stroke="#000000" stroke-width="0.8" opacity="0.35" />
<line x1="259.9493757926739" y1="840.4538635884819" x2="270.30649650673513" y2="864.0870786727236" stroke="#000000" stroke-width="0.8" opacity="0.35" />
<line x1="268.15697328399256" y1="840.2237264791402" x2="270.4819178898906" y2="844.5348787538196" stroke="#000000" stroke-width="0.8" opacity="0.35" />
<text x="190" y="865" text-anchor="middle" dominant-baseline="central" font-family="'Virgil', 'Segoe Print', 'Comic Sans MS', 'Patrick Hand', cursive" font-size="14" fill="#000000"><tspan x="190" dy="0">Setup Agent</tspan></text></g>
</g>
</svg>